<svg width="28" height="119" viewBox="0 0 28 119" fill="none" xmlns="http://www.w3.org/2000/svg">
<mask id="mask0_611_5789" style="mask-type:alpha" maskUnits="userSpaceOnUse" x="0" y="0" width="28" height="119">
<foreignObject x="0" y="0" width="0" height="0"><div xmlns="http://www.w3.org/1999/xhtml" style="backdrop-filter:blur(137.43px);clip-path:url(#bgblur_0_611_5789_clip_path);height:100%;width:100%"></div></foreignObject><path data-figma-bg-blur-radius="274.857" fill-rule="evenodd" clip-rule="evenodd" d="M27.4812 118.4C27.4812 114.086 27.4992 109.774 27.4601 105.46C27.422 101.331 27.3681 96.7094 26.0962 92.6913C24.7218 88.3509 22.3186 85.4774 19.4904 82.5862C17.4562 80.5048 13.1161 76.4162 11.0206 74.4254C9.30255 72.796 5.90661 69.6064 4.26361 67.8649C2.19665 65.6727 -0.000355126 62.9629 -0.000354633 59.1991C-0.000354139 55.4354 2.19665 52.7268 4.2615 50.5358C5.90344 48.7944 9.3015 45.6048 11.0185 43.9742C13.114 41.9859 17.4541 37.8973 19.4883 35.8145C22.3165 32.9184 24.7197 30.0499 26.0941 25.7107C27.3628 21.6914 27.4199 17.0688 27.458 12.9424C27.4971 8.62717 27.4791 4.31441 27.4791 0.000388526" fill="#D63C98"/>
</mask>
<g mask="url(#mask0_611_5789)">
<rect width="118.4" height="27.4857" transform="translate(0 118.4) rotate(-90)" fill="#FFFDEF"/>
</g>
<defs>
<clipPath id="bgblur_0_611_5789_clip_path" transform="translate(0 0)"><path fill-rule="evenodd" clip-rule="evenodd" d="M27.4812 118.4C27.4812 114.086 27.4992 109.774 27.4601 105.46C27.422 101.331 27.3681 96.7094 26.0962 92.6913C24.7218 88.3509 22.3186 85.4774 19.4904 82.5862C17.4562 80.5048 13.1161 76.4162 11.0206 74.4254C9.30255 72.796 5.90661 69.6064 4.26361 67.8649C2.19665 65.6727 -0.000355126 62.9629 -0.000354633 59.1991C-0.000354139 55.4354 2.19665 52.7268 4.2615 50.5358C5.90344 48.7944 9.3015 45.6048 11.0185 43.9742C13.114 41.9859 17.4541 37.8973 19.4883 35.8145C22.3165 32.9184 24.7197 30.0499 26.0941 25.7107C27.3628 21.6914 27.4199 17.0688 27.458 12.9424C27.4971 8.62717 27.4791 4.31441 27.4791 0.000388526"/>
</clipPath></defs>
</svg>
