<svg width="205" height="174" viewBox="0 0 205 174" fill="none" xmlns="http://www.w3.org/2000/svg">
<path d="M163.777 33.5377C167.104 33.0537 174.642 35.0532 177.354 37.4005C179.296 38.942 181.862 41.2375 182.95 43.4642C183.68 44.9632 182.336 45.5928 184.285 46.8752C184.569 47.5612 185.024 48.6244 185.235 49.3447C187.83 58.1871 185.369 68.6503 182.175 77.0647C181.211 79.6044 179.558 82.1219 178.319 84.5368C177.507 86.1202 176.746 87.6768 175.976 89.2625C175.271 90.7132 174.367 91.7966 173.631 93.0853C171.007 97.6749 167.8 101.363 164.454 105.409C163.979 105.982 162.821 106.684 162.494 107.123C161.484 108.471 160.999 110.253 159.806 111.477C156.398 114.973 152.956 118.482 149.447 121.877C148.333 122.956 146.551 123.843 145.368 124.873C144.523 125.608 144.037 126.933 143.175 127.665C135.501 134.192 127.241 139.997 118.499 145.004C115.558 146.671 114.28 147.802 110.82 148.174C110.593 148.199 109.515 149.308 109.115 149.553C107.272 150.684 105.299 151.321 103.256 151.976C99.9037 151.219 95.0254 150.087 92.4662 147.744C90.0028 147.392 89.3019 146.579 87.1252 145.944C85.2297 145.437 83.3144 145.141 81.4578 144.474C74.5846 142.008 67.8149 138.597 61.7197 134.573C60.736 133.923 59.7827 133.137 58.8227 132.454C54.4395 129.337 50.28 125.915 46.1152 122.516C40.6511 117.84 34.793 111.014 30.8714 105.072C29.2235 102.575 27.4174 99.241 25.7088 96.5595C21.3683 89.7482 19.1163 80.5092 18.2965 72.5738C18.0625 70.3084 18.5762 65.4493 18.8135 63.0188C19.8237 59.6661 22.0504 55.1706 23.7659 52.0162C24.1185 51.3679 28.5771 47.2607 29.635 46.5369C33.0654 44.5573 38.976 41.5611 42.9491 42.3996C46.8483 40.4409 49.3298 41.6093 53.6039 41.7283C55.1812 41.7721 59.8278 43.031 61.4223 43.4334C68.7216 45.3043 75.9476 48.0787 82.3303 52.127C85.0639 53.8608 87.6824 55.7582 90.4961 57.4207C92.7635 58.7607 95.0262 61.2489 96.9363 63.063C97.9287 64.0055 98.7995 64.664 99.6802 65.7562C100.217 65.2745 101.227 64.1676 101.823 63.5692C104.642 60.7405 107.359 58.7177 110.526 56.3322C112.913 54.5343 115.744 52.145 118.22 50.5147C121.215 48.5423 124.991 46.8908 128.158 45.1607C130.141 44.0773 132.035 42.7977 134.081 41.8348C134.888 41.455 136.004 41.3283 136.844 40.9675C140.308 39.4788 141.895 37.9664 145.731 38.0693C151.601 34.0498 157.369 34.6755 163.777 33.5377Z" fill="#FEE69A"/>
</svg>
