<svg width="167" height="121" viewBox="0 0 167 121" fill="none" xmlns="http://www.w3.org/2000/svg">
<path d="M133.303 81.1535C133.992 81.3325 134.782 81.4203 134.939 82.2274C134.867 82.9272 133.364 85.6277 133.097 86.6461C132.801 87.1966 131.835 89.5623 131.408 89.9013C129.626 91.3178 128.686 91.9326 127.398 93.8383C126.598 95.0222 123.814 96.4919 122.571 97.155C121.655 97.6442 120.835 98.3664 119.875 98.7946C118.512 99.4273 117.25 99.85 115.86 100.391C114.68 100.85 113.322 101.669 112.184 102.093C110.825 102.598 109.186 103.05 107.782 103.47C105.044 104.291 102.39 105.262 99.5207 105.47C94.9595 105.8 90.3784 105.43 85.8319 105.074C84.725 104.987 83.3718 105.214 82.2489 105.019C81.4326 104.876 80.5215 104.18 79.6831 104.077C78.7174 103.957 77.2467 104.197 76.3102 103.936C74.2981 103.375 72.2086 102.267 70.2691 101.6C68.7469 101.078 67.5112 100.645 66.0251 99.9933C65.2194 99.6842 64.1365 99.6147 63.3535 99.2866C59.9102 97.8439 56.3675 96.639 53.0547 94.9035C52.295 94.5056 51.6096 93.627 50.8734 93.2691C48.7455 92.2344 46.7172 91.0093 44.7461 89.704C43.3043 88.7581 42.1187 87.2515 40.8096 86.2733C39.553 85.3345 38.3196 85.0573 37.0644 83.8321C35.9623 82.7563 35.2087 81.806 34.1964 80.6644C33.7941 80.2108 32.5869 79.203 32.0548 78.7693C30.1605 77.2257 28.4718 75.4002 26.9245 73.5143C26.6202 73.1435 26.592 72.2966 26.0615 71.5853C24.4721 69.4539 22.7767 67.427 21.3721 65.1691C20.533 63.8202 20.2902 62.7585 19.7128 61.326C19.429 60.622 18.8741 59.7745 18.586 59.0726C17.6737 56.8504 16.6261 54.4505 16.0155 52.1358C15.7674 51.1957 15.6241 49.8522 15.4531 48.8407C15.2904 47.8777 14.9145 46.2066 14.8759 45.285C14.6145 39.06 15.8398 31.9662 19.8999 27.0333C21.5331 25.417 23.431 23.2496 25.3743 22.0436C27.8244 20.523 30.3403 18.8944 32.8477 17.4922C33.4905 17.1328 34.9769 16.9519 35.7552 16.6741C37.0679 16.2056 38.3824 15.7413 39.705 15.307C42.8565 14.4337 46.1313 13.9111 49.3863 13.6273C49.8653 13.6315 51.9763 13.383 52.3028 13.5459C54.4668 14.6261 55.71 14.1404 57.8888 14.3172C64.703 14.8704 71.4322 16.1961 77.947 18.2688C80.0566 18.919 81.9865 20.0881 84.2996 20.3785C84.5991 20.4161 89.2289 22.5221 89.3758 22.6483C89.3896 22.9105 89.3839 23.1013 89.3722 23.3637L89.5674 23.5369C89.7685 23.5067 91.1364 23.1898 91.1598 23.1974C92.9393 23.7814 96.2082 25.4148 97.5836 26.6061C98.587 27.8011 98.6257 26.9729 99.6709 27.5318C100.416 27.9303 100.441 29.4156 101.918 29.3606C102.02 29.3569 103.299 30.6456 103.557 30.7553C104.279 31.1248 105.693 31.4543 106.341 31.9237C106.716 32.195 107.057 33.4208 107.468 33.8541C107.291 34.0233 107.268 34.0215 107.031 34.1016L107.064 34.2621C107.705 34.6836 108.155 33.8067 108.768 34.3082C109.408 34.8316 109.237 36.0328 109.7 36.6972C110.658 37.8312 111.669 36.7314 110.928 38.857L110.842 38.8293C110.429 38.6941 109.815 38.3196 109.315 38.1048L109.287 37.8228C109.412 37.7312 109.535 37.6376 109.657 37.5419L109.491 37.447C109.151 37.5705 108.723 37.8988 108.516 37.7119C108.096 37.3302 107.123 36.0414 106.351 36.5259C105.265 37.2078 105.289 36.585 104.766 36.6583C105.024 37.4925 106.709 36.5774 107.206 37.6337C107.163 38.2326 107.044 38.5791 107.305 39.0557C107.959 39.3521 108.095 38.5674 108.476 38.6752C108.886 38.7907 109.636 39.1322 110.056 39.3122C110.292 39.7833 110.411 40.4887 110.605 40.6946C112.189 40.8767 111.327 41.5629 111.843 41.8808C111.888 41.3079 111.755 40.5728 111.948 40.2049C112.724 39.577 113.097 40.2489 113.569 39.8225C113.081 38.7754 111.676 39.8289 111.147 39.5564C111.204 38.9155 111.149 38.4078 111.616 38.0112C112.106 37.906 112.815 38.2332 113.417 38.3001C113.842 38.6057 114.363 38.961 114.555 39.4679L114.43 39.5854L114.115 39.8442C114.354 40.4499 116.247 40.9157 116.839 41.186C117.662 41.5624 118.69 42.7044 119.409 43.0164C120.649 43.5548 120.22 42.759 121.413 43.9888C120.949 44.5828 119.682 43.9055 119.871 45.4521C119.893 45.6286 119.919 45.8046 119.949 45.9801C120.105 46.8919 120.556 47.1513 120.682 47.8261L120.982 48.0157C121.364 47.9286 121.695 47.4673 122.192 47.1205C122.744 47.0427 122.601 47.0757 123.174 47.2918C124.011 47.5131 124.331 47.1369 125.115 47.353C126.661 47.7792 126.435 49.3349 126.849 50.0899C127.166 50.6669 129.902 51.9477 130.291 52.549C130.893 53.4619 131.158 54.7439 131.678 55.6732C132.706 57.5148 133.874 58.9936 134.063 61.1829C134.176 62.4688 134.697 63.4593 135.334 64.5888C135.212 66.8158 135.677 68.7984 136.054 71.0305C136.237 72.1167 136.09 74.5227 136.118 75.7171C136.12 75.8326 135.621 76.5407 135.515 76.6898C135.8 77.026 136.073 77.4048 136.338 77.7591C136.082 80.4354 135.7 80.3754 133.303 81.1535Z" fill="#FECA9D"/>
<path d="M20.519 59.4144C21.231 59.354 22.1672 59.3726 22.7469 59.8367L22.7738 60.1264C21.7654 60.2738 20.7055 60.6588 20.519 59.4144Z" fill="#FED1AC"/>
<path d="M97.5835 26.6062C98.6408 27.041 99.6554 27.2014 100.507 27.8193C100.985 28.1664 101.352 28.6532 101.905 29.0224L103.588 29.0934C105.008 31.1621 105.691 30.5939 107.617 31.9807C108.083 32.3164 108.565 33.212 109.063 33.6124C109.462 33.9326 110.468 34.1662 110.709 34.5538C110.864 34.8035 110.92 35.7132 110.946 36.045C112.833 36.1253 114.783 37.3402 116.167 38.5213C116.657 38.9398 117.259 39.2093 117.787 39.5785C117.977 40.6882 117.892 41.0495 118.716 41.7808C118.067 41.6155 115.098 39.9896 114.43 39.5855L114.554 39.468C114.362 38.9611 113.842 38.6058 113.417 38.3002C112.815 38.2333 112.106 37.9061 111.616 38.0113C111.149 38.4078 111.204 38.9156 111.147 39.5565C111.061 39.4106 110.976 39.0374 110.928 38.8571C111.668 36.7314 110.658 37.8313 109.699 36.6973C109.237 36.0329 109.408 34.8317 108.768 34.3083C108.155 33.8068 107.705 34.6837 107.064 34.2622L107.031 34.1017C107.268 34.0216 107.291 34.0234 107.468 33.8541C107.057 33.4208 106.716 32.1951 106.341 31.9238C105.692 31.4544 104.279 31.1249 103.557 30.7554C103.299 30.6456 102.019 29.3569 101.918 29.3607C100.441 29.4157 100.416 27.9303 99.6707 27.5319C98.6256 26.973 98.5868 27.8012 97.5835 26.6062Z" fill="#FED1AC" fill-opacity="0.670588"/>
<path d="M111.147 39.5565C111.676 39.8289 113.081 38.7754 113.569 39.8226C113.097 40.2489 112.723 39.577 111.948 40.2049C111.755 40.5728 111.888 41.3079 111.843 41.8809C111.327 41.5629 112.188 40.8767 110.605 40.6946C110.411 40.4888 110.291 39.7833 110.056 39.3122C109.636 39.1323 108.886 38.7908 108.476 38.6752C108.094 38.5674 107.958 39.3522 107.305 39.0557C107.043 38.5791 107.162 38.2327 107.206 37.6337C106.709 36.5774 105.024 37.4925 104.766 36.6584C105.289 36.585 105.265 37.2078 106.351 36.5259C107.123 36.0414 108.095 37.3303 108.516 37.7119C108.722 37.8989 109.151 37.5705 109.491 37.447L109.657 37.5419C109.535 37.6376 109.411 37.7312 109.287 37.8229L109.315 38.1048C109.815 38.3196 110.429 38.6941 110.842 38.8293L110.928 38.857C110.976 39.0374 111.061 39.4105 111.147 39.5565Z" fill="#FED1AC" fill-opacity="0.917647"/>
<path d="M114.43 39.5854C115.098 39.9896 118.067 41.6155 118.716 41.7808C120.078 42.2038 120.964 41.92 121.722 43.5187C121.946 43.993 122.263 44.5215 122.568 44.9494C121.607 44.8994 120.345 45.9703 119.948 45.9801C119.919 45.8047 119.893 45.6287 119.87 45.4522C119.681 43.9055 120.949 44.5828 121.412 43.9888C120.22 42.7591 120.649 43.5548 119.408 43.0165C118.69 42.7045 117.662 41.5625 116.838 41.1861C116.247 40.9157 114.354 40.4499 114.115 39.8442L114.43 39.5854Z" fill="#FED1AC" fill-opacity="0.819608"/>
<path d="M119.948 45.9802C120.345 45.9704 121.607 44.8995 122.568 44.9495C122.776 45.3415 122.954 45.6567 123.1 46.0777L122.924 46.3782C121.591 46.658 121.054 46.1154 120.682 47.8263C120.556 47.1514 120.104 46.8921 119.948 45.9802Z" fill="#FED1AC" fill-opacity="0.929412"/>
<path d="M123.1 46.0776C123.161 46.5221 123.166 46.8431 123.174 47.2919C122.601 47.0758 122.744 47.0428 122.192 47.1206C121.695 47.4674 121.364 47.9287 120.982 48.0158L120.682 47.8262C121.054 46.1153 121.591 46.6579 122.924 46.3781L123.1 46.0776Z" fill="#FED1AC" fill-opacity="0.792157"/>
</svg>
