<svg width="275" height="182" viewBox="0 0 275 182" fill="none" xmlns="http://www.w3.org/2000/svg">
<path d="M49.7344 42.4055C50.7945 41.9598 51.9654 42.0218 53.0535 41.7161C54.4458 41.3247 55.9386 40.5612 57.3671 40.3463C62.3555 39.5961 67.2941 39.1567 72.3396 39.541C73.9161 39.6258 75.6207 40.1893 77.1631 40.3111C81.1549 40.6115 85.0766 41.7308 88.8465 43.0306C90.5376 43.6136 91.9943 45.0273 93.6931 45.5368C94.7012 45.8393 95.629 46.144 96.3627 46.9559C97.1835 47.7654 98.0322 48.8205 98.7877 49.5273C99.5896 50.3968 101.414 50.8511 102.532 52.3913L102.603 52.7388C102.009 53.2663 101.464 53.3431 101.355 53.8472C101.786 54.0638 104.147 54.2828 104.785 54.3567C104.833 54.6994 104.23 55.5673 104.006 55.953C104.779 56.1039 104.994 56.005 105.454 56.4668C105.166 57.4916 103.686 57.8707 103.159 58.8161C103.411 59.1337 103.539 59.2661 103.836 59.5427C103.51 59.8158 103.549 59.7277 103.03 59.7751C102.224 59.2894 101.66 58.8491 100.921 58.2815C99.9956 58.681 98.5487 59.4669 97.6888 59.583C97.1136 59.3527 97.2606 59.3715 96.8666 58.751L96.5952 58.9179C96.1736 61.4418 97.131 65.0395 96.1176 67.5297C95.6484 67.9838 95.3192 68.1638 95.2945 68.7745C95.7762 68.8782 96.1167 68.7536 96.6012 68.6432C96.6025 68.8597 96.5207 68.988 96.4306 69.1853L96.7957 69.9236L96.6464 70.2291C95.2995 70.6626 93.2852 69.7695 93.418 72.82C93.9128 72.1099 94.8555 71.2778 95.7102 71.1075C96.0604 71.8886 94.7979 73.7808 94.572 74.7446C95.1905 74.7894 95.3066 74.6831 95.6759 75.0304C95.6743 76.3817 94.5217 77.7302 94.1609 78.9776C93.852 80.0452 93.8751 81.7056 93.5959 82.7665C93.2216 84.1884 92.6088 85.0236 92.3331 86.5441C91.7699 87.1006 89.3346 89.6397 88.9027 90.2699C88.4494 91.5786 87.8316 92.2159 86.911 93.2473C85.4734 95.3442 85.7025 95.7381 83.5125 96.2471C84.0016 98.7185 82.182 99.7705 80.1985 100.927C79.0322 101.947 78.3461 102.156 77.5046 102.84C76.7362 103.902 74.3615 104.719 73.112 105.158C71.1907 105.954 69.59 105.974 67.5253 105.858C66.9814 105.828 66.4927 105.587 66.0233 105.671C65.2636 106.593 60.5761 105.809 59.3189 105.606L59.2009 105.344L59.5379 104.617C58.7902 103.982 57.056 104.372 56.1764 104.245C55.985 104.217 55.027 103.605 54.8331 103.48L54.3219 102.232C49.7579 102.504 46.962 98.114 44.4826 97.1443C42.4543 93.6213 38.9376 90.4366 37.3357 86.4726C36.6422 84.7566 36.2398 84.9171 35.919 82.8778C34.6176 82.1709 34.7692 81.0009 34.5877 79.6361C34.3348 78.6797 34.0039 78.3331 33.8391 77.2619L34.2641 76.6955C33.3077 75.1333 32.8099 74.0753 34.3903 72.6614L34.453 72.6061L34.2604 72.4376L33.3985 72.5656L33.3201 72.789L32.9547 72.9191C31.4582 72.4151 31.9541 71.7599 31.1178 70.9466L30.8493 71.2097L30.8701 71.3684C30.9938 72.3582 30.8201 73.4598 30.7108 74.4654L30.4417 74.7514C29.3618 74.7802 29.2891 73.8416 27.7915 73.8032L27.7212 73.9727C28.2129 74.3511 28.4515 74.5097 28.992 74.8147C28.2785 75.1708 25.5007 75.0486 24.8221 74.6014C23.4559 73.4271 22.8964 73.983 21.9901 73.3364C21.7578 72.872 21.8552 72.6486 21.9652 72.1513C21.9107 71.5534 22.0278 70.4492 22.0756 69.8116C22.149 69.3477 22.318 69.2503 22.6662 68.9231L22.7904 68.8074C22.9165 68.2356 22.9822 67.9244 22.93 67.3328C23.4621 67.1319 23.9713 67.3424 24.5546 67.4854C24.1729 66.1046 23.4571 65.9502 24.2285 64.6587C25.1019 62.8679 25.3322 63.3508 26.3075 60.622C27.1041 59.4833 28.0226 59.1216 28.5563 58.3829C30.5498 55.6234 30.1696 54.3505 33.1835 52.2867C33.4334 52 34.9215 51.0079 35.2996 50.7487C35.9764 50.1446 36.6701 49.5597 37.3799 48.9945C39.046 47.9746 42.2197 45.5404 43.8577 44.871C46.2007 44.1404 47.0028 43.0807 49.7344 42.4055ZM87.2611 82.3893L86.7885 83.6589C88.162 84.1192 87.6679 83.1424 89.0374 83.7181C90.3491 82.6236 90.2417 83.6973 91.4683 83.4538L91.6183 82.7972C91.2452 82.7119 91.0456 82.371 90.8508 82.06L90.7987 81.9752C90.1735 82.1311 89.1742 82.4498 88.5813 82.363L88.4315 81.8599C88.234 81.9893 88.5907 82.1786 88.1691 82.5578L87.2611 82.3893ZM38.0164 76.9853C38.1904 76.4514 38.3075 75.363 37.8492 75.0029C37.8476 75.2951 37.8453 75.3114 37.7772 75.5956C37.2587 75.6399 35.3349 75.3328 34.656 75.2634L34.5088 75.4275L34.9205 75.7606C34.8631 76.249 34.806 76.4068 34.6462 76.8742C36.7988 76.1429 36.1406 76.5616 38.0164 76.9853ZM103.766 56.0772C103.441 55.8298 103.163 55.1604 102.96 54.7575C102.354 54.6043 102.486 54.6784 101.791 54.9765C102.046 55.5993 102.135 55.6517 102.672 56.0317C102.84 56.5171 102.708 56.8711 102.596 57.3677C102.756 57.2518 102.737 57.0016 102.794 57.0263C103.151 57.1809 103.536 56.6136 103.766 56.0772ZM53.028 96.9669C52.1004 96.2649 51.1297 96.3312 50.08 96.6495L50.0769 97.0327C50.5204 97.345 52.581 97.2711 53.028 96.9669ZM42.6834 93.216C42.6498 92.5897 42.6963 92.0723 42.2916 91.6045L41.933 91.4472C41.9991 92.2332 41.9136 92.8346 42.6834 93.216ZM24.2285 64.6587C23.4571 65.9502 24.1729 66.1046 24.5546 67.4854C23.9713 67.3424 23.4621 67.1319 22.93 67.3328C22.9822 67.9244 22.9165 68.2356 22.7904 68.8074L22.6662 68.9231C22.318 69.2503 22.149 69.3477 22.0756 69.8116C22.0278 70.4492 21.9107 71.5534 21.9652 72.1513C21.8552 72.6486 21.7578 72.872 21.9901 73.3364C22.8964 73.983 23.4559 73.4271 24.8221 74.6014C25.5007 75.0486 28.2785 75.1708 28.992 74.8147C28.4515 74.5097 28.2129 74.3511 27.7212 73.9727L27.7915 73.8032C29.2891 73.8416 29.3618 74.7802 30.4417 74.7514L30.7108 74.4654C30.8201 73.4598 30.9938 72.3582 30.8701 71.3684L30.8493 71.2097L31.1178 70.9466C31.9541 71.7599 31.4582 72.4151 32.9547 72.9191L33.3201 72.789L33.3985 72.5656L34.2604 72.4376L34.453 72.6061L34.3903 72.6614C32.8099 74.0753 33.3077 75.1333 34.2641 76.6955L34.4425 76.5607C34.3681 75.6115 33.6523 75.1138 33.6781 74.4105C33.7168 73.3528 34.9381 73.6002 35.0029 72.4341C34.5245 71.9768 34.343 72.2823 33.786 72.1183C33.098 71.9156 34.0048 67.08 33.1692 66.1434C33.0221 65.9782 31.9015 66.0959 31.6036 66.0835C31.0921 65.6747 31.3969 65.7326 31.1916 64.7748C30.4975 64.8571 30.1431 66.2459 29.1569 66.5122L28.8409 66.2957C28.5865 65.5933 28.5412 65.4653 28.4975 64.7238L27.8024 64.446L27.7085 64.0422L27.5777 63.6362C27.2366 63.5737 27.2038 63.592 26.857 63.6585C25.7663 64.5272 25.6408 64.6781 24.2285 64.6587ZM60.7525 98.5918C59.9517 99.0472 58.6272 99.6653 58.3092 100.515C58.428 101.014 58.3185 100.858 58.6796 101.166L58.792 101.05C59.6655 100.162 60.864 99.8866 61.0291 98.9112L60.7525 98.5918ZM85.7345 46.7888C85.3544 47.4038 85.4139 47.1318 85.4724 47.8102C85.7648 48.3223 86.004 48.5414 86.5438 48.8109C86.8804 48.3447 87.0699 48.1691 87.0348 47.5833C86.6785 47.081 86.3856 46.9253 85.7345 46.7888ZM93.6293 60.2915C95.2998 60.8405 94.2274 61.5537 94.9799 62.551L95.4955 62.4991C96.7967 59.8372 94.7064 59.3162 92.6756 58.8769C92.3551 58.5747 92.042 58.2649 91.7363 57.9477C91.2598 57.6813 91.125 57.5693 90.563 57.6128L90.2812 57.8656C90.5007 58.9947 91.5102 58.8683 92.4664 58.8717L92.6756 58.8769C93.0924 59.2115 93.3481 59.3521 93.828 59.5663L93.9372 59.8852L93.6293 60.2915ZM46.3323 50.1951L45.972 50.6716C46.143 51.4181 46.2772 51.8594 46.2475 52.6228C46.5999 52.3572 46.705 52.225 47.0016 51.8926C47.1578 51.058 47.2104 50.8543 47.0848 50.025L46.8279 49.868L46.3323 50.1951ZM67.62 99.8215C67.1702 98.9888 65.7169 99.3731 64.7894 99.4394C65.2514 100.209 66.7488 99.8948 67.62 99.8215ZM86.8175 85.6209C86.9396 86.5012 86.7839 86.4341 87.303 86.9312L87.6505 86.864C87.942 86.4163 87.9692 86.3583 87.9379 85.8273L87.7732 85.6241C87.2232 85.4092 87.4671 85.4313 86.8175 85.6209ZM34.4809 55.8685C33.7819 56.0692 33.0798 56.2592 32.375 56.4382L32.2976 56.6451L32.3963 56.7933C33.2467 56.7483 33.9703 56.7192 34.6311 56.1039C34.5899 56.0299 34.5367 55.9014 34.4809 55.8685ZM28.9672 58.549C28.291 59.3297 28.1363 59.8121 28.8915 60.728C29.1318 59.9746 29.1716 59.7184 29.2598 58.9275C29.1373 58.7333 29.1354 58.6855 28.9672 58.549ZM99.236 50.2697C98.8467 50.7848 98.5343 51.1767 98.107 51.6598L98.2161 51.8466L98.356 51.8349C99.0568 51.5875 99.3349 51.6465 99.6017 51.1321C99.4892 50.8493 99.3781 50.5351 99.236 50.2697Z" fill="#17267E"/>
<path d="M87.2612 82.3896L88.1692 82.5581C88.5908 82.1788 88.2341 81.9895 88.4316 81.8601L88.5814 82.3633C89.1743 82.45 90.1735 82.1313 90.7988 81.9755L90.8509 82.0602C91.0457 82.3713 91.2453 82.7122 91.6183 82.7975L91.4683 83.454C90.2418 83.6975 90.3491 82.6238 89.0374 83.7183C87.668 83.1426 88.1621 84.1195 86.7886 83.6591L87.2612 82.3896Z" fill="#4F5598" fill-opacity="0.984314"/>
<path d="M34.6464 76.8743C34.8062 76.4069 34.8633 76.249 34.9207 75.7606L34.509 75.4275L34.6562 75.2635C35.3351 75.3328 37.2589 75.6399 37.7774 75.5957C37.8455 75.3115 37.8478 75.2951 37.8494 75.0029C38.3077 75.363 38.1906 76.4515 38.0166 76.9854C36.1408 76.5617 36.799 76.1429 34.6464 76.8743Z" fill="#2F3A8A" fill-opacity="0.960784"/>
<path d="M101.792 54.9765C102.486 54.6784 102.355 54.6043 102.96 54.7575C103.163 55.1604 103.441 55.8298 103.766 56.0772C103.536 56.6136 103.152 57.1809 102.794 57.0263C102.737 57.0016 102.756 57.2518 102.596 57.3677C102.708 56.8711 102.84 56.5171 102.672 56.0317C102.135 55.6517 102.046 55.5993 101.792 54.9765Z" fill="#7372AB" fill-opacity="0.054902"/>
<path d="M50.0799 96.6498C51.1296 96.3314 52.1004 96.2652 53.028 96.9672C52.581 97.2713 50.5204 97.3452 50.0769 97.033L50.0799 96.6498Z" fill="#3B438E" fill-opacity="0.980392"/>
<path d="M34.6462 76.8743C36.7987 76.1429 36.1406 76.5616 38.0164 76.9853C37.8484 77.5065 38.0727 77.8262 38.3527 78.3676L38.4017 78.4609L38.1047 78.8162L38.1813 79.1212L38.3219 79.1032L38.5384 78.7159C38.898 78.878 39.3309 79.8559 39.5467 80.2651C39.5463 80.4023 39.4233 81.6521 39.3802 81.5044C39.6866 82.5527 40.4233 83.5613 40.9974 84.4845C41.0244 84.528 40.9273 84.8991 41.0242 85.1291C41.3935 85.3067 42.7671 87.1359 43.0498 87.5373L43.0011 87.7808L43.4305 87.6151C44.0332 87.996 43.8964 87.7902 44.0441 88.3582C43.7974 89.1676 43.2692 89.6838 43.374 90.1027L43.65 90.1779L43.8219 89.6727L44.0165 89.5771C45.1812 90.5975 46.3374 91.6723 47.619 92.5711C48.9794 93.5251 49.2204 95.1045 49.5725 96.6268C49.7415 96.6344 49.9107 96.6421 50.0799 96.6495L50.0769 97.0327C50.5204 97.345 52.581 97.2711 53.028 96.967C54.4383 97.9852 53.9131 100.463 54.3219 102.232C49.7579 102.504 46.962 98.114 44.4826 97.1443C42.4543 93.6213 38.9376 90.4366 37.3357 86.4726C36.6422 84.7566 36.2398 84.9171 35.919 82.8778C34.6176 82.1709 34.7692 81.0009 34.5877 79.6361C34.3348 78.6797 34.0039 78.3331 33.8391 77.2619L34.2641 76.6955L34.4425 76.5607L34.6462 76.8743ZM42.6834 93.216C42.6498 92.5897 42.6963 92.0723 42.2916 91.6045L41.933 91.4472C41.9991 92.2332 41.9136 92.8346 42.6834 93.216Z" fill="#2F3A8A"/>
<path d="M34.5876 79.6362C35.7102 80.0029 37.4897 80.7718 37.2453 82.2054C36.6881 82.5953 36.4873 82.3575 35.9189 82.8779C34.6175 82.1711 34.7691 81.0011 34.5876 79.6362Z" fill="#4F5598"/>
<path d="M41.9079 87.7518C42.4281 87.6266 42.4934 87.6181 43.0011 87.7807L43.1313 88.0075L42.927 88.1792C42.7925 88.8431 42.7728 88.8103 42.2428 89.1559C41.6952 89.1861 41.8786 89.2554 41.497 88.9639C41.2542 88.3475 41.2785 88.6099 41.3902 87.9702L41.9079 87.7518Z" fill="#3B4490"/>
<path d="M41.9331 91.4473L42.2918 91.6046C42.6965 92.0723 42.6499 92.5897 42.6835 93.2161C41.9137 92.8347 41.9992 92.2332 41.9331 91.4473Z" fill="#4F5598" fill-opacity="0.0392157"/>
<path d="M26.857 63.6586C27.2038 63.5921 27.2366 63.5738 27.5777 63.6364L27.7085 64.0423L27.8024 64.4461L28.4975 64.7239C28.5412 65.4654 28.5865 65.5934 28.8409 66.2958L29.1569 66.5123C30.1431 66.246 30.4975 64.8572 31.1916 64.7749C31.3969 65.7327 31.0921 65.6748 31.6036 66.0836C31.9015 66.096 33.0221 65.9784 33.1692 66.1435C34.0048 67.0801 33.098 71.9158 33.786 72.1184C34.343 72.2824 34.5245 71.9769 35.0029 72.4342C34.9381 73.6003 33.7168 73.3529 33.6781 74.4106C33.6523 75.1139 34.3681 75.6116 34.4425 76.5608L34.2641 76.6956C33.3077 75.1335 32.8099 74.0754 34.3903 72.6615L34.453 72.6063L34.2604 72.4378L33.3985 72.5657L33.3201 72.7891L32.9547 72.9192C31.4582 72.4152 31.9541 71.7601 31.1178 70.9468L30.8493 71.2098L30.8701 71.3685C30.9938 72.3583 30.8201 73.4599 30.7108 74.4655L30.4417 74.7515C29.3618 74.7803 29.2891 73.8417 27.7915 73.8033L27.7212 73.9729C28.2129 74.3513 28.4515 74.5098 28.992 74.8148C28.2785 75.171 25.5007 75.0487 24.8221 74.6015C23.4559 73.4272 22.8964 73.9832 21.9901 73.3366C21.7578 72.8721 21.8552 72.6487 21.9652 72.1514C21.9107 71.5535 22.0278 70.4493 22.0756 69.8117C22.149 69.3479 22.318 69.2505 22.6662 68.9232L22.7904 68.8075C22.9165 68.2358 22.9822 67.9246 22.93 67.3329C23.4621 67.132 23.9713 67.3425 24.5546 67.4856C24.1729 66.1047 23.4571 65.9503 24.2285 64.6589C25.6408 64.6782 25.7663 64.5273 26.857 63.6586ZM25.9442 70.6252L26.2051 70.5781C26.404 69.6438 26.6921 69.027 27.0587 68.1585L26.809 67.7685C26.279 67.8741 26.3457 67.9717 25.9379 68.4695C26.1804 69.6669 25.6518 69.8123 25.9442 70.6252ZM30.9326 66.3397C30.3182 66.4238 29.533 66.8016 29.2573 67.3802C29.6999 67.4861 29.5465 67.4619 30.026 67.3302C30.4344 67.0457 30.636 66.7316 30.9326 66.3397Z" fill="#2F3A8A"/>
<path d="M25.9381 68.4695C26.3458 67.9717 26.2792 67.8741 26.8092 67.7686L27.0589 68.1585C26.6922 69.0271 26.4041 69.6438 26.2053 70.5782L25.9443 70.6253C25.652 69.8123 26.1805 69.6669 25.9381 68.4695Z" fill="#7372AB" fill-opacity="0.0470588"/>
<path d="M30.026 67.3301C29.5465 67.4618 29.6999 67.486 29.2573 67.3801C29.533 66.8015 30.3182 66.4237 30.9326 66.3396C30.636 66.7315 30.4345 67.0456 30.026 67.3301Z" fill="#7372AB" fill-opacity="0.411765"/>
<path d="M22.0756 69.8118C22.149 69.3479 22.318 69.2505 22.6662 68.9233L22.7904 68.8076C22.9165 68.2358 22.9822 67.9246 22.93 67.3329C23.4621 67.1321 23.9713 67.3425 24.5546 67.4856L24.8191 67.733L24.7118 67.9994C25.0235 68.4448 25.3749 68.4555 25.9379 68.4695C26.1804 69.6669 25.6518 69.8123 25.9442 70.6253C25.6932 71.3152 25.0526 72.0006 24.5825 72.5746C24.7731 72.736 24.7763 72.7403 25.0009 72.848C24.9478 73.3519 24.8417 74.1188 24.8221 74.6015C23.4559 73.4272 22.8964 73.9832 21.9901 73.3366C21.7578 72.8722 21.8552 72.6488 21.9652 72.1515C21.9107 71.5536 22.0278 70.4493 22.0756 69.8118Z" fill="#4F5598"/>
<path d="M22.0757 69.8118C22.8562 69.8336 23.9579 71.5326 21.9654 72.1515C21.9108 71.5536 22.0279 70.4493 22.0757 69.8118Z" fill="#4F5598"/>
<path d="M31.1179 70.9467L31.3456 70.7782C31.4949 70.345 31.2569 69.3376 31.178 68.8195L31.5443 68.3535L32.8723 69.59C33.5166 70.5013 32.7918 72.2402 33.3986 72.5656L33.3202 72.7891L32.9548 72.9192C31.4583 72.4151 31.9542 71.76 31.1179 70.9467Z" fill="#3B4490"/>
<path d="M30.9327 66.3396C32.3159 66.997 33.4863 67.6845 32.8724 69.59L31.5443 68.3535C31.245 67.8855 30.6125 67.331 30.0261 67.3301C30.4346 67.0456 30.6361 66.7315 30.9327 66.3396Z" fill="#4F5598"/>
<path d="M27.059 68.1584C27.4863 68.6653 28.0248 69.1742 28.0696 69.8172C27.696 70.5751 26.9911 70.5079 26.2053 70.5781C26.4042 69.6438 26.6923 69.027 27.059 68.1584Z" fill="#4F5598"/>
<path d="M93.4182 72.8201C93.913 72.1101 94.8557 71.2779 95.7105 71.1077C96.0606 71.8888 94.7981 73.781 94.5722 74.7448C95.1908 74.7896 95.3068 74.6833 95.6761 75.0306C95.6745 76.3819 94.5219 77.7304 94.1611 78.9777C93.8522 80.0454 93.8753 81.7058 93.5961 82.7667C93.2218 84.1886 92.609 85.0237 92.3333 86.5443C91.7701 87.1007 89.3348 89.6399 88.9029 90.2701C88.0867 90.1505 87.8754 89.9374 87.2222 89.4296L85.9535 89.3469C85.5378 88.4387 85.1312 88.397 84.2949 87.8831C84.4952 87.2138 85.268 87.083 85.3827 86.7799C85.912 85.381 85.3304 85.031 86.6384 83.8699L86.7887 83.6591C88.1622 84.1194 87.6681 83.1426 89.0376 83.7183C90.3493 82.6238 90.2419 83.6975 91.4685 83.454L91.6185 82.7974C91.2454 82.7121 91.0458 82.3712 90.851 82.0602L90.7989 81.9754C90.1737 82.1313 89.1744 82.45 88.5815 82.3632L88.4317 81.8601C88.2342 81.9895 88.5909 82.1787 88.1694 82.558L87.2613 82.3895C88.8104 79.8785 88.5933 79.5971 88.8878 76.7952C89.5457 77.1595 91.367 76.6142 91.9302 76.0275C92.2412 75.2339 92.2036 75.1844 91.9272 74.5379C92.4622 74.1204 93.3157 73.5115 93.4182 72.8201ZM87.9381 85.8274L87.7734 85.6243C87.2235 85.4094 87.4673 85.4315 86.8177 85.6211C86.9398 86.5014 86.7841 86.4342 87.3033 86.9314L87.6507 86.8642C87.9422 86.4165 87.9694 86.3585 87.9381 85.8274Z" fill="#2F3A8A"/>
<path d="M86.8174 85.6209C87.467 85.4312 87.2232 85.4092 87.7731 85.6241L87.9378 85.8272C87.9691 86.3583 87.9419 86.4162 87.6504 86.864L87.303 86.9311C86.7838 86.434 86.9395 86.5012 86.8174 85.6209Z" fill="#4F5598" fill-opacity="0.964706"/>
<path d="M93.4183 72.8201C93.9131 72.1101 94.8558 71.2779 95.7105 71.1077C96.0606 71.8888 94.7982 73.781 94.5723 74.7448C93.9586 75.8752 93.9984 76.9075 93.6666 78.0715C93.2524 78.5803 93.5699 78.9514 92.5699 79.057L92.3446 78.7387C92.3499 78.0533 92.4578 77.9092 92.7674 77.3051L91.9303 76.0275C92.2413 75.2339 92.2036 75.1844 91.9272 74.5379C92.4622 74.1204 93.3157 73.5115 93.4183 72.8201Z" fill="#3B438E"/>
<path d="M86.7885 83.6591C88.1621 84.1195 87.668 83.1426 89.0374 83.7183C88.3924 84.6073 87.9563 84.818 87.938 85.8275L87.7732 85.6243C87.2233 85.4095 87.4671 85.4315 86.8175 85.6211C86.8372 85.308 86.6695 84.3338 86.6382 83.8699L86.7885 83.6591Z" fill="#3B4490"/>
<path d="M46.8571 44.6608C47.8567 44.3144 48.4217 43.7767 49.5171 43.4751C47.4689 46.4566 45.3444 44.3748 42.9953 48.6994C43.4496 48.6904 46.1382 48.5898 46.3796 48.688C43.8561 48.8878 42.2838 49.1534 39.7698 48.7462C39.2938 49.0664 38.7236 49.4726 38.2388 49.7564C37.9002 50.5143 37.5758 51.2783 37.2657 52.0483C34.7179 53.3772 36.8882 53.4096 36.1835 54.8983L35.8019 55.1419C35.2196 54.8689 34.4729 54.6094 33.9403 54.2918C33.5706 54.0714 33.1712 53.3781 32.7185 53.1559C31.2151 53.97 30.2375 56.1474 29.5095 57.6601L29.5444 57.9229L30.3735 58.1076C30.9012 59.0994 28.8962 59.8492 28.9831 61.4638C29.8766 62.7843 31.5968 60.7548 32.8195 62.3208C33.1611 62.7586 32.8214 62.8275 33.1963 63.1073C33.5484 62.4228 33.1806 60.5586 33.5823 60.0101C33.9106 59.8489 34.0179 59.7598 34.3718 59.7652C34.345 61.2517 34.1633 61.0189 35.2585 62.1544C34.7024 62.4811 34.3034 62.6406 34.0387 63.2232C33.6124 63.3808 33.4572 63.4332 33.0102 63.5097C33.2228 63.8879 33.6287 64.0759 34.0126 64.3153C31.9429 65.0654 31.7682 62.5343 31.5753 62.4274C31.4724 62.6528 31.3921 62.8394 31.3013 63.0698C30.8667 63.1368 30.7921 63.1025 30.3513 63.0202C29.6487 63.4917 30.079 63.7754 28.4975 64.7241L27.8024 64.4463L27.7086 64.0425L27.5777 63.6366C27.2367 63.574 27.2038 63.5923 26.857 63.6588C25.7663 64.5276 25.6408 64.6785 24.2285 64.6591C25.1019 62.8682 25.3322 63.3511 26.3075 60.6224C27.1041 59.4836 28.0226 59.1219 28.5563 58.3833C30.5498 55.6238 30.1696 54.3508 33.1835 52.287C33.4334 52.0003 34.9215 51.0082 35.2996 50.7491C35.9764 50.1449 36.6701 49.56 37.38 48.9948C39.0461 47.975 42.2197 45.5407 43.8577 44.8714C44.0557 45.3017 44.0797 45.3781 44.4675 45.6422C45.4207 45.8118 46.4101 45.6054 46.8571 44.6608ZM28.8916 60.7283C29.1319 59.9749 29.1717 59.7188 29.2598 58.9279C29.1374 58.7336 29.1354 58.6858 28.9673 58.5493C28.291 59.3301 28.1364 59.8124 28.8916 60.7283Z" fill="#3B438E"/>
<path d="M33.1836 52.2867C33.4335 52 34.9217 51.0079 35.2997 50.7488C35.8404 51.0536 36.2556 51.2594 36.7171 51.6796C35.8134 52.6317 34.8913 52.5002 34.6712 53.0679C35.1881 53.7743 35.7886 53.4647 35.8674 53.9635C34.5625 54.3554 35.6237 54.6373 34.5914 54.5715C33.1649 53.2808 33.6892 53.7621 33.1836 52.2867Z" fill="#7372AB"/>
<path d="M26.3075 60.6222L26.801 60.5762C26.9726 61.2189 26.8768 62.8862 26.857 63.6586C25.7663 64.5274 25.6408 64.6783 24.2285 64.6589C25.1019 62.8681 25.3322 63.351 26.3075 60.6222Z" fill="#4F5598"/>
<path d="M35.2998 50.7489C35.9766 50.1448 36.6703 49.5598 37.3802 48.9946C37.9863 49.5804 37.9024 49.3238 37.934 50.0436C37.6573 50.6261 36.7709 51.5357 36.7172 51.6797C36.2557 51.2595 35.8405 51.0537 35.2998 50.7489Z" fill="#3B4490"/>
<path d="M27.5779 63.6363C27.6753 63.2159 27.8265 62.4339 28.0062 62.0852C28.9166 61.8847 29.4199 62.2759 29.5845 63.2013C29.3879 64.4821 28.3983 64.0909 27.7087 64.0422L27.5779 63.6363Z" fill="#4F5598"/>
<path d="M28.9673 58.5491C29.1354 58.6856 29.1374 58.7334 29.2598 58.9276C29.1717 59.7186 29.1319 59.9747 28.8916 60.7281C28.1364 59.8122 28.291 59.3299 28.9673 58.5491Z" fill="#7372AB" fill-opacity="0.0117647"/>
<path d="M84.3857 92.3003C85.0178 91.7696 85.6855 91.9825 86.7443 91.9367L86.911 93.2475C85.4735 95.3444 85.7026 95.7382 83.5125 96.2473C84.0016 98.7187 82.182 99.7707 80.1985 100.927C79.8345 100.229 79.7675 100.155 79.1523 99.6614C79.3685 98.7599 79.9171 98.7371 80.7322 98.6325L80.8616 98.6166C81.2709 98.0244 80.9485 97.6713 81.2228 96.8992L81.5978 97.3071L81.8011 97.2424L81.8439 96.9321C81.7018 96.6056 81.5948 96.47 81.3324 96.2297C82.5176 94.5272 84.6845 94.9267 85.1292 93.5272C84.9911 92.9163 84.8013 92.767 84.3857 92.3003Z" fill="#2F3A8A"/>
<path d="M96.8667 58.7511C98.5838 57.7935 98.9718 57.7931 100.95 57.8815L101.019 57.7163L100.473 57.4096C100.304 57.0504 100.275 56.269 100.58 55.9921L100.842 57.1794L101.107 57.2086C101.502 56.819 101.541 56.7216 101.68 56.2099L101.715 56.0782L101.77 56.0577C101.812 55.6219 101.813 55.4143 101.791 54.9766C102.046 55.5993 102.135 55.6518 102.672 56.0318C102.84 56.5172 102.708 56.8712 102.596 57.3678C102.756 57.2519 102.737 57.0017 102.794 57.0264C103.151 57.181 103.536 56.6137 103.766 56.0773L104.006 55.953C104.779 56.1039 104.994 56.0051 105.454 56.4669C105.166 57.4917 103.686 57.8708 103.159 58.8162C103.411 59.1338 103.54 59.2662 103.836 59.5427C103.51 59.8159 103.549 59.7278 103.03 59.7752C102.224 59.2895 101.66 58.8492 100.921 58.2815C99.9957 58.6811 98.5488 59.467 97.6889 59.5831C97.1137 59.3527 97.2607 59.3716 96.8667 58.7511Z" fill="#4F5598"/>
<path d="M91.5901 74.2265C91.0729 74.0576 90.8796 74.0224 90.4594 73.6495C90.0332 72.4329 91.911 72.7964 92.4106 71.6639L91.6644 71.6868L91.5621 71.527C91.9099 71.0948 92.2351 70.8042 92.824 70.782C94.9346 70.7023 94.374 69.391 94.9813 68.0148C95.4386 67.6048 95.5151 67.5923 96.1176 67.5298C95.6484 67.9839 95.3192 68.1639 95.2945 68.7746C95.7761 68.8783 96.1167 68.7537 96.6012 68.6433C96.6024 68.8598 96.5207 68.9881 96.4306 69.1854L96.7956 69.9237L96.6463 70.2292C95.2995 70.6627 93.2852 69.7696 93.418 72.8201C93.3154 73.5114 92.4619 74.1204 91.927 74.5379L91.5901 74.2265Z" fill="#3B4490"/>
<path d="M84.1724 91.1243L84.0615 90.6375C84.3319 90.0952 85.2792 89.7445 85.9535 89.3469L87.2222 89.4296C87.8753 89.9374 88.0867 90.1505 88.9028 90.2701C88.4496 91.5787 87.8318 92.2161 86.9111 93.2475L86.7444 91.9367C85.6857 91.9825 85.0179 91.7696 84.3859 92.3003C84.3471 91.9004 84.2551 91.5178 84.1724 91.1243Z" fill="#2F3A8A"/>
<path d="M86.9747 90.1055C86.8041 89.9717 86.846 89.9815 86.7319 89.7744L87.2219 89.4294C87.8751 89.9372 88.0864 90.1503 88.9026 90.2699C88.4494 91.5786 87.8316 92.216 86.9109 93.2474L86.7442 91.9366C87.1107 91.057 87.1784 90.937 86.9747 90.1055Z" fill="#3B438E"/>
<path d="M84.1724 91.1243L84.0615 90.6375C84.3319 90.0952 85.2792 89.7445 85.9535 89.3469L87.2222 89.4296L86.7322 89.7746C86.8463 89.9816 86.8043 89.9718 86.9749 90.1057C85.9917 90.8708 85.4119 90.9583 84.1724 91.1243Z" fill="#3B4490"/>
<path d="M66.0232 105.671L66.1037 105.201C66.9339 104.193 71.9926 104.306 73.112 105.158C71.1906 105.955 69.59 105.974 67.5252 105.858C66.9814 105.828 66.4926 105.588 66.0232 105.671Z" fill="#2F3A8A"/>
<path d="M91.5903 74.2266L91.9271 74.538C92.2035 75.1844 92.2412 75.234 91.9301 76.0275C91.3669 76.6142 89.5457 77.1595 88.8877 76.7952C89.1813 75.7329 89.2167 74.6977 90.2799 74.2358C90.8302 74.3105 90.9274 74.3106 91.4629 74.2436L91.5903 74.2266Z" fill="#2F3A8A"/>
<path d="M43.8577 44.8711C46.2007 44.1404 47.0029 43.0807 49.7345 42.4055L49.7302 42.6771C48.951 42.9551 47.1038 43.4197 46.7265 44.064C46.6577 44.1814 46.8015 44.4891 46.8571 44.6604C46.4101 45.6051 45.4207 45.8114 44.4675 45.6419C44.0797 45.3778 44.0557 45.3013 43.8577 44.8711Z" fill="#4F5598"/>
<path d="M98.7876 49.5275C98.4304 49.6039 98.0715 49.6717 97.7109 49.7308C95.8475 50.0239 95.2969 48.0607 96.3626 46.9561C97.1834 47.7656 98.0321 48.8207 98.7876 49.5275Z" fill="#4F5598"/>
<path d="M79.1524 99.6614C79.7676 100.155 79.8346 100.229 80.1986 100.927C79.0323 101.947 78.3462 102.156 77.5047 102.84C77.2418 100.487 78.9377 100.992 79.1524 99.6614Z" fill="#4F5598"/>
<path d="M46.2477 52.6228C45.8268 52.6328 44.7549 52.5645 44.433 52.3045L44.6232 51.9501L44.4245 51.7916C43.7637 52.2398 44.2828 52.3482 43.2402 52.8061C41.9252 52.743 40.1999 51.1615 41.0415 49.7745C43.0376 49.1037 42.1697 51.7711 42.4077 52.3057C42.9724 52.4323 42.7945 52.4773 43.2516 52.2812C43.648 51.7206 43.7882 50.7424 43.9396 50.0432C44.2722 49.869 45.3052 50.2378 46.1792 50.2026L46.3325 50.1952L45.9722 50.6717C46.1432 51.4181 46.2774 51.8595 46.2477 52.6228Z" fill="#3B438E"/>
<path d="M93.6294 60.2915C95.2999 60.8405 94.2274 61.5538 94.98 62.551L94.7365 62.8326L95.055 63.3187C94.7306 63.7026 93.846 63.8689 93.3123 64.0197C93.1095 64.8442 94.359 64.6001 93.9951 65.8141C93.5897 66.1875 93.5048 66.1896 92.9511 66.2532C91.7527 65.8022 91.4315 66.0748 90.8123 65.1975C90.8028 64.5994 90.7286 64.8068 91.0399 64.3739C93.1072 63.9688 90.8535 62.0896 91.3417 60.838C91.7255 61.3236 91.9651 62.5432 92.1159 63.166C92.3703 64.2161 91.41 64.6424 91.2802 65.2855C91.8458 65.6447 93.1918 66.0826 93.6628 65.4641C93.045 64.9512 92.7327 64.8175 92.7441 63.9859C93.2462 63.2662 93.3741 63.7945 94.1258 63.2207C93.8169 62.3365 92.9204 62.7346 92.6785 61.4701C92.875 60.8411 93.1155 60.706 93.6294 60.2915Z" fill="#2F3A8A"/>
<path d="M89.1041 44.8496L89.6665 44.9753C90.7467 45.8847 89.9894 47.3775 89.6071 48.4894C89.0464 48.5362 88.9673 48.3679 88.6209 48.0019C88.224 46.9046 88.7001 45.892 89.1041 44.8496Z" fill="#3B4490"/>
<path d="M92.4663 58.8719C91.7634 59.0559 91.2165 58.9673 90.4862 58.9718C89.9979 59.4266 90.1042 59.473 89.8746 60.2017C89.6208 59.6898 90.3086 58.3942 89.7749 57.6102C89.5691 57.308 89.2836 55.9917 89.4 55.5449L89.7011 55.4351C90.7921 55.8015 91.5087 56.6602 91.7076 57.7795L91.7362 57.9479C91.2597 57.6814 91.1249 57.5695 90.563 57.613L90.2811 57.8658C90.5006 58.9949 91.5101 58.8685 92.4663 58.8719Z" fill="#2F3A8A"/>
<path d="M55.2629 97.8059C56.2666 97.8523 57.2708 97.8823 58.2754 97.896L58.4469 98.0791L57.8664 98.7029C57.341 98.8464 57.1542 98.9462 56.7232 99.2804C56.7527 99.8827 56.9072 100.559 56.3557 100.902C56.2435 100.719 55.4366 98.2961 55.2629 97.8059Z" fill="#2F3A8A"/>
<path d="M92.6758 58.877C94.7066 59.3163 96.7969 59.8373 95.4957 62.4992L94.9801 62.5511C94.2276 61.5538 95.3 60.8406 93.6295 60.2915L93.9373 59.8852L93.8282 59.5664C93.3483 59.3522 93.0926 59.2116 92.6758 58.877Z" fill="#3B4490" fill-opacity="0.980392"/>
<path d="M69.5013 42.5222C70.1184 42.6132 69.9318 42.503 70.3087 42.8727C70.5171 43.6293 70.62 44.9989 70.0149 45.5821C68.6937 44.7837 68.8577 43.7011 69.5013 42.5222Z" fill="#2F3A8A"/>
<path d="M60.7526 98.5918L61.0292 98.9112C60.8641 99.8866 59.6656 100.162 58.7921 101.05L58.6797 101.166C58.3186 100.858 58.4281 101.014 58.3093 100.515C58.6273 99.6653 59.9518 99.0472 60.7526 98.5918Z" fill="#3B4490" fill-opacity="0.988235"/>
<path d="M85.7349 46.7888C86.3859 46.9253 86.6788 47.081 87.0352 47.5833C87.0702 48.1691 86.8807 48.3447 86.5441 48.8109C86.0043 48.5415 85.7651 48.3223 85.4727 47.8103C85.4142 47.1318 85.3547 47.4038 85.7349 46.7888Z" fill="#2F3A8A" fill-opacity="0.988235"/>
<path d="M46.3324 50.1952L46.8281 49.8682L47.085 50.0251C47.2106 50.8544 47.158 51.0581 47.0018 51.8927C46.7051 52.2251 46.6001 52.3573 46.2477 52.6229C46.2773 51.8595 46.1431 51.4182 45.9722 50.6717L46.3324 50.1952Z" fill="#4F5598" fill-opacity="0.894118"/>
<path d="M92.4665 58.8718C91.5103 58.8684 90.5008 58.9948 90.2812 57.8656L90.5631 57.6129C91.1251 57.5694 91.2599 57.6813 91.7364 57.9478C92.0421 58.265 92.3552 58.5748 92.6757 58.877L92.4665 58.8718Z" fill="#3B438E" fill-opacity="0.972549"/>
<path d="M69.5911 101.065L69.9082 101.312C69.8973 102.036 69.0808 102.664 68.5684 103.106C68.1683 102.745 68.27 102.927 68.1555 102.431C68.3603 101.837 69.0589 101.445 69.5911 101.065Z" fill="#2F3A8A"/>
<path d="M74.6973 100.13L74.7151 100.643C74.0946 101.204 73.6024 101.777 72.7913 101.376L72.8323 101.006C73.2166 100.488 74.0514 100.328 74.6973 100.13Z" fill="#2F3A8A"/>
<path d="M82.0011 92.3118L82.3638 92.5833C82.3521 93.1699 81.7211 93.9995 81.3758 94.563L81.1112 94.379C81.0145 93.4637 81.4211 92.9626 82.0011 92.3118Z" fill="#3B4490"/>
<path d="M76.7566 92.7793C77.1189 93.7016 76.0409 94.4153 75.3014 94.7239C75.148 94.5524 75.1677 94.5033 75.1206 94.2707C75.6689 93.7389 76.1804 93.2812 76.7566 92.7793Z" fill="#4F5598"/>
<path d="M64.7896 99.4395C65.717 99.3732 67.1703 98.989 67.6201 99.8216C66.7489 99.8949 65.2515 100.209 64.7896 99.4395Z" fill="#7372AB" fill-opacity="0.0941176"/>
<path d="M46.5129 86.2092L47.8477 86.2183L48.0774 86.4561L47.8925 87.0019C47.5139 87.1729 47.3972 87.19 46.9871 87.2778C46.5106 86.9397 46.653 86.9726 46.5129 86.2092Z" fill="#2F3A8A"/>
<path d="M74.6973 100.13C75.4832 99.8773 75.6785 99.4356 76.4664 99.4465L76.5649 99.7589C76.2148 100.319 75.3565 100.477 74.715 100.643L74.6973 100.13Z" fill="#3B438E"/>
<path d="M99.2359 50.2698C99.3781 50.5351 99.4892 50.8494 99.6017 51.1321C99.3349 51.6465 99.0567 51.5875 98.3559 51.8349L98.2161 51.8466L98.1069 51.6598C98.5342 51.1768 98.8467 50.7848 99.2359 50.2698Z" fill="#7372AB" fill-opacity="0.01"/>
<path d="M34.4809 55.8687C34.5367 55.9015 34.5898 56.03 34.6311 56.104C33.9703 56.7193 33.2467 56.7484 32.3963 56.7934L32.2976 56.6452L32.3749 56.4383C33.0798 56.2593 33.7819 56.0693 34.4809 55.8687Z" fill="#7372AB" fill-opacity="0.466667"/>
<path d="M190.577 40.2836C192.056 38.9918 197.539 39.2042 199.587 39.3402C206.851 39.8222 213.69 41.0693 220.428 43.8196C222.134 44.5156 223.641 45.0886 225.214 46.068C225.966 46.5354 227.187 47.1695 227.742 47.8556C227.834 47.971 227.902 48.0865 227.978 48.2114C228.065 48.3536 228.161 48.4915 228.248 48.6343C230.063 49.1428 230.98 49.0381 231.264 51.0907C232.317 51.1332 234.001 52.8475 234.952 53.4599C235.61 53.9672 236.763 54.7579 237.178 55.4184L237.133 55.6896C236.06 56.0641 235.123 55.27 234.814 55.8499C235.861 57.0676 237.487 56.2107 238.786 57.3164C238.816 57.3431 239.479 57.784 239.591 57.8656C240.1 58.1729 240.704 58.985 241.106 59.4689C240.681 59.8171 240.345 60.0059 240.21 60.5183C240.816 60.9358 241.752 60.2993 242.419 60.682C242.286 61.9775 240.62 61.8323 241.226 63.883L241.548 64.1611L242.017 64.097C242.12 63.1489 241.603 62.9237 241.832 62.2284C242.348 62.286 242.215 62.2087 242.611 62.7249C243.615 64.0378 244.63 65.3585 245.608 66.6919C245.408 67.2606 245.551 67.0678 245.069 67.4227C244.09 66.9382 243.841 65.2133 242.353 66.5181L242.339 66.828C242.862 67.0831 243.165 67.135 243.672 67.3344C244.219 67.702 244.57 67.7922 244.786 68.3126C244.458 68.851 243.997 68.8187 243.672 69.1075C243.157 69.565 243.974 70.4835 243.197 70.9979C242.67 71.3469 241.943 71.7518 241.301 71.5714C240.914 70.9014 241.059 70.6499 240.617 70.2013C239.824 71.4646 238.228 71.8897 236.829 71.4884C236.371 70.9536 236.509 71.0512 236.435 70.2141L235.985 69.5893C235.617 70.2853 235.322 71.7104 234.915 72.7311C234.069 73.1269 232.759 73.4433 232.411 73.9111L232.485 74.2374C233.246 73.8569 233.838 73.5739 234.602 74.1509C234.867 75.8914 231.849 78.0752 230.653 79.0149C231.195 79.7998 231.188 79.5652 231.271 80.4281C231.065 81.0466 230.617 81.401 230.022 81.6349L229.727 81.7177C228.787 81.3587 227.704 80.9922 227.08 81.9378C226.935 82.7728 227.418 83.9327 227.962 84.5659L227.944 85.7299L227.783 85.6695L227.927 85.3734V85.447L227.735 85.6087C226.938 85.4811 227.166 85.5255 226.32 85.9624L225.365 86.2413L225.101 86.5238C225.536 87.255 226.439 86.7046 227.07 87.485C226.521 88.3997 224.781 88.4082 224.834 89.0889C225.173 89.045 225.465 89.0056 225.808 88.9881C225.897 89.3312 225.89 89.3308 225.877 89.6895L226.194 89.9555C225.113 91.1138 224.071 91.8717 223.282 93.2941C222.87 94.0385 222.307 94.7974 221.791 95.4809C220.646 95.8462 219.093 96.8593 218.014 97.5055C217.79 99.8134 215.634 102.772 213.194 102.812C212.56 102.404 212.812 102.44 212.217 102.55C211.362 103.156 211.198 103.754 210.541 104.163C205.998 106.985 201.757 106.644 196.651 106.262C195.774 106.196 192.673 105.717 192.054 105.777C192.086 104.676 191.415 101.323 190.453 100.836L190.206 100.962C190.133 101.868 190.503 101.521 190.743 102.629C190.478 103.312 190.616 103.093 189.815 103.48C189.515 104.019 189.641 104.121 189.676 104.85C188.992 104.457 188.075 103.653 187.44 103.132L187.368 102.91C186.761 101.884 185.553 100.603 185.574 99.4258C185.585 98.9208 185.958 98.8927 185.933 98.0257L185.658 97.8162C184.127 98.3679 185.683 99.3317 184.515 100.856L184.424 100.973C183.253 100.191 182.153 98.876 181.614 97.5709C181.161 96.595 180.175 95.1704 179.558 94.2233C179.188 94.002 178.584 91.6829 178.275 90.9637C178.605 90.3453 178.898 89.8861 179.016 89.1932C178.427 89.4106 178.228 89.5258 177.603 89.4449C177.096 88.9709 177.196 88.7731 177.002 87.9651C176.833 87.4408 176.216 86.7282 176.215 86.0305C176.214 85.2998 176.568 85.424 177.202 84.7828L177.104 84.3356L176.837 84.2355L176.047 84.8066C175.747 84.2942 176.037 83.5025 175.902 83.3612C174.1 81.4764 174.462 81.0105 174.556 78.6426C174.561 78.527 173.685 77.8972 173.461 77.2363C173.461 76.6441 173.934 76.1747 174.311 75.6803C174.098 75.5411 173.872 75.3779 173.66 75.2313C173.344 74.6491 173.48 73.7808 173.521 73.0903L173.497 63.6278C173.493 62.2928 173.235 60.5841 173.573 59.339C173.655 59.0346 173.797 59.0614 174.154 58.9021L173.824 58.4002C173.021 59.2244 172.57 58.8901 171.471 59.1323C171.504 59.9581 171.704 60.4859 170.899 60.7954C170.086 60.3256 170.637 59.7179 169.733 59.2423L169.305 59.4226L169.227 59.7087C169.653 60.4301 170.276 61.0693 170.839 61.696C169.399 61.8899 169.582 62.0694 168.211 62.4874C166.557 62.992 164.231 63.1338 162.517 62.8354C162.201 62.7803 162.166 62.6035 162.077 62.3897C162.558 61.6627 163.584 61.8625 164.482 60.9841L164.33 60.7712C163.77 60.6585 163.284 60.9059 162.722 61.1011L162.505 60.9903C162.214 59.745 162.812 57.2201 163.361 55.9861C165.805 54.1824 165.796 53.4178 167.6 51.457C170.386 48.4288 179.124 42.8671 182.842 41.6715C183.623 41.3136 185.389 40.6218 186.202 40.505C186.077 41.2585 185.988 41.5624 186.155 42.3007L186.458 42.6148C187.097 42.5397 186.943 42.5294 187.515 42.0837C187.4 41.4988 187.069 40.74 186.498 40.48C187.471 40.1222 187.986 40.0989 188.978 40.3613C189.175 40.9097 189.291 41.3 189.605 41.7949C189.683 42.1557 189.737 42.1916 189.962 42.4958L190.222 42.3967C190.529 41.6322 190.524 41.0949 190.577 40.2836ZM175.172 61.3703C175.587 61.6942 175.769 61.8881 176.312 61.5252C176.316 60.9324 175.897 60.2881 175.952 60.064C176.144 59.2802 177.685 58.5006 177.802 57.5798C177.309 57.4597 177.252 57.5702 176.718 57.7353C175.666 59.4106 174.708 59.3943 175.098 61.0703C175.121 61.1708 175.146 61.2706 175.172 61.3703ZM179.117 82.7774C178.882 82.2324 178.724 81.6372 178.555 81.0669C177.552 80.7366 177.705 81.3134 176.583 80.4819C176.169 80.6997 176.292 80.5573 176.138 81.0274C176.492 81.9182 178.152 81.7513 178.06 83.5121C178.045 83.8038 178.132 83.7905 178.342 83.9016C178.957 83.5057 178.925 83.6044 179.117 82.7774ZM223.229 82.5408C222.685 82.8949 222.171 83.858 222.275 84.4971C222.662 84.5857 222.509 84.5794 222.911 84.4454C223.188 83.8939 223.213 83.5935 223.672 83.3429C224.036 83.6083 224.057 83.6369 224.486 83.7487L224.754 83.4773L224.724 83.0772C224.244 82.5202 224.169 82.6816 223.229 82.5408ZM239.335 64.9588L239.751 64.4707L239.662 64.2434C238.591 64.3607 237.974 64.9913 236.938 65.2076C236.975 65.5652 236.996 65.5755 237.224 65.8684C238.31 66.145 238.29 65.2681 239.335 64.9588ZM187.583 97.3584C187.68 97.1893 187.691 96.9835 187.611 96.8052C187.531 96.627 187.371 96.4978 187.179 96.458C186.875 96.3943 186.571 96.5706 186.475 96.8669C186.379 97.163 186.523 97.4837 186.808 97.61C187.092 97.7362 187.426 97.6278 187.583 97.3584ZM177.575 53.1706L177.635 52.3544C177.045 52.1678 176.986 52.0453 176.446 52.1669C176.715 52.5972 177.162 52.8713 177.575 53.1706ZM194.655 43.4293L194.902 44.2919C195.442 43.8516 195.899 43.5726 195.869 42.8483L195.403 42.4992L194.655 43.4293ZM207.382 103.362C207.615 102.508 207.789 102.434 207.56 101.729C207.327 101.608 207.117 101.479 206.865 101.416C206.801 102.034 206.652 102.717 206.933 103.24C207.153 103.334 207.171 103.378 207.382 103.362ZM222.994 47.2023C222.404 47.8359 222.378 47.6795 222.223 48.4183C222.662 48.8127 222.927 48.699 223.49 48.5182C224.034 48.0189 224.105 48.127 224.173 47.5565C223.78 47.2246 223.615 47.1975 222.994 47.2023ZM237.928 63.1717C238.303 62.7201 238.726 62.382 238.759 61.8865L238.466 61.7605C238.036 62.2068 237.773 62.4188 237.583 63.0087L237.705 63.2211L237.928 63.1717ZM176.296 47.6139C176.018 48.3026 176.281 48.778 176.381 49.599L176.175 49.6856C175.988 49.5309 175.672 49.2522 175.483 49.1312C175.666 49.388 176.011 49.915 176.225 50.1018L176.48 50.0584C176.606 49.2855 176.544 48.2727 176.938 47.9386C177.262 47.9782 177.389 47.9736 177.687 48.1247C177.446 48.865 177.49 50.8748 178.047 51.3875C178.847 50.8785 179.167 48.4585 178.753 47.6958L178.454 47.6125L178.307 48.0412C177.573 48.161 177.761 47.5064 176.296 47.6139Z" fill="#17267E"/>
<path d="M176.718 57.7352C177.251 57.5701 177.309 57.4595 177.802 57.5797C177.685 58.5005 176.144 59.2801 175.952 60.0639C175.897 60.288 176.316 60.9323 176.312 61.525C175.769 61.888 175.586 61.6941 175.172 61.3702C175.146 61.2705 175.121 61.1706 175.098 61.0702C174.708 59.3942 175.666 59.4105 176.718 57.7352Z" fill="#4F5598" fill-opacity="0.956863"/>
<path d="M179.117 82.7774C178.925 83.6044 178.957 83.5057 178.342 83.9015C178.133 83.7905 178.045 83.8038 178.06 83.5121C178.152 81.7513 176.493 81.9182 176.138 81.0274C176.292 80.5573 176.169 80.6997 176.583 80.4819C177.705 81.3134 177.552 80.7366 178.556 81.0669C178.724 81.6372 178.883 82.2324 179.117 82.7774Z" fill="#3B4490" fill-opacity="0.972549"/>
<path d="M223.229 82.5408C224.169 82.6815 224.244 82.5202 224.724 83.0772L224.754 83.4773L224.486 83.7487C224.057 83.6369 224.036 83.6082 223.672 83.3429C223.213 83.5935 223.188 83.8939 222.911 84.4454C222.509 84.5794 222.662 84.5856 222.275 84.4971C222.171 83.858 222.685 82.8948 223.229 82.5408Z" fill="#4F5598" fill-opacity="0.984314"/>
<path d="M236.938 65.2076C237.974 64.9913 238.59 64.3607 239.662 64.2434L239.751 64.4707L239.335 64.9588C238.29 65.268 238.31 66.145 237.224 65.8684C236.996 65.5755 236.975 65.5652 236.938 65.2076Z" fill="#3B4490" fill-opacity="0.952941"/>
<path d="M187.583 97.3582C187.426 97.6276 187.092 97.736 186.808 97.6098C186.523 97.4835 186.379 97.1628 186.475 96.8667C186.571 96.5705 186.875 96.3941 187.179 96.4578C187.371 96.4976 187.531 96.6268 187.611 96.8051C187.691 96.9833 187.68 97.1891 187.583 97.3582Z" fill="#3B4490" fill-opacity="0.976471"/>
<path d="M239.591 57.8655C240.1 58.1728 240.704 58.9848 241.106 59.4688C240.681 59.817 240.345 60.0058 240.21 60.5182C240.816 60.9357 241.753 60.2992 242.419 60.6819C242.286 61.9774 240.62 61.8322 241.226 63.8829L241.548 64.161L242.017 64.0968C242.12 63.1488 241.603 62.9236 241.833 62.2283C242.348 62.2859 242.215 62.2086 242.611 62.7247C243.615 64.0377 244.63 65.3584 245.608 66.6918C245.409 67.2605 245.551 67.0677 245.069 67.4226C244.09 66.9381 243.841 65.2132 242.353 66.5179L242.339 66.8279C242.862 67.083 243.166 67.1349 243.672 67.3343C244.219 67.7018 244.57 67.7921 244.786 68.3125C244.458 68.8509 243.997 68.8185 243.672 69.1074C243.157 69.5648 243.974 70.4834 243.198 70.9977C242.67 71.3468 241.943 71.7517 241.301 71.5713C240.914 70.9012 241.059 70.6497 240.617 70.2011C239.824 71.4645 238.228 71.8896 236.829 71.4883C236.371 70.9535 236.509 71.0511 236.435 70.2139L235.985 69.5892C235.617 70.2852 235.322 71.7103 234.915 72.731C234.069 73.1268 232.759 73.4432 232.411 73.911L232.485 74.2373L231.865 74.1818C231.295 74.1653 230.744 74.1621 230.342 74.6262C229.103 76.0568 227.649 76.7892 228.207 78.8596L228.044 79.2272L227.728 79.2464C226.784 78.3965 227.089 78.5193 226.411 77.5986L226.187 77.7031L226.014 77.6198C226.515 76.8951 226.693 76.681 226.931 75.8453C226.059 74.9283 226.023 74.3535 226.419 73.2132L226.528 72.856C227.237 72.4093 228.895 70.5525 229.558 69.8474C229.885 68.7686 229.443 67.0407 230.255 66.3025C231.248 66.8261 230.719 67.6906 231.24 68.494C231.336 68.6412 232.153 68.9536 232.541 69.2522C232.818 69.7787 232.58 70.8392 232.494 71.4783C231.352 71.8686 230.038 72.2815 228.961 72.7881C237.96 74.0988 234.119 69.439 235.45 67.4818C235.875 67.2116 235.951 67.1381 236.444 67.1846C236.961 67.9587 236.3 68.7265 236.849 69.5645C238.623 69.7852 239.566 66.4312 241.642 67.3785C241.761 67.7493 241.747 67.8741 241.763 68.2677C242.373 68.7604 243.361 68.5925 243.763 68.0017L243.56 67.6554C242.812 67.402 242.524 67.4358 242.048 66.9072C241.984 66.3038 242.52 65.5416 242.821 64.8823L242.689 64.575C242.058 64.297 241.76 64.4319 241.134 64.3745C239.909 64.2625 240.597 64.8126 239.335 64.9587L239.751 64.4706L239.662 64.2433C238.591 64.3606 237.974 64.9912 236.938 65.2075C237.139 61.8119 237.329 62.9304 239.154 60.8386C239.499 60.4437 238.28 59.2932 238.447 58.3692C238.873 58.0946 239.104 58.1941 239.591 57.8655ZM237.928 63.1716C238.303 62.7199 238.726 62.3819 238.759 61.8864L238.466 61.7603C238.036 62.2066 237.773 62.4187 237.583 63.0086L237.706 63.221L237.928 63.1716Z" fill="#3B4490"/>
<path d="M236.435 70.214C237.128 70.3491 237.586 70.4535 238.303 70.4629C239.305 70.4762 239.877 69.7933 240.608 70.0146L240.617 70.2012C239.824 71.4646 238.228 71.8897 236.829 71.4884C236.371 70.9536 236.509 71.0512 236.435 70.214Z" fill="#3B438E"/>
<path d="M226.419 73.2131C227.553 73.6843 227.262 72.9791 228.332 73.3372C228.421 74.0643 227.648 74.9315 227.189 75.5194L226.931 75.8452C226.059 74.9283 226.023 74.3535 226.419 73.2131Z" fill="#2F3A8A"/>
<path d="M238.466 61.7605L238.76 61.8865C238.726 62.382 238.303 62.7201 237.928 63.1717L237.706 63.2211L237.583 63.0087C237.773 62.4188 238.036 62.2068 238.466 61.7605Z" fill="#7372AB" fill-opacity="0.0431373"/>
<path d="M174.154 58.9021C174.468 59.0878 174.484 59.0896 174.738 59.3452C174.792 60.3016 174.691 60.517 175.172 61.3703C175.586 61.6941 175.769 61.888 176.312 61.5251C176.443 63.9554 176.994 64.1815 177.496 66.4011C177.642 67.0473 177.079 69.132 177.063 69.898C177.054 70.3422 177.876 71.7662 177.814 72.2702C177.745 72.8271 176.86 74.6782 177.219 75.2154C177.269 75.2906 177.763 75.8107 177.796 75.9666C178.127 77.5514 178.269 79.1739 178.612 80.7711C178.619 80.805 178.564 81.0268 178.555 81.0668C177.552 80.7366 177.705 81.3133 176.583 80.4819C176.169 80.6996 176.292 80.5573 176.138 81.0274C176.492 81.9182 178.152 81.7513 178.059 83.5121C178.045 83.8038 178.132 83.7904 178.342 83.9015C178.957 83.5057 178.925 83.6043 179.117 82.7773C179.12 83.2976 179.131 84.1199 179.328 84.6044C179.702 85.5256 179.485 85.2606 179.362 86.1088C178.655 86.0889 178.774 86.2019 178.321 85.8269C178.223 85.2436 178.527 84.6515 178.744 84.0796L178.532 83.9994C177.901 84.2943 177.793 84.5536 177.351 85.004C176.147 86.2328 176.652 87.0023 177.848 87.9634C177.518 87.9866 177.332 87.9807 177.001 87.965C176.832 87.4407 176.216 86.7282 176.215 86.0304C176.214 85.2997 176.568 85.424 177.202 84.7827L177.104 84.3355L176.837 84.2355L176.046 84.8065C175.747 84.2941 176.037 83.5025 175.902 83.3612C174.1 81.4763 174.462 81.0105 174.556 78.6425C174.561 78.527 173.684 77.8971 173.461 77.2363C173.461 76.6441 173.934 76.1747 174.311 75.6802C174.097 75.5411 173.871 75.3779 173.66 75.2313C173.344 74.649 173.48 73.7808 173.521 73.0903L173.497 63.6277C173.493 62.2927 173.235 60.584 173.573 59.339C173.655 59.0345 173.797 59.0613 174.154 58.9021Z" fill="#2F3A8A"/>
<path d="M173.521 73.0902C174.579 72.7865 174.419 72.8696 175.446 73.32C175.775 73.8027 175.718 73.5784 175.661 74.1627C175.255 74.8532 174.901 75.1327 174.312 75.6801C174.098 75.541 173.872 75.3778 173.661 75.2312C173.344 74.6489 173.48 73.7807 173.521 73.0902Z" fill="#3B4490"/>
<path d="M163.361 55.9859C165.805 54.1823 165.796 53.4177 167.6 51.4569C170.386 48.4287 179.124 42.867 182.842 41.6714L182.672 42.0498C180.8 42.7431 179.723 43.5271 178.07 44.6175L178.004 44.8146C179.281 44.732 180.976 44.0049 182.318 43.7788C182.457 43.3506 182.409 43.1859 182.366 42.7365L182.611 42.6079L182.935 42.7266C182.835 43.3542 182.764 43.432 182.393 43.9313C180.109 45.0345 171.762 46.4132 170.925 49.3899C171.716 49.6902 171.869 49.1959 172.184 49.6765C171.861 49.999 171.762 49.8143 171.659 49.8941C170.716 50.6175 169.931 51.7399 168.879 52.2711L168.467 52.2597C168.833 51.3677 169.167 51.5897 169.247 50.7469L169.073 50.5988C168.506 51.0423 167.565 51.8453 167.396 52.5603C167.732 53.0348 168.114 53.4596 168.168 54.0266C167.538 54.7198 166.647 53.9493 165.857 54.47C166.104 55.3706 167.437 55.7561 168.055 56.5302C168.27 56.7991 167.667 57.0314 168.002 57.5697L168.148 56.9466L168.35 56.9828C168.403 57.4574 168.462 57.6286 168.278 58.0745C167.218 58.412 167.178 57.4142 166.014 57.4585C165.48 58.0592 165.259 58.436 164.518 58.6887L164.183 58.5615C163.944 58.024 164.015 57.6497 164.051 57.0623L164.277 56.7081C165.222 56.6311 165.505 56.9841 166.625 56.8348C166.712 55.8286 166.263 55.2565 165.33 55.0295C164.52 55.1778 162.685 57.6314 162.778 58.5833C162.806 58.8583 163.024 59.1054 163.203 59.3217C162.832 59.8353 162.898 59.5923 162.961 60.2334C163.729 61.3311 165.898 59.1087 167.021 60.1008L167.139 60.601C167.852 60.9261 168.027 60.6753 168.633 60.1867C168.672 59.4178 168.539 59.4157 168.946 58.96C170.296 58.8414 172.063 59.0897 172.341 57.4091C172.092 57.0986 171.93 56.7539 171.759 56.3969C171.35 56.8392 171.136 57.2427 170.645 57.3392C170.448 57.0063 169.925 55.7764 170.022 55.3864L170.367 55.3047C171.043 55.7248 171.174 56.1048 171.768 56.2465C172.322 55.9026 172.475 55.6308 172.855 55.1047L172.959 55.1721C173.398 55.4547 173.523 55.5894 174.006 55.4965L174.034 55.7499L173.82 55.9683L173.146 55.8464C173.159 55.8302 172.782 57.5738 172.767 57.657C173.021 57.8381 172.899 57.8209 173.157 57.8395C173.327 57.9933 173.643 58.3034 173.824 58.4001C173.021 59.2243 172.57 58.8899 171.471 59.1322C171.504 59.9579 171.704 60.4858 170.899 60.7953C170.086 60.3255 170.637 59.7178 169.733 59.2422L169.305 59.4224L169.227 59.7086C169.653 60.43 170.276 61.0691 170.839 61.6958C169.399 61.8897 169.582 62.0692 168.211 62.4873C166.557 62.9919 164.231 63.1337 162.517 62.8353C162.201 62.7802 162.166 62.6033 162.077 62.3895C162.558 61.6626 163.584 61.8624 164.482 60.984L164.33 60.7711C163.77 60.6584 163.284 60.9058 162.722 61.101L162.505 60.9902C162.214 59.7448 162.812 57.2199 163.361 55.9859Z" fill="#3B438E"/>
<path d="M232.485 74.2373C233.246 73.8568 233.838 73.5739 234.602 74.1508C234.867 75.8913 231.849 78.0752 230.653 79.0148C231.195 79.7997 231.188 79.5651 231.271 80.428C231.065 81.0465 230.617 81.4009 230.022 81.6348L229.727 81.7176C228.787 81.3586 227.704 80.9921 227.08 81.9377C226.935 82.7727 227.418 83.9326 227.962 84.5658C225.399 83.3971 226.165 86.7287 222.911 84.4453C223.188 83.8938 223.213 83.5935 223.671 83.3428C224.036 83.6082 224.057 83.6368 224.485 83.7486L224.754 83.4772L224.724 83.0771C224.244 82.5201 224.169 82.6815 223.229 82.5407C224.347 81.9446 225.228 78.6135 226.014 77.6198L226.186 77.7032L226.41 77.5987C227.089 78.5193 226.783 78.3965 227.727 79.2464L228.044 79.2272L228.207 78.8597C227.649 76.7893 229.103 76.0568 230.342 74.6262C230.743 74.1622 231.294 74.1654 231.865 74.1819L232.485 74.2373Z" fill="#2F3A8A"/>
<path d="M232.485 74.2373C233.246 73.8568 233.838 73.5739 234.602 74.1508C234.867 75.8913 231.849 78.0752 230.653 79.0148L229.908 79.4078C229.672 76.0287 230.697 77.3312 232.276 76.9071C232.834 76.0147 232.183 75.0485 231.865 74.1819L232.485 74.2373Z" fill="#4F5598"/>
<path d="M229.908 79.4079L230.653 79.0149C231.195 79.7998 231.188 79.5652 231.271 80.4281C231.065 81.0466 230.617 81.401 230.022 81.6349L229.908 79.4079Z" fill="#4F5598"/>
<path d="M183.459 94.9181C183.882 94.4828 184.069 94.5644 184.575 94.3065L184.568 94.2215C183.434 93.9739 182.746 92.3235 182.192 92.1963C182.313 92.9163 182.453 93.4431 182.645 94.1488L182.538 94.2084C181.982 93.5154 181.243 92.755 182.174 91.9485C183.008 91.9536 185.398 94.9195 186.324 95.5398C186.504 95.6598 186.827 96.1823 186.946 96.4084L187.179 96.4578C186.875 96.3942 186.571 96.5705 186.475 96.8668C186.379 97.1629 186.523 97.4835 186.808 97.6099C187.092 97.7361 187.426 97.6276 187.583 97.3582C187.225 97.8327 186.881 97.8578 186.342 97.9916C185.848 98.463 185.553 99.1738 185.656 99.857C186.438 100.446 187.385 99.7452 188.306 99.5077L188.453 99.6481C188.162 101.313 187.019 100.938 187.368 102.91C186.761 101.883 185.553 100.602 185.574 99.4256C185.585 98.9207 185.958 98.8926 185.933 98.0256L185.658 97.816C184.127 98.3677 185.683 99.3316 184.515 100.856L184.424 100.973C183.253 100.19 182.153 98.8759 181.614 97.5708C181.616 97.2087 181.639 96.8278 181.655 96.4645C182.384 95.4737 182.858 96.2632 183.459 94.9181Z" fill="#3B438E"/>
<path d="M179.558 94.2231C180.795 94.4537 182.208 94.7057 183.459 94.9181C182.859 96.2632 182.384 95.4737 181.655 96.4645C181.639 96.8278 181.616 97.2087 181.614 97.5708C181.161 96.5948 180.175 95.1703 179.558 94.2231Z" fill="#3B4490"/>
<path d="M173.157 57.8396C173.947 57.4408 173.509 57.5202 174.112 57.9942L175.295 57.3625C175.672 57.4489 176.351 57.6345 176.718 57.7353C175.666 59.4106 174.708 59.3942 175.098 61.0703C175.121 61.1707 175.146 61.2706 175.172 61.3703C174.691 60.517 174.792 60.3016 174.738 59.3452C174.484 59.0896 174.469 59.0878 174.154 58.9021L173.824 58.4002C173.644 58.3035 173.327 57.9933 173.157 57.8396Z" fill="#3B4490"/>
<path d="M231.264 51.0906C232.317 51.1331 234.002 52.8473 234.952 53.4598C234.416 53.4662 230.962 52.2912 229.818 51.9926L229.816 51.7779C230.79 51.8424 230.648 51.7697 231.264 51.0906Z" fill="#4F5598"/>
<path d="M186.499 40.48C187.471 40.1222 187.986 40.099 188.978 40.3613C189.175 40.9098 189.291 41.3001 189.605 41.7949C189.038 41.539 188.537 41.6932 187.97 41.9033C187.817 41.9604 187.664 42.0204 187.515 42.0837C187.4 41.4988 187.069 40.74 186.499 40.48Z" fill="#3B4490"/>
<path d="M177.576 53.1705L176.651 54.5527L176.29 54.4094C175.722 55.1591 176.398 56.1477 175.54 57.0346C174.946 57.1693 175.194 57.1814 174.6 56.9658C174.646 56.1921 175.388 55.3651 175.524 54.8085C175.726 53.9808 173.785 52.9101 174.254 51.7751C175.111 51.4534 175.728 52.0484 176.624 51.7422C177.114 51.5746 177.28 51.5607 177.696 51.808L177.636 52.3543C177.045 52.1677 176.986 52.0452 176.446 52.1668C176.715 52.5971 177.162 52.8712 177.576 53.1705Z" fill="#2F3A8A"/>
<path d="M176.296 47.6138C177.761 47.5063 177.574 48.1609 178.307 48.0411L178.454 47.6124L178.753 47.6957C179.167 48.4584 178.847 50.8784 178.047 51.3874C177.49 50.8747 177.446 48.8649 177.687 48.1246C177.39 47.9735 177.262 47.9781 176.938 47.9385C176.544 48.2727 176.607 49.2854 176.48 50.0584L176.225 50.1017C176.011 49.9149 175.666 49.3879 175.483 49.1311C175.672 49.2521 175.989 49.5308 176.175 49.6855L176.382 49.5989C176.281 48.778 176.018 48.3025 176.296 47.6138Z" fill="#3B438E" fill-opacity="0.984314"/>
<path d="M195.403 42.4993C196.153 42.5487 196.205 42.53 196.318 43.354C196.814 43.7073 197.758 44.2112 197.884 44.6593C197.36 45.0135 195.319 45.2291 194.58 45.3411L194.902 44.2919C195.442 43.8516 195.899 43.5726 195.869 42.8483L195.403 42.4993Z" fill="#2F3A8A"/>
<path d="M197.769 42.501C199.423 42.6245 199.987 42.6377 200.458 44.3505C199.098 44.0949 198.112 44.0044 197.769 42.501Z" fill="#4F5598"/>
<path d="M222.995 47.2021C223.615 47.1973 223.78 47.2245 224.173 47.5563C224.105 48.1269 224.034 48.0188 223.49 48.5181C222.927 48.6988 222.662 48.8126 222.223 48.4182C222.378 47.6793 222.404 47.8357 222.995 47.2021Z" fill="#4F5598" fill-opacity="0.984314"/>
<path d="M206.181 96.8364C206.357 96.8599 206.428 96.9201 206.599 97.0074C206.378 97.7946 205.379 98.2372 204.651 98.6651C204.263 98.5869 204.436 98.6687 204.13 98.385C204.396 97.8246 205.557 97.2395 206.181 96.8364Z" fill="#3B438E"/>
<path d="M194.58 45.3409C194.032 45.401 193.935 45.3336 193.604 45.0775L193.576 44.6092C193.83 43.9258 194.034 43.8362 194.655 43.4292L194.902 44.2917L194.58 45.3409Z" fill="#3B438E"/>
<path d="M234.375 59.2104C235.059 59.4179 234.856 59.2632 235.253 59.7422C235.352 60.3254 235.174 60.568 234.918 61.0896C234.446 61.0173 234.622 61.0816 234.241 60.7818C234.026 60.247 234.224 59.7767 234.375 59.2104Z" fill="#2F3A8A"/>
<path d="M206.865 101.417C207.117 101.479 207.327 101.608 207.56 101.729C207.789 102.434 207.615 102.508 207.382 103.362C207.171 103.378 207.153 103.334 206.932 103.24C206.652 102.718 206.801 102.034 206.865 101.417Z" fill="#4F5598" fill-opacity="0.976471"/>
<path d="M195.403 42.4993L195.869 42.8483C195.899 43.5726 195.442 43.8516 194.902 44.2919L194.655 43.4294L195.403 42.4993Z" fill="#4F5598" fill-opacity="0.976471"/>
<path d="M215.318 94.8325C215.539 94.9847 215.583 95.0709 215.757 95.2756C215.668 95.9716 215.546 95.9114 215.016 96.5478L214.716 96.4012C214.666 95.8072 215.011 95.3599 215.318 94.8325Z" fill="#2F3A8A"/>
<path d="M177.575 53.1705C177.162 52.8712 176.715 52.5971 176.446 52.1668C176.986 52.0453 177.045 52.1677 177.635 52.3543L177.575 53.1705Z" fill="#4F5598" fill-opacity="0.690196"/>
<path d="M145.391 144.32L145.555 144.247C148.057 143.11 151.865 139.894 154.305 138.278C154.649 138.051 154.882 138.067 155.224 138.17C155.215 138.804 154.152 139.56 154.329 140.301L154.715 140.327C155.111 139.778 155.518 139.236 155.936 138.703C156.632 138.473 156.354 138.477 157.018 138.618L157.212 138.916C156.967 140.123 156.091 139.74 156.28 140.847L156.673 141.104C157.485 140.963 156.973 140.66 157.668 140.351L157.717 140.564C157.119 141.455 156.727 141.834 155.989 142.587C155.198 142.47 153.778 141.942 153.194 142.488C154.393 143.949 154.185 144.47 152.508 145.37C152.222 145.89 152.032 146.134 152.07 146.737C152.732 148.245 151.853 149.202 150.651 150.106C150.17 151.728 146.01 154.123 144.512 154.62C143.304 155.473 141.548 155.897 140.08 156.117C139.11 156.555 138.663 156.758 137.617 157.033C136.849 157.472 134.925 157.695 134 157.796C127.589 158.494 121.879 157.172 115.8 155.224L115.393 155.025C114.24 154.603 109.265 152.058 108.664 151.154C106.862 148.444 109.949 146.334 112.72 146.904C113.431 146.975 115.827 147.05 116.167 147.253C116.717 148.331 116.075 148.05 115.902 148.769C116.401 148.677 117.677 148.393 118.075 148.462C120.733 148.921 123.503 149.861 126.1 150.451C128.112 150.908 130.168 150.741 132.303 151.372C133.068 150.894 134.142 150.135 135.014 150.013C135.358 149.98 135.955 149.834 136.313 149.758C138.945 148.811 142.18 147.531 144.469 145.735C144.664 145.582 145.232 144.598 145.391 144.32ZM147.237 148.055C146.605 148.072 145.603 148.003 145.169 148.397C144.543 149.385 145.488 150.698 144.712 152.427C145.122 152.93 144.915 152.816 145.475 152.922C145.898 152.682 145.939 152.417 146.1 151.966C145.717 150.72 146.651 149.213 147.237 148.055ZM132.346 156.035C132.606 155.833 132.664 155.464 132.479 155.191C132.294 154.919 131.929 154.837 131.645 155.005C131.445 155.124 131.327 155.343 131.34 155.575C131.352 155.807 131.492 156.013 131.704 156.11C131.915 156.207 132.162 156.178 132.346 156.035Z" fill="#2F3A8A"/>
<path d="M144.712 152.427C145.488 150.698 144.543 149.384 145.169 148.397C145.603 148.002 146.605 148.072 147.237 148.055C146.651 149.212 145.717 150.72 146.1 151.966C145.939 152.417 145.898 152.682 145.475 152.922C144.915 152.815 145.123 152.93 144.712 152.427Z" fill="#4F5598" fill-opacity="0.988235"/>
<path d="M137.002 154.002C137.709 152.939 138.939 151.773 140.331 152.263C141.394 153.542 140.216 154.807 140.093 155.976L140.08 156.117C139.11 156.555 138.663 156.758 137.617 157.033C137.541 156.332 137.133 154.879 137.002 154.002Z" fill="#3B4490"/>
<path d="M146.1 151.966C146.38 151.995 146.414 151.991 146.661 152.16L147.163 152.506C148.554 152.716 149.761 150.47 150.65 150.105C150.17 151.728 146.01 154.122 144.512 154.62C143.945 153.885 144.397 153.194 144.712 152.427C145.122 152.93 144.915 152.816 145.475 152.922C145.897 152.682 145.939 152.417 146.1 151.966Z" fill="#3B438E"/>
<path d="M152.07 146.737C151.643 148.243 149.364 149.455 148.039 148.177C148.103 147.105 149.839 147.387 150.615 146.853C151.078 146.534 151.811 145.766 152.225 145.353L152.508 145.37C152.222 145.89 152.032 146.134 152.07 146.737Z" fill="#4F5598"/>
<path d="M112.72 146.904C113.431 146.975 115.827 147.05 116.167 147.253C116.717 148.331 116.075 148.05 115.902 148.769L116.275 148.936L116.04 149.05C114.393 148.734 113.292 148.593 112.72 146.904Z" fill="#4F5598"/>
<path d="M115.393 155.025C115.202 152.503 115.429 153.516 115.835 151.053L116.142 150.802C116.739 150.881 116.521 150.778 116.963 151.196L117.036 151.584C115.622 153.299 116.964 153.248 116.557 154.768C116.244 155.109 116.235 155.141 115.8 155.224L115.393 155.025Z" fill="#3B438E"/>
<path d="M136.313 149.758C136.343 150.293 135.918 151.121 135.406 151.326C134.929 150.962 134.986 150.607 135.014 150.013C135.358 149.98 135.955 149.834 136.313 149.758Z" fill="#3B4490"/>
<path d="M121.402 150.305C122.354 150.445 122.792 150.881 122.728 151.967L122.405 152.204C121.675 151.936 121.188 151.892 120.741 151.352C120.883 150.694 120.88 150.855 121.402 150.305Z" fill="#3B4490"/>
<path d="M131.645 155.005C131.928 154.837 132.293 154.919 132.479 155.191C132.664 155.463 132.606 155.833 132.346 156.035C132.162 156.178 131.915 156.206 131.703 156.11C131.492 156.013 131.352 155.807 131.339 155.575C131.327 155.343 131.445 155.123 131.645 155.005Z" fill="#4F5598" fill-opacity="0.976471"/>
<path d="M227.962 84.5658C227.418 83.9326 226.935 82.7727 227.081 81.9377C227.705 80.9921 228.787 81.3586 229.727 81.7176L229.478 82.5615L229.423 82.7099C228.949 83.9629 227.777 84.3419 228.513 85.704C227.797 87.2261 226.898 88.3549 226.194 89.9554L225.878 89.6894C225.89 89.3307 225.897 89.3311 225.808 88.988C225.465 89.0054 225.174 89.0449 224.834 89.0888C224.781 88.4081 226.521 88.3995 227.07 87.4849C226.439 86.7045 225.536 87.2549 225.101 86.5237L225.366 86.2411C225.991 86.855 226.626 86.8861 227.338 86.4167L227.385 86.1285C226.951 85.8208 226.944 85.9292 226.32 85.9623C227.166 85.5254 226.939 85.481 227.735 85.6086L227.927 85.4469V85.3733L227.783 85.6694L227.945 85.7298L227.962 84.5658Z" fill="#3B438E" fill-opacity="0.988235"/>
<path d="M189.676 104.85C189.641 104.121 189.515 104.019 189.815 103.48C190.617 103.093 190.478 103.311 190.743 102.629C190.503 101.521 190.133 101.868 190.206 100.962L190.453 100.836C191.415 101.323 192.086 104.676 192.054 105.776C191.326 105.416 190.465 104.908 189.676 104.85Z" fill="#7372AB" fill-opacity="0.909804"/>
<path d="M184.424 100.973L184.515 100.856C185.683 99.3315 184.127 98.3676 185.658 97.8159L185.933 98.0255C185.958 98.8925 185.585 98.9205 185.574 99.4255C185.553 100.602 186.762 101.883 187.368 102.91L187.44 103.131C185.64 102.688 185.766 102.36 184.424 100.973Z" fill="#4F5598" fill-opacity="0.964706"/>
<path d="M229.478 82.5614C230.242 82.498 230.219 82.3679 230.721 82.7107C230.697 83.7192 229.277 84.6452 228.513 85.704C227.777 84.3418 228.949 83.9629 229.423 82.7098L229.478 82.5614Z" fill="#4F5598"/>
<path d="M190.578 40.2834C190.524 41.0948 190.53 41.6321 190.222 42.3965L189.963 42.4957C189.737 42.1914 189.684 42.1555 189.605 41.7947C189.291 41.2999 189.175 40.9096 188.978 40.3611C189.438 40.3442 190.148 40.3373 190.578 40.2834Z" fill="#4F5598" fill-opacity="0.988235"/>
<path d="M186.201 40.505L186.498 40.48C187.069 40.74 187.399 41.4988 187.515 42.0837C186.943 42.5294 187.097 42.5397 186.457 42.6147L186.155 42.3007C185.988 41.5624 186.077 41.2585 186.201 40.505Z" fill="#7372AB" fill-opacity="0.976471"/>
<path d="M226.32 85.9624C226.944 85.9293 226.951 85.8209 227.384 86.1286L227.338 86.4169C226.625 86.8863 225.991 86.8551 225.365 86.2413L226.32 85.9624Z" fill="#7372AB" fill-opacity="0.87451"/>
</svg>
