<svg width="281" height="246" viewBox="0 0 281 246" fill="none" xmlns="http://www.w3.org/2000/svg">
<path d="M194.295 11.1384C194.896 11.158 196.022 11.0738 196.369 11.3994C196.17 11.8767 195.949 12.2151 196.477 12.6358C200.558 14.7751 201.896 10.2378 205.921 11.5076C208.694 12.5251 209.534 10.4545 211.51 12.0586C211.486 12.5133 211.476 12.8931 211.482 13.3483C212.588 13.3387 213.747 11.5129 215.238 11.5478C216.494 11.5772 217.592 12.5179 218.662 12.832C219.745 13.1499 220.706 12.4271 222.088 12.9001C223.782 13.48 224.876 14.9627 226.373 15.647C227.897 16.3436 227.544 14.1587 228.987 15.5681C229.472 16.05 229.941 16.548 230.392 17.0615C235.823 18.2813 234.905 19.2965 239.055 22.9041C241.584 25.1039 244.417 26.9439 246.91 29.3726C246.92 29.7027 246.944 31.3635 247.136 31.559C249.673 34.1492 252.525 36.7262 254.468 39.8043C254.848 40.4057 254.965 42.2088 255.484 42.8582C256.726 44.4397 257.829 45.023 258.929 46.9098C260.589 49.7592 260.745 53.7951 262.331 56.3464C262.36 56.3925 262.804 56.8646 262.867 56.9311C262.636 57.7907 262.309 58.564 262.619 59.3724C263.148 59.7945 263.338 59.7967 263.996 59.9586C264.51 60.5765 264.399 60.2862 264.457 61.0461C262.787 63.7048 265.567 67.7792 267.229 69.8618C267.061 73.3024 266.343 75.4311 267.873 78.7872C267.969 78.9969 267.758 80.286 267.707 80.6132L267.023 81.0346C266.677 80.6802 266.533 80.5505 266.139 80.2495C265.725 80.2951 261.555 81.9196 261.243 82.1959C261.533 82.6852 262.449 83.0477 263.008 83.0511C263.626 82.5159 264.104 81.9907 264.901 81.849C265.62 82.1099 266.619 83.6541 266.708 84.2773C264.214 84.9766 264.976 85.5712 263.316 86.5787C262.98 86.6388 262.444 86.7127 262.151 86.8382L261.937 87.2655C263.861 87.8395 263.94 87.0589 265.317 88.2243V89.2268C265.367 90.7412 264.188 91.6534 264.397 92.1135C265.944 95.5217 263.563 95.1652 263.237 96.7963C263.578 98.7052 264.337 97.2331 265.182 99.0678L264.33 99.9189C263.133 100.551 262.422 101.592 261.646 102.701C264.368 103.419 265.632 102.262 267.083 104.34L267.035 104.874C266.518 105.015 266.758 105.044 266.29 104.788C265.146 104.839 263.542 104.721 262.804 105.7C263.393 106.422 264.219 106.245 265.06 106.14L265.564 106.354C265.838 107.587 264.034 107.895 263.491 108.724C262.876 108.974 262.374 109.164 261.798 109.504L261.697 109.942C262.903 111.561 262.84 110.667 263.667 112.876L264.147 113.413C264.109 114.026 263.998 114.111 263.595 114.587C263.227 115.855 263.364 115.616 263.861 116.912C264.174 117.723 263.669 118.938 264.104 119.577C264.202 120.491 264.303 121.405 264.411 122.319C265.444 123.119 266.597 123.217 267.078 124.087L267.025 124.43C265.502 124.984 263.277 124.803 262.324 125.323C262.521 125.843 264.75 126.786 265.406 127.077C265.795 127.246 266.189 127.4 266.588 127.539C264.933 128.477 261.87 132.516 260.659 134.219C261.937 133.55 262.871 132.942 264.315 132.833L264.697 132.983C264.154 134.499 261.233 135.616 260.882 136.711C261.834 137.163 263.686 135.979 264.957 136.555C264.892 137.766 264.121 138.342 263.095 138.851C262.247 139.383 261.168 139.997 260.471 140.687C259.84 141.005 259.215 141.251 258.799 141.822C259.102 142.107 259.402 142.397 259.698 142.691C259.679 142.996 259.686 143.369 259.583 143.637C259.309 144.428 259.016 145.236 258.792 146.041C258.694 148.612 256.832 148.505 257.07 150.34C257.899 150.815 257.913 150.64 258.184 151.356C255.989 151.803 256.351 151.931 254.927 154.048C252.099 158.246 249.392 163.091 244.688 165.404C243.155 166.158 239.055 168.135 237.883 169.031C236.118 170.112 234.972 170.808 233.381 172.108C230.304 174.431 228.41 176.452 225.581 178.85C222.776 177.724 214.022 178.231 210.336 178.236C208.173 179.617 206.686 178.442 204.123 178.721C201.869 178.966 199.634 179.341 197.377 179.533C192.142 179.979 186.891 180.622 181.784 181.89C180.62 182.179 179.071 183.333 177.809 183.598C173.511 184.544 169.92 184.791 166.476 187.784C166.095 188.115 163.639 187.622 163.08 188.133C160.861 189.244 158.861 190.646 156.73 191.942C154.01 193.595 149.152 194.517 146.637 196.088C143.655 197.952 140.358 199.927 137.418 201.811C132.131 205.2 127.622 209.158 121.594 211.256C119.278 212.118 115.269 218.585 113.918 220.462C112.217 222.742 104.2 227.654 101.32 228.527C100.338 228.825 98.0567 229.028 97.7773 229.164C95.6263 228.344 92.6469 229.234 90.3128 229.698L89.2456 230.223C87.2291 230.37 86.5464 229.858 85.0449 230.926C82.6118 232.144 81.7832 232.075 79.2017 232.722C77.9597 232.549 74.5601 232.246 73.1598 232.165C72.756 232.142 72.8309 232.916 71.592 233.083C70.9602 232.636 71.1433 232.616 70.946 231.603C71.3811 230.662 71.1058 229.001 71.0157 227.901C70.54 227.813 70.7096 227.824 70.1722 228.176C69.4357 229.539 70.3241 231.314 69.7079 233.106C69.3341 233.184 68.9912 233.201 68.7114 233.41C68.0344 233.57 67.5042 233.727 66.8041 233.746C66.8894 233.226 66.7328 232.788 66.9425 232.256C67.3319 231.269 67.4386 230.881 66.6701 230.077C65.7152 229.813 64.4494 230.166 63.4413 230.358C61.0316 231.207 61.1248 231.637 59.6543 232.291C59.1676 232.301 58.6768 232.257 58.1903 232.224C56.5742 231.117 58.0346 230.163 57.183 229.048L56.569 229.155C55.6371 229.073 55.6897 229.22 55.0411 228.729C54.9625 227.395 55.6083 227.812 55.5621 226.792C53.8522 226.564 52.5542 228.73 49.1303 227.721C47.3108 227.68 42.5494 223.915 40.8091 222.887C39.9068 222.353 39.0506 221.289 38.1367 220.608L37.9643 220.48C37.644 219.858 37.1592 219.404 36.6944 218.851C37.6339 215.252 34.083 216.771 32.781 215.065C33.0193 214.021 33.4404 212.878 33.7883 211.853C34.4835 211.063 34.9174 210.662 35.2849 209.682L35.1319 209.392C34.4155 209.415 34.097 209.714 33.5154 210.115L32.8569 210.778C32.4492 211.447 32.621 211.694 31.9413 212.248L31.5562 212.106C31.181 211.277 31.5041 210.482 31.1397 209.388C30.1559 208.44 27.8513 208.9 26.8911 209.783L26.7926 209.617C27.1246 209.081 27.2635 208.846 27.5025 208.264C27.3224 208.125 27.1938 208.017 27.0245 207.864C27.5537 207.761 28.0183 207.762 28.555 207.74L28.7931 207.454C28.2965 206.105 27.798 207.131 26.8943 205.921C27.252 205.4 27.4067 205.17 27.6714 204.598C26.6026 203.105 25.2467 204.941 23.7676 203.822C21.6651 202.232 23.2404 199.613 22.8516 197.306C22.505 195.25 20.7062 196.852 19.0782 195.689C19.0639 194.992 19.0305 194.425 18.9713 193.732C18.0194 192.704 17.0285 193.917 16.6164 192.676C17.3898 191.757 17.451 192.853 18.7472 192.117L19.1018 192.281C19.9409 192.137 19.77 191.307 19.998 191.3C20.6661 191.28 21.2864 191.717 22.1423 191.358L21.8122 190.998C20.555 190.587 19.5843 190.39 18.2437 190.485L17.8309 189.915L18.0099 189.319C19.1967 189.146 19.5546 188.165 19.4866 187.079C18.3687 185.259 16.1413 186.92 14.3845 185.473C14.4404 185.299 14.6128 185.01 14.7065 184.836C15.4846 184.41 16.2523 184.531 17.1464 184.566L17.384 184.755L18.1399 184.645C19.1549 183.862 20.5025 183.03 20.7422 181.799L20.2836 181.384C18.4923 181.365 17.8551 179.907 16.2721 180.404C15.9181 181.65 18.0779 182.496 18.1323 183.278C17.4559 183.12 16.9307 183.177 16.2399 183.201C15.6978 182.957 13.791 181.359 13.1748 180.865C12.2098 179.835 12.3047 178.865 11.5452 177.357C11.5256 176.511 11.4739 176.086 11.7367 175.277C12.9104 173.847 14.0769 174.709 15.7816 174.361L16.0643 173.894C15.8311 173.2 15.4801 173.086 14.8482 172.545L14.5895 169.248C14.4635 167.626 17.3572 165.431 14.7125 165.023C13.6853 164.864 12.633 164.369 11.6986 163.92L11.625 163.674C12.8267 163.957 13.8882 162.964 14.3314 161.928C14.3037 161.119 14.4143 161.43 13.8735 160.765C12.5091 160.098 11.0645 161.093 10.2473 160.31C10.1735 158.711 11.4071 157.773 12.2707 156.529C12.6059 155.528 11.8145 154.923 11.823 154.352C11.8525 152.359 17.8132 149.407 17.3605 147.435C16.4527 146.911 15.0675 147.161 14.0943 147.395C13.3812 148.187 12.9938 148.662 12.4956 149.598L12.0384 149.855L11.8669 149.467C12.2616 148.096 12.5937 146.611 13.4462 145.482C15.8808 145.454 23.3542 139.388 24.4549 137.456C25.5268 137.007 25.9602 134.381 26.5723 134.103C27.9097 133.497 29.349 133.126 30.7885 132.314L30.979 131.619C31.5216 131.026 34.3997 129.737 35.2429 129.34L35.4689 129.352C36.9815 129.415 37.6779 128.771 38.1627 128.83C40.714 129.144 43.7904 130.033 45.9247 131.381L46.3876 132.22C47.9791 132.978 51.531 132.255 53.3779 132.006C51.6456 131.753 49.5311 131.216 47.9152 130.545C47.385 130.363 46.9514 130.431 46.2617 130.169C45.6525 129.476 45.7197 129.752 45.725 129.055C45.8903 128.979 52.7007 128.595 53.5742 128.187C54.0885 127.947 55.8865 129.978 56.5228 130.018C57.208 129.611 57.3454 129.544 57.8355 128.883C60.5081 126.868 69.6322 127.556 73.1701 126.613C75.7291 125.931 78.0517 124.881 80.5931 124.263C80.8134 124.21 81.7566 124.519 82.0273 124.56C83.3457 124.906 83.1845 123.574 84.3922 123.738C84.6182 124.344 84.6569 124.517 85.0831 124.997C87.7591 125.358 91.3169 120.957 92.7836 120.594C97.3821 119.457 96.0685 118.835 99.451 116.19C101.18 114.838 105.767 113.92 107.727 111.672C110.721 108.238 113.673 104.827 116.655 101.413C117.198 101.078 117.373 101.34 118.035 100.597C118.57 100.042 119.246 99.5321 119.85 99.0459C120.519 98.8804 120.664 98.8732 121.111 98.362L120.883 98.1112L120.114 98.2344C118.48 98.0285 118.84 98.57 117.575 98.4866L117.28 97.6831C117.775 97.0558 118.217 96.7202 118.306 95.8976C119.427 85.3552 124.149 75.6495 127.665 65.8042C130.036 59.1617 133.884 59.21 137.851 54.5809C138.283 54.1756 138.178 54.4137 138.231 53.8717C137.607 53.5397 137.323 53.4552 137.035 52.7909C137.18 52.1089 137.806 51.7346 138.382 51.253C138.741 51.1374 139.321 50.4732 139.621 50.1707C140.459 50.6034 140.574 50.6632 141.058 51.4766L141.436 51.3791L141.522 51.1578C142.793 50.3802 143.716 49.5603 144.852 48.6073C145.738 48.6976 146.559 48.4775 147.106 47.7374C147.787 47.0969 148.597 46.4687 149.33 45.8753L149.633 45.7893C149.482 45.0499 148.725 45.7859 147.332 44.849L147.365 44.4108C147.855 43.9285 148.359 43.7569 148.986 43.4706C149.945 42.8834 151.824 41.0317 151.578 39.8771C150.777 39.9574 150.713 40.2139 149.962 40.803C149.212 39.727 150.322 40.0909 150.315 37.6929C151.701 37.2804 155.698 33.4602 157.992 32.187L158.245 32.3958C158.401 32.8969 158.396 33.0064 158.758 33.3589C159.804 33.3031 160.726 32.2663 161.594 31.5215C162.51 29.9062 162.713 28.7262 163.458 27.3011C165.103 24.1576 168.599 19.857 171.772 18.1609C172.65 17.6911 172.945 18.4364 173.885 17.806C175.584 16.666 176.714 15.3989 178.731 14.7401L178.886 14.6906C180.205 14.2601 180.797 15.1213 181.756 14.9241C186.033 14.045 190.008 11.9898 194.295 11.1384ZM143.319 57.1272C144.623 56.8069 146.212 54.9478 146.026 53.4734C145.333 52.6583 144.243 52.4899 143.191 52.6146C142.412 53.0129 142.037 53.1378 141.562 53.8732L141.5 54.4377C141.91 54.9052 141.967 54.9535 142.556 55.15C142.499 55.7023 141.647 56.3644 141.322 57.353L141.481 57.9271C142.386 58.2671 142.782 57.7772 143.319 57.1272ZM258.73 70.4145C259.436 69.5672 260.671 68.2346 261.036 67.2624C260.743 66.9864 260.916 67.0493 260.548 66.995C259.633 67.3278 259.023 67.4397 258.528 68.2644C258.307 69.1266 258.302 69.6179 258.73 70.4145ZM138.01 57.7698C139.068 57.1296 139.993 56.7144 140.172 55.4013L139.809 54.9648C139.064 55.7043 137.791 56.4874 137.499 57.0743C137.675 57.6617 137.506 57.44 138.01 57.7698ZM261.274 95.2187C262.148 94.885 262.487 94.8002 263.167 94.1509L263.222 93.7718C263.04 93.6584 262.811 93.4907 262.619 93.4393C261.901 93.7516 261.187 94.0704 260.476 94.3957L260.423 94.7765L261.274 95.2187ZM119.078 113.138L118.837 113.738C119.305 113.963 119.759 113.819 120.299 113.74L120.747 113.25C120.176 112.964 119.798 113.103 119.078 113.138ZM203.89 13.5751L203.741 14.0573C204.181 14.4945 204.471 14.4361 205.201 14.4281C205.449 14.4231 205.697 14.4129 205.944 14.3977L206.147 13.6995C205.567 13.2181 204.646 13.467 203.89 13.5751ZM27.067 183.201C26.7011 183.47 26.604 183.975 26.844 184.36C27.084 184.745 27.5801 184.881 27.9828 184.671C28.272 184.52 28.4522 184.22 28.4495 183.894C28.4471 183.568 28.2619 183.27 27.9703 183.124C27.6789 182.978 27.3298 183.008 27.067 183.201ZM32.1246 150.045C32.9633 149.523 33.5833 149.247 33.542 148.145C33.3791 147.916 33.4253 147.882 33.2446 147.833C32.6186 149.133 32.0348 148.888 32.1246 150.045ZM30.5845 143.302C30.1948 144.266 30.1526 144.003 30.2753 144.95C30.8303 145.706 31.655 145.702 32.5042 145.658C32.9028 144.673 32.9289 144.987 32.7658 144.025C32.2546 143.427 31.3427 143.324 30.5845 143.302ZM120.975 103.997C120.285 104.289 119.391 104.564 118.974 105.126L119.257 105.584C120.027 105.282 120.768 105.089 121.264 104.443C121.128 104.063 121.253 104.181 120.975 103.997ZM33.6765 203.022C34.2759 202.331 34.73 201.813 35.2467 201.058C35.1365 200.657 35.2455 200.764 34.999 200.541C34.2437 201.032 33.8373 201.218 33.432 202.022C33.4551 202.686 33.3481 202.587 33.6765 203.022Z" fill="#FECB9E"/>
<path d="M47.2903 161.547L47.5627 161.1C48.8194 161.693 47.8861 162.208 48.9722 162.422C49.9944 161.94 51.1141 160.948 51.7234 161.025C52.3223 161.963 52.6677 164.445 52.6247 165.555C50.773 168.024 50.3055 165.342 48.5297 167.019C48.0413 167.585 48.2443 167.397 47.4051 167.689C46.1631 166.905 47.4433 164.863 47.0068 163.929C47.6089 163.413 47.9711 163.201 48.1434 162.413C47.8436 161.741 48.0307 161.979 47.2903 161.547Z" fill="#FED0AB"/>
<path d="M48.488 163.325C48.9608 163.981 49.166 164.242 49.7358 164.821C51.0934 165.25 50.8029 165.038 52.2225 164.96L52.6246 165.555C50.7729 168.024 50.3054 165.342 48.5296 167.019C47.9621 167.112 47.9237 167.077 47.3608 166.895L47.1201 166.382C47.2208 165.41 47.9946 164.217 48.488 163.325Z" fill="#FED6B7"/>
<path d="M143.192 52.6148C144.244 52.4901 145.334 52.6585 146.027 53.4736C146.212 54.9479 144.624 56.8071 143.32 57.1273C142.782 57.7774 142.386 58.2673 141.481 57.9273L141.323 57.3532C141.648 56.3646 142.499 55.7025 142.557 55.1502C141.968 54.9537 141.911 54.9054 141.501 54.4379L141.562 53.8734C142.038 53.138 142.412 53.0131 143.192 52.6148Z" fill="#FED0AB" fill-opacity="0.909804"/>
<path d="M37.351 152.803C37.7551 152.722 37.8151 152.789 38.2007 152.937C38.8496 154.058 39.8591 154.972 40.7181 156.042C40.6437 156.958 40.7895 156.734 40.3239 157.288C38.6713 157.467 38.0575 155.868 37.7195 154.653C36.2832 155.059 35.6641 157.207 34.3834 157.094C33.9567 155.285 36.1008 153.918 37.351 152.803Z" fill="#FED0AB"/>
<path d="M42.1972 155.926C41.5817 154.751 41.8928 153.72 43.1192 153.211L43.7198 153.472C44.1385 154.209 44.0614 153.877 44.0054 154.729C44.1467 155.848 44.3434 157.303 44.372 158.411C44.5085 159.183 44.4645 159.483 44.1428 160.083C42.7593 160.282 41.5428 159.03 42.196 157.593L42.4708 157.207C42.5294 156.335 42.6077 156.672 42.1972 155.926Z" fill="#FED0AB"/>
<path d="M42.1957 157.593C42.803 157.818 43.8156 158.158 44.3717 158.411C44.5082 159.183 44.4642 159.483 44.1425 160.083C42.759 160.282 41.5425 159.03 42.1957 157.593Z" fill="#FED6B7"/>
<path d="M42.1972 155.926C41.5817 154.751 41.8928 153.72 43.1192 153.211L43.7198 153.472C44.1385 154.209 44.0614 153.877 44.0054 154.729C43.3131 155.309 43.0404 155.584 42.1972 155.926Z" fill="#FED6B7"/>
<path d="M31.9077 150.02C32.1352 150.131 32.5866 150.496 32.8127 150.668C33.3554 151.902 32.4504 153.022 32.8917 153.602C34.3699 155.549 34.9018 155.758 32.412 158.279C31.7045 158.069 31.3391 157.946 30.6513 157.647L30.5581 157.069C30.9045 156.447 30.8851 156.393 31.5582 156.202C33.1622 155.748 31.878 153.826 31.6942 152.573C31.4753 151.078 31.3223 151.5 31.9077 150.02Z" fill="#FED6B7"/>
<path d="M47.2902 161.547C48.0306 161.979 47.8434 161.741 48.1432 162.413C47.971 163.201 47.6087 163.413 47.0067 163.929C45.1663 166.044 44.6301 168.044 41.8027 165.6C41.9183 164.981 42.3534 164.594 42.7783 164.097C43.1754 164.717 43.4241 165.091 44.1234 165.32C45.9634 164.745 44.9424 163.362 47.197 161.618L47.2902 161.547Z" fill="#FED6B7"/>
<path d="M48.805 167.829L49.3676 167.614C50.4883 167.956 50.7389 168.087 50.9794 169.255C50.706 169.979 50.9059 169.765 50.2553 170.081C49.3393 170.118 49.1534 169.922 48.3957 169.41C47.2115 169.783 46.7001 170.088 45.6339 169.284L45.6118 168.79C45.8751 168.465 46.3914 168.205 46.7649 167.982C47.6041 168.033 47.9897 168.046 48.805 167.829Z" fill="#FED6B7"/>
<path d="M163.087 52.3856L163.116 51.7461C163.715 51.2412 165.508 50.4952 166.386 50.4119L166.764 50.6276C166.543 51.639 165.452 52.2067 164.602 52.7527L164.475 52.8337C164.295 53.1308 163.934 53.2654 163.604 53.1587C163.273 53.052 163.059 52.732 163.087 52.3856Z" fill="#FED0AB"/>
<path d="M163.087 52.3856C163.111 52.0769 163.324 51.815 163.62 51.7266C163.917 51.6384 164.238 51.742 164.427 51.987C164.617 52.2323 164.636 52.5686 164.475 52.8336C164.295 53.1308 163.934 53.2653 163.604 53.1586C163.273 53.052 163.059 52.732 163.087 52.3856Z" fill="#FED6B7"/>
<path d="M37.3958 170.113L38.1845 170.296C39.2408 171.453 38.8141 172.791 37.8923 173.851C35.8511 173.001 36.4139 171.575 37.3958 170.113Z" fill="#FED6B7"/>
<path d="M30.5847 143.302C31.3429 143.324 32.2548 143.427 32.766 144.025C32.9292 144.987 32.903 144.673 32.5044 145.658C31.6552 145.702 30.8305 145.707 30.2755 144.95C30.1528 144.003 30.1951 144.266 30.5847 143.302Z" fill="#FED0AB" fill-opacity="0.92549"/>
<path d="M158.597 60.6362C159.328 60.727 160.511 61.0977 160.883 61.774C161.145 62.5908 160.763 63.4148 160.492 64.2573L160.424 64.4759L160.057 64.5338C159.526 63.3057 159.054 61.9042 158.597 60.6362Z" fill="#FED6B7"/>
<path d="M187.586 35.7718C189.563 35.5623 191.099 36.5821 192.148 38.1905C190.09 38.5415 189.003 37.0775 187.586 35.7718Z" fill="#FED0AB"/>
<path d="M151.938 64.762C152.911 65.5675 152.065 66.0989 152.42 67.9114L152.458 68.0967L152.154 68.5473C150.272 67.6563 150.159 65.9696 151.938 64.762Z" fill="#FED6B7"/>
<path d="M260.548 66.9951C260.916 67.0494 260.743 66.9865 261.036 67.2625C260.671 68.2347 259.436 69.5673 258.73 70.4146C258.302 69.618 258.307 69.1267 258.528 68.2645C259.023 67.4398 259.633 67.3278 260.548 66.9951Z" fill="#FED0AB" fill-opacity="0.882353"/>
<path d="M49.4918 153.831C50.9226 154.866 50.1005 156.33 49.3142 157.467C49.0911 157.259 48.8083 156.94 48.5923 156.71C48.447 155.982 49.1689 154.705 49.4918 153.831Z" fill="#FED6B7"/>
<path d="M172.34 41.7278C172.858 42.2659 172.796 42.5994 172.756 43.2624C172.117 44.2356 172.451 43.9427 171.421 44.4621C171.011 43.7722 170.847 43.592 170.965 42.7726C171.326 42.1271 171.682 42.0334 172.34 41.7278Z" fill="#FED0AB"/>
<path d="M139.809 54.9648L140.173 55.4013C139.994 56.7145 139.068 57.1296 138.01 57.7698C137.506 57.44 137.675 57.6617 137.5 57.0743C137.791 56.4875 139.064 55.7043 139.809 54.9648Z" fill="#FED0AB" fill-opacity="0.823529"/>
<path d="M165.991 117.64C166.119 117.663 166.327 117.784 166.457 117.848C166.554 118.893 165.493 119.932 164.853 120.691C164.325 120.272 164.485 120.5 164.302 119.759C164.523 118.953 165.373 118.252 165.991 117.64Z" fill="#FED0AB"/>
<path d="M33.6735 161.309C34.4259 161.704 34.6717 161.822 35.3343 162.374C35.6684 163.204 35.6019 162.899 35.3299 163.877C34.1807 163.612 34.5569 163.828 33.7211 163.064C33.4023 162.273 33.4756 162.103 33.6735 161.309Z" fill="#FED6B7"/>
<path d="M175.539 38.3298C176.099 38.3887 175.845 38.2921 176.308 38.6755C176.394 39.4882 175.848 40.1438 175.4 40.8689C174.797 40.6587 174.727 40.6248 174.373 40.097C174.562 39.156 174.797 39.1603 175.539 38.3298Z" fill="#FED6B7"/>
<path d="M148.6 81.3618C149.17 81.4887 148.932 81.3527 149.33 81.7978C149.225 82.538 148.554 83.0694 148.012 83.6181L147.332 83.282L147.178 82.7549C147.439 82.1053 148.029 81.7729 148.6 81.3618Z" fill="#FED6B7"/>
<path d="M262.619 93.4395C262.811 93.4909 263.039 93.6585 263.222 93.7719L263.167 94.151C262.487 94.8004 262.148 94.8852 261.274 95.2189L260.423 94.7766L260.476 94.3958C261.187 94.0706 261.901 93.7518 262.619 93.4395Z" fill="#FED0AB" fill-opacity="0.513725"/>
<path d="M52.3674 156.685C52.9229 156.78 52.9836 156.766 53.4298 157.085C53.5081 157.995 53.1982 158.124 52.6281 159.089C52.0691 158.949 52.2625 159.025 51.818 158.558C51.69 157.783 51.9989 157.369 52.3674 156.685Z" fill="#FED6B7"/>
<path d="M57.2969 163.484C57.6839 163.201 58.2237 163.26 58.5406 163.62C58.8577 163.981 58.8471 164.524 58.5163 164.871C58.2744 165.126 57.9097 165.222 57.5739 165.119C57.2383 165.017 56.9892 164.733 56.9305 164.388C56.8719 164.041 57.0137 163.692 57.2969 163.484Z" fill="#FED0AB"/>
<path d="M40.2033 178.431C40.4746 178.223 40.84 178.184 41.1487 178.332C41.4576 178.479 41.6575 178.787 41.6661 179.129C41.6748 179.471 41.4907 179.789 41.1897 179.952C40.7727 180.178 40.2521 180.045 39.9941 179.647C39.7361 179.249 39.8271 178.72 40.2033 178.431Z" fill="#FED0AB"/>
<path d="M53.9239 160.908C54.2504 160.637 54.7248 160.639 55.0491 160.913C55.3735 161.187 55.4542 161.654 55.2406 162.022C55.0648 162.324 54.7263 162.492 54.3791 162.451C54.032 162.409 53.7432 162.164 53.6443 161.829C53.5453 161.494 53.6553 161.132 53.9239 160.908Z" fill="#FED6B7"/>
<path d="M27.0673 183.201C27.3301 183.008 27.6791 182.978 27.9705 183.124C28.2622 183.27 28.4474 183.568 28.4498 183.894C28.4524 184.22 28.2723 184.52 27.983 184.671C27.5804 184.881 27.0843 184.745 26.8443 184.36C26.6043 183.975 26.7014 183.47 27.0673 183.201Z" fill="#FED6B7" fill-opacity="0.941176"/>
<path d="M168.358 53.2129C168.948 53.4995 168.745 53.3561 169.136 53.9278C169.197 54.6788 168.846 55.1523 168.48 55.8048C168.286 55.6047 168.01 55.2431 167.825 55.0146C167.779 54.0018 167.842 54.2272 168.358 53.2129Z" fill="#FED6B7"/>
<path d="M102.756 140.657C103.342 140.824 103.414 140.882 103.901 141.253C103.897 142.023 103.876 141.814 103.273 142.543C102.613 142.343 102.483 142.35 102.007 141.887C102.041 141.155 102.094 141.327 102.756 140.657Z" fill="#FED6B7"/>
<path d="M213.534 148.438C213.714 148.639 213.715 148.78 213.796 149.057C213.505 149.738 212.669 150.128 212.012 150.531C211.779 150.26 211.802 150.168 211.741 149.814C212.095 149.124 212.822 148.841 213.534 148.438Z" fill="#FED0AB"/>
<path d="M203.89 13.5753C204.646 13.4672 205.567 13.2183 206.147 13.6996L205.944 14.3978C205.697 14.4131 205.449 14.4233 205.201 14.4283C204.471 14.4363 204.182 14.4947 203.742 14.0575L203.89 13.5753Z" fill="#FED0AB" fill-opacity="0.501961"/>
<path d="M34.9992 200.541C35.2457 200.764 35.1366 200.658 35.2469 201.058C34.7301 201.814 34.2761 202.331 33.6767 203.022C33.3483 202.587 33.4552 202.686 33.4321 202.023C33.8374 201.218 34.2439 201.033 34.9992 200.541Z" fill="#FED6B7" fill-opacity="0.611765"/>
<path d="M56.5992 167.356L57.0597 167.769C57.035 168.782 56.8555 168.728 56.241 169.724C55.981 169.429 55.8239 169.123 55.626 168.784C55.8278 167.903 55.8568 168.095 56.5992 167.356Z" fill="#FED0AB"/>
<path d="M120.975 103.997C121.253 104.181 121.128 104.063 121.264 104.443C120.767 105.089 120.027 105.282 119.257 105.585L118.974 105.126C119.391 104.564 120.285 104.289 120.975 103.997Z" fill="#FED0AB" fill-opacity="0.352941"/>
<path d="M33.2449 147.833C33.4255 147.882 33.3794 147.916 33.5423 148.145C33.5836 149.247 32.9636 149.524 32.1249 150.045C32.0351 148.888 32.6188 149.133 33.2449 147.833Z" fill="#FED0AB" fill-opacity="0.901961"/>
<path d="M119.079 113.138C119.798 113.103 120.176 112.964 120.747 113.25L120.299 113.74C119.759 113.819 119.306 113.963 118.837 113.739L119.079 113.138Z" fill="#FECB9E" fill-opacity="0.882353"/>
<path d="M12.4958 149.598C12.994 148.662 13.3813 148.187 14.0944 147.395C15.0676 147.162 16.4529 146.912 17.3606 147.435C17.8133 149.407 11.8527 152.359 11.8231 154.352C11.8146 154.924 12.606 155.528 12.2708 156.529C11.4073 157.773 10.1736 158.712 10.2475 160.311C11.0646 161.093 12.5092 160.098 13.8736 160.765C14.4145 161.43 14.3039 161.119 14.3315 161.928C13.8883 162.964 12.8269 163.958 11.6251 163.674L11.6988 163.921C12.6331 164.369 13.6855 164.864 14.7126 165.023C17.3574 165.431 14.4637 167.626 14.5897 169.248L14.8483 172.545C15.4803 173.086 15.8313 173.2 16.0644 173.894L15.7818 174.361C14.077 174.71 12.9105 173.848 11.7369 175.277C11.474 176.086 11.5258 176.512 11.5453 177.357C10.6411 174.585 12.117 174.664 11.8637 172.987C11.4021 172.862 11.3248 172.878 10.8347 172.888L10.6923 172.892L10.4045 172.513C10.3608 171.481 10.5571 170.371 10.7002 169.339C10.3469 168.992 10.3552 169.016 10.1831 168.555C10.4874 168.301 10.7991 168.056 11.1176 167.821C11.016 166.438 9.15715 166.07 8.98848 165.35C8.1559 161.797 9.33944 158.405 10.5703 155.11C10.7897 154.523 10.6055 153.869 10.9603 152.855C12.0613 151.513 10.8821 151.352 13.1992 151.073C14.1072 150.532 15.0056 149.938 15.3282 148.895L15.0239 148.554C14.1268 148.468 13.2908 149.116 12.4958 149.598Z" fill="#FED0AB" fill-opacity="0.811765"/>
<path d="M18.2443 190.485C19.5849 190.39 20.5556 190.587 21.8128 190.998L22.1429 191.358C21.287 191.717 20.6667 191.28 19.9986 191.3C19.7706 191.307 19.9415 192.137 19.1024 192.281L18.7478 192.117C17.4516 192.853 17.3904 191.757 16.617 192.676C17.0291 193.917 18.02 192.704 18.972 193.732C19.0311 194.425 19.0645 194.992 19.0788 195.689C20.7068 196.852 22.5056 195.25 22.8522 197.306C23.241 199.613 21.6657 202.232 23.7682 203.822C25.2473 204.941 26.6032 203.105 27.672 204.598C27.4073 205.17 27.2526 205.4 26.8949 205.921C27.7986 207.131 28.2971 206.105 28.7937 207.454L28.5556 207.74C28.0189 207.762 27.5543 207.761 27.0251 207.864C27.1944 208.017 27.323 208.125 27.5031 208.264C27.2641 208.846 27.1252 209.081 26.7932 209.617L26.8917 209.783C27.852 208.9 30.1565 208.44 31.1403 209.388C31.5047 210.482 31.1816 211.277 31.5568 212.106L31.9419 212.248C32.6216 211.694 32.4498 211.447 32.8575 210.778C32.7616 211.762 32.7559 212.662 32.2305 213.5C30.9332 214.479 30.5385 214.101 29.1153 213.631C29.0606 213.578 28.3528 213.141 28.2426 213.071L27.6578 212.314C27.4693 210.116 26.9158 211.509 25.8441 210.751C25.5361 209.782 25.8803 206.744 25.9692 205.56C25.2065 204.256 22.9334 207.178 21.4189 202.229C17.8619 200.489 19.8943 200.421 20.3355 197.955C20.4781 197.159 18.8212 197.531 18.2596 196.839C17.4279 195.815 18.2295 195.549 18.1605 194.359L17.659 194.007C17.2485 194.164 17.1244 194.231 16.745 194.455C16.1184 193.913 16.2887 194.008 15.9957 193.127C15.8429 192.654 15.835 192.562 15.7891 192.064C16.8691 191.216 17.5083 192.134 18.4039 191.089L18.2443 190.485Z" fill="#FECB9E" fill-opacity="0.823529"/>
<path d="M148.672 40.7955C149.009 39.1722 148.977 38.5875 150.315 37.6931C150.322 40.0911 149.213 39.7272 149.962 40.8032C149.543 41.354 148.665 42.3813 148.528 42.984L148.987 43.4708C148.359 43.7571 147.856 43.9286 147.366 44.411L147.332 44.8492C148.725 45.7861 149.482 45.0501 149.633 45.7895L149.33 45.8755C148.366 45.5418 147.285 45.4844 146.911 46.6289C146.803 46.9606 146.842 47.3234 147.019 47.6242C147.048 47.6619 147.077 47.6998 147.106 47.7376C146.559 48.4777 145.738 48.6978 144.852 48.6074C143.401 48.4571 142.169 49.1602 141.451 50.4344C141.458 50.7362 141.436 50.8697 141.522 51.158L141.436 51.3793L141.058 51.4768C140.574 50.6634 140.459 50.6036 139.621 50.1709C142.069 46.7699 143.601 46.8254 144.882 42.9821C146.157 42.2749 147.421 41.5458 148.672 40.7955Z" fill="#FED6B7" fill-opacity="0.937255"/>
<path d="M15.9949 193.127C16.2879 194.009 16.1176 193.913 16.7442 194.455C17.1237 194.231 17.2477 194.165 17.6582 194.007L18.1597 194.359C18.2288 195.549 17.4272 195.815 18.2588 196.84C18.8204 197.531 20.4773 197.159 20.3347 197.956C19.8935 200.421 17.8611 200.49 21.4181 202.229C22.9326 207.178 25.2057 204.257 25.9685 205.561C25.8796 206.744 25.5353 209.783 25.8433 210.752C26.915 211.509 27.4685 210.117 27.6571 212.314L28.2418 213.071C25.1543 211.295 26.1568 211.666 24.0855 208.753C23.8735 208.455 21.9113 207.154 21.4498 206.849C21.2899 206.083 19.926 202.01 19.5224 201.525C17.825 199.486 17.5039 198.98 16.891 196.284C16.5927 194.972 15.8822 195.053 15.9949 193.127Z" fill="#FECB9E" fill-opacity="0.309804"/>
<path d="M14.8048 144.471C19.3416 139.831 20.2819 132.975 27.998 132.645C22.9069 134.603 22.2122 134.365 19.4772 139.719C21.4336 139 23.5146 137.142 24.1797 137.139L24.4553 137.456C23.3546 139.388 15.8811 145.454 13.4466 145.482C12.594 146.611 12.262 148.096 11.8673 149.467L12.0388 149.855L12.496 149.598L12.6675 150.731L13.1994 151.073C10.8823 151.352 12.0615 151.513 10.9604 152.855C11.3595 150.785 11.4816 148.619 12.2209 146.519C12.2264 146.503 12.1606 145.194 12.175 144.961C12.8396 144.485 13.952 144.523 14.8048 144.471Z" fill="#FED0AB" fill-opacity="0.482353"/>
<path d="M43.2754 129.276C47.0247 126.984 51.3703 126.802 55.611 127.893C56.1815 128.04 57.0836 128.625 57.8358 128.883C57.3457 129.544 57.2083 129.611 56.5231 130.018C55.8867 129.978 54.0888 127.947 53.5745 128.187C52.701 128.596 45.8906 128.979 45.7253 129.055C45.72 129.752 45.6528 129.476 46.262 130.169C46.9517 130.431 47.3853 130.363 47.9155 130.545C46.7499 130.918 46.4631 130.797 46.3879 132.22L45.9249 131.381C43.7907 130.034 40.7143 129.144 38.163 128.83C37.6782 128.771 36.9817 129.415 35.4692 129.352L35.2432 129.341C36.3326 128.787 37.2064 128.423 38.3275 127.969C40.3357 128.312 41.3281 128.629 43.2754 129.276Z" fill="#FECB9E" fill-opacity="0.729412"/>
<path d="M69.5596 236.119L69.9901 235.816C70.108 234.658 70.724 233.563 70.3004 232.345C70.2149 232.099 70.3615 231.904 70.4585 231.65L70.9464 231.604C71.1437 232.616 70.9606 232.636 71.5924 233.083C72.8313 232.916 72.7564 232.142 73.1602 232.165C74.5605 232.246 77.9601 232.549 79.2021 232.723C78.1506 232.887 77.9087 232.899 77.1135 233.578L77.0191 234.017C77.5339 234.477 78.392 234.905 78.453 235.299C77.7146 235.763 77.6139 235.795 76.7433 235.849C74.8231 234.959 75.7598 233.782 74.5879 233.597C74.0731 233.88 73.8062 233.961 73.5174 234.458C73.8127 235.005 73.9965 235.13 74.4476 235.55L74.3871 236.04C73.4756 236.672 70.4026 236.726 69.5596 236.119Z" fill="#FECB9E" fill-opacity="0.164706"/>
<path d="M27.9979 132.645L30.9792 131.619L30.7887 132.314C29.3492 133.126 27.9099 133.497 26.5726 134.103C25.9604 134.381 25.5271 137.007 24.4551 137.456L24.1796 137.139C23.5145 137.142 21.4335 139 19.4771 139.719C22.212 134.365 22.9068 134.603 27.9979 132.645Z" fill="#FED6B7" fill-opacity="0.894118"/>
<path d="M14.3851 185.473C16.1419 186.92 18.3693 185.259 19.4872 187.079C19.5551 188.165 19.1972 189.146 18.0105 189.319C18.1106 189.017 18.0704 188.86 18.0488 188.541C17.151 188.41 16.3921 189.994 14.9844 190.169C14.3774 189.535 14.1469 188.064 13.9243 187.149L14.3851 185.473Z" fill="#FECB9E" fill-opacity="0.956863"/>
<path d="M264.33 99.9189C265.747 99.2342 265.795 99.6613 266.696 100.642L267.138 100.579L267.912 99.4482C267.482 101.681 267.453 105.116 267.131 106.254C267.064 106.133 266.651 105.744 266.523 105.619L266.29 104.787C266.759 105.044 266.518 105.015 267.035 104.874L267.083 104.34C265.632 102.262 264.368 103.419 261.646 102.701C262.422 101.592 263.134 100.551 264.33 99.9189Z" fill="#FECB9E" fill-opacity="0.439216"/>
<path d="M63.4415 230.358C64.4496 230.166 65.7154 229.813 66.6703 230.078C67.4388 230.881 67.3321 231.269 66.9427 232.256C66.733 232.788 66.8896 233.226 66.8043 233.746C66.0137 234.017 66.542 234.528 64.9997 234.465C63.4752 234.404 62.5971 233.967 61.5425 232.914C61.7904 232.648 62.07 232.478 62.3691 232.271C63.1927 232.357 64.2132 232.462 64.7443 231.754C64.3993 230.803 64.3599 230.884 63.4415 230.358Z" fill="#FECB9E" fill-opacity="0.972549"/>
<path d="M265.317 89.2268L265.421 89.6736L265.992 90.489C265.841 91.2443 265.553 91.4929 265.394 92.4486C265.644 93.1191 265.721 93.4117 266.184 93.9832L266.492 94.0836C267.145 95.379 266.564 97.9127 265.517 98.9467L265.183 99.0678C264.337 97.2331 263.578 98.7053 263.237 96.7964C263.564 95.1652 265.944 95.5217 264.397 92.1135C264.188 91.6534 265.368 90.7412 265.317 89.2268Z" fill="#FECB9E" fill-opacity="0.843137"/>
<path d="M260.471 140.687C260.933 141.287 260.683 141.098 261.516 141.337C262.045 140.951 262.566 140.558 263.083 140.158L263.558 140.234C263.657 140.652 263.69 140.725 263.662 141.172C262.881 142.676 262.139 143.973 261.68 145.611C259.695 145.668 261.017 144.837 259.582 143.637C259.686 143.369 259.679 142.996 259.698 142.691C259.402 142.397 259.102 142.107 258.799 141.822C259.215 141.251 259.84 141.005 260.471 140.687Z" fill="#FECB9E" fill-opacity="0.258824"/>
<path d="M13.1748 180.865C13.791 181.359 15.6978 182.957 16.2399 183.201C16.8887 183.529 17.465 183.652 17.6879 184.186C17.5648 184.276 17.265 184.511 17.1464 184.566C16.2523 184.531 15.4846 184.41 14.7065 184.836C14.6128 185.01 14.4404 185.299 14.3845 185.473L13.9238 187.15C13.7872 185.775 14.1666 184.024 12.4556 183.121C12.096 182.931 12.0452 182.937 11.8188 182.624C12.2333 181.491 12.3584 181.738 13.1748 180.865Z" fill="#FED0AB" fill-opacity="0.0392157"/>
<path d="M200.559 9.59473C201.364 9.81524 201.699 9.74081 202.098 10.2917C201.324 11.6331 198.737 12.1708 197.285 11.9116C196.81 12.1833 196.763 12.1874 196.478 12.6359C195.95 12.2152 196.171 11.8768 196.37 11.3995C196.023 11.0739 194.896 11.1581 194.295 11.1385C197.082 9.68251 197.486 10.0425 200.559 9.59473Z" fill="#FED0AB" fill-opacity="0.788235"/>
<path d="M200.559 9.59462C203.222 9.56855 204.22 9.21135 205.922 11.5076C201.896 10.2378 200.558 14.7751 196.478 12.6358C196.763 12.1873 196.81 12.1832 197.285 11.9115C198.736 12.1707 201.324 11.633 202.098 10.2916C201.699 9.74071 201.364 9.81513 200.559 9.59462Z" fill="#FED0AB" fill-opacity="0.235294"/>
<path d="M32.7811 215.065C34.0831 216.772 37.634 215.253 36.6945 218.851C37.1593 219.404 37.6441 219.858 37.9644 220.481C36.276 219.709 34.9674 218.825 33.6757 217.498C33.2202 216.96 32.9413 217.491 32.0938 216.615C32.1786 215.932 32.4212 215.649 32.7811 215.065Z" fill="#FECB9E" fill-opacity="0.92549"/>
<path d="M16.2404 183.201C16.9312 183.177 17.4564 183.12 18.1328 183.278C18.0784 182.496 15.9186 181.649 16.2726 180.404C17.8556 179.907 18.4928 181.365 20.2841 181.384L20.7427 181.799C20.503 183.03 19.1554 183.862 18.1405 184.645L17.3846 184.755L17.1469 184.566C17.2655 184.511 17.5653 184.276 17.6884 184.186C17.4655 183.652 16.8892 183.529 16.2404 183.201Z" fill="#FED0AB" fill-opacity="0.870588"/>
<path d="M266.708 84.2773C266.619 83.6541 265.62 82.1099 264.901 81.849C264.104 81.9907 263.626 82.5159 263.008 83.0511C262.449 83.0478 261.533 82.6852 261.243 82.1959C261.555 81.9196 265.725 80.2952 266.139 80.2495C266.533 80.5505 266.677 80.6803 267.023 81.0346L267.707 80.6132C267.508 81.7692 267.28 83.7581 266.725 84.6828L266.708 84.2773Z" fill="#FED0AB" fill-opacity="0.243137"/>
<path d="M266.523 105.619C266.651 105.744 267.064 106.133 267.131 106.254C267.201 107.541 267.244 108.289 267.487 109.573C267.148 110.234 266.853 110.933 266.324 111.446C265.659 111.765 265.104 112.277 264.467 111.766C264.952 110.792 266.716 109.657 266.127 108.29C265.2 108.192 265.378 108.294 264.402 108.841L263.492 108.724C264.035 107.895 265.839 107.587 265.565 106.354L265.06 106.14C265.217 106.035 266.274 105.703 266.523 105.619Z" fill="#FECB9E" fill-opacity="0.945098"/>
<path d="M263.595 114.588C264.148 114.25 264.241 114.165 264.876 114.239C265.433 114.698 265.512 114.886 265.865 115.499L265.803 115.801L265.579 116.664C266.334 117.846 266.809 118.309 265.745 119.541L265.344 119.471L264.575 118.286C264.14 118.67 264.229 118.895 264.104 119.577C263.67 118.938 264.174 117.723 263.862 116.912C263.365 115.616 263.228 115.855 263.595 114.588Z" fill="#FECB9E" fill-opacity="0.776471"/>
<path d="M49.1309 227.721C52.5547 228.73 53.8527 226.564 55.5627 226.793C55.6088 227.812 54.963 227.396 55.0416 228.729C55.6902 229.22 55.6376 229.073 56.5695 229.155C55.0574 229.423 53.6831 229.563 52.1588 229.722C50.7553 228.978 50.3573 228.704 49.1309 227.721Z" fill="#FECB9E" fill-opacity="0.282353"/>
<path d="M237.884 169.031C237.433 169.634 237.205 169.904 236.682 170.443C237.755 171.138 237.868 170.868 238.225 171.759C237.753 172.719 236.327 172.767 235.063 173.513L234.425 173.438C233.88 172.276 234.766 172.595 233.925 172.113L233.382 172.108C234.972 170.809 236.119 170.112 237.884 169.031Z" fill="#FECB9E" fill-opacity="0.192157"/>
<path d="M266.492 94.0837C267.446 94.9543 268.616 98.2814 267.912 99.4484L267.138 100.579L266.696 100.642C265.796 99.6615 265.747 99.2344 264.33 99.919L265.183 99.0679L265.517 98.9468C266.564 97.9128 267.146 95.3791 266.492 94.0837Z" fill="#FECB9E" fill-opacity="0.556863"/>
<path d="M32.8569 210.779L33.5154 210.115C33.4685 210.827 33.3587 211.274 33.7883 211.853C33.4404 212.878 33.0193 214.021 32.781 215.065C32.4211 215.649 32.1785 215.932 32.0937 216.615C32.9412 217.49 33.2201 216.96 33.6756 217.497C32.7574 217.484 32.079 217.642 31.403 217.23L31.63 216.031C31.3878 215.238 29.8316 214.205 29.1147 213.631C30.5379 214.101 30.9326 214.479 32.2299 213.5C32.7553 212.662 32.761 211.763 32.8569 210.779Z" fill="#FED0AB" fill-opacity="0.372549"/>
<path d="M68.7119 233.41C68.9918 233.201 69.3346 233.184 69.7084 233.106C70.3246 231.314 69.4362 229.539 70.1728 228.176C70.7102 227.824 70.5406 227.813 71.0162 227.901C71.1063 229.001 71.3816 230.662 70.9466 231.603L70.4587 231.65C70.3616 231.904 70.2151 232.099 70.3006 232.345C70.7241 233.563 70.1082 234.658 69.9902 235.816L69.5597 236.119L68.9034 235.531C68.6531 234.466 69.3151 234.711 69.3024 233.646L68.7119 233.41Z" fill="#FED0AB" fill-opacity="0.87451"/>
<path d="M258.184 151.356C257.913 150.64 257.899 150.815 257.07 150.34C256.832 148.506 258.694 148.612 258.792 146.041C259.177 146.178 260.056 146.458 260.349 146.672C258.715 148.436 260.541 148.909 258.184 151.356Z" fill="#FED0AB" fill-opacity="0.686275"/>
<path d="M89.2458 230.223L90.3129 229.698L90.4243 230.458L91.0506 230.501L91.2779 231.398C90.5437 232.068 90.2636 232.397 89.331 232.711C88.5159 232.601 88.5529 233.356 87.4041 232.448C87.3306 231.674 87.2083 231.641 87.5072 230.985C88.2805 230.812 88.4225 230.757 89.087 230.327L89.2458 230.223Z" fill="#FECB9E" fill-opacity="0.0784314"/>
<path d="M90.313 229.698C92.6471 229.234 95.6265 228.344 97.7775 229.164L97.4696 229.567C95.7985 229.879 94.5723 230.295 92.9556 230.688C92.5784 230.779 91.5204 230.504 91.0507 230.501L90.4245 230.458L90.313 229.698Z" fill="#FED6B7" fill-opacity="0.0235294"/>
<path d="M263.491 108.724L264.402 108.841C265.603 111.069 264.323 110.188 264.255 111.724L264.236 112.509L263.667 112.876C262.84 110.667 262.903 111.561 261.697 109.942L261.798 109.504C262.374 109.164 262.876 108.974 263.491 108.724Z" fill="#FED0AB" fill-opacity="0.807843"/>
<path d="M264.467 111.766C265.103 112.277 265.658 111.765 266.324 111.446L266.641 112.186C266.66 113.585 266.821 114.419 265.865 115.499C265.512 114.886 265.433 114.698 264.875 114.239C264.241 114.165 264.147 114.25 263.595 114.588C263.998 114.112 264.109 114.026 264.147 113.414L263.667 112.876L264.236 112.509L264.255 111.724L264.467 111.766Z" fill="#FECB9E" fill-opacity="0.823529"/>
<path d="M157.992 32.1871C159.131 31.285 159.056 30.1403 160.99 30.0903C161.659 30.6784 161.464 30.4483 161.594 31.5217C160.726 32.2664 159.804 33.3032 158.759 33.359C158.396 33.0065 158.401 32.897 158.245 32.3959L157.992 32.1871Z" fill="#FED0AB" fill-opacity="0.886275"/>
<path d="M47.9153 130.545C49.5312 131.216 51.6457 131.753 53.378 132.006C51.5311 132.255 47.9792 132.978 46.3877 132.22C46.4629 130.797 46.7497 130.918 47.9153 130.545Z" fill="#FED0AB" fill-opacity="0.439216"/>
<path d="M63.4418 230.358C64.3603 230.884 64.3997 230.804 64.7446 231.754C64.2135 232.462 63.193 232.357 62.3694 232.271C62.0703 232.478 61.7907 232.648 61.5428 232.914C61.4087 232.703 60.0065 232.386 59.6548 232.292C61.1253 231.637 61.0321 231.207 63.4418 230.358Z" fill="#FECB9E" fill-opacity="0.0588235"/>
<path d="M137.852 54.5809C137.721 54.2635 137.705 54.2907 137.406 54.1081C136.343 54.2902 135.516 54.9415 134.698 55.6228C134.505 54.2823 135.85 52.7164 136.589 51.6668C136.962 51.1376 137.772 51.276 138.382 51.2529C137.807 51.7346 137.181 52.1089 137.035 52.7909C137.323 53.4551 137.607 53.5397 138.231 53.8717C138.179 54.4137 138.283 54.1756 137.852 54.5809Z" fill="#FECB9E" fill-opacity="0.160784"/>
<path d="M85.7168 232.173C86.1199 231.563 85.9174 231.667 86.4774 231.548C86.996 231.885 87.0535 231.939 87.4042 232.448C88.553 233.356 88.516 232.601 89.3311 232.711C89.1094 233.313 89.0546 233.366 88.5189 233.723C87.3127 233.681 85.4537 233.906 84.5308 233.302C84.7049 232.61 84.9461 232.665 85.7168 232.173Z" fill="#FECB9E" fill-opacity="0.878431"/>
<path d="M91.0508 230.501C91.5204 230.504 92.5784 230.779 92.9556 230.688C94.5724 230.295 95.7985 229.879 97.4696 229.567C96.5058 230.534 93.851 231.828 92.4184 232C92.0891 232.039 91.5435 231.602 91.278 231.398L91.0508 230.501Z" fill="#FECB9E" fill-opacity="0.917647"/>
<path d="M266.127 89.3831L266.912 89.6324C266.11 91.1284 267.47 91.1819 266.492 94.0837L266.184 93.9833C265.721 93.4118 265.644 93.1192 265.394 92.4487C265.553 91.493 265.841 91.2444 265.992 90.4891L265.42 89.6737L266.127 89.3831Z" fill="#FECB9E" fill-opacity="0.670588"/>
<path d="M260.472 140.687C261.168 139.997 262.247 139.383 263.095 138.851C264.14 139.366 264.186 139.162 264.512 139.993C264.193 140.556 264.111 140.71 263.662 141.172C263.691 140.725 263.657 140.652 263.559 140.235L263.083 140.159C262.567 140.558 262.045 140.951 261.517 141.338C260.683 141.098 260.933 141.287 260.472 140.687Z" fill="#FECB9E" fill-opacity="0.0784314"/>
<path d="M265.332 86.1381L265.346 85.7833C266.01 85.279 265.894 85.4301 266.846 85.3528C267.701 86.9244 267.516 87.9303 266.913 89.6323L266.127 89.383C266.283 88.645 266.387 88.0629 266.485 87.3157C266.11 86.5085 266.36 86.7836 265.44 86.332L265.332 86.1381Z" fill="#FECB9E" fill-opacity="0.87451"/>
<path d="M117.28 97.6831L117.575 98.4867C118.84 98.5701 118.48 98.0286 120.114 98.2344L119.231 98.3702C118.216 98.8199 117.589 99.4267 118.035 100.597C117.373 101.34 117.198 101.078 116.655 101.413C116.359 99.6119 116.504 99.3753 117.28 97.6831Z" fill="#FED6B7" fill-opacity="0.772549"/>
<path d="M149.962 40.8031C150.713 40.214 150.777 39.9574 151.579 39.8772C151.824 41.0318 149.945 42.8835 148.987 43.4706L148.528 42.9839C148.665 42.3812 149.543 41.3539 149.962 40.8031Z" fill="#FED0AB" fill-opacity="0.105882"/>
<path d="M12.4961 149.598C13.2911 149.116 14.1271 148.468 15.0242 148.554L15.3285 148.895C15.0059 149.938 14.1076 150.532 13.1995 151.073L12.6676 150.731L12.4961 149.598Z" fill="#FECB9E" fill-opacity="0.352941"/>
<path d="M259.583 143.637C261.017 144.837 259.696 145.669 261.68 145.611C261.337 146.079 260.998 146.66 260.349 146.672C260.056 146.458 259.177 146.178 258.792 146.041C259.016 145.236 259.309 144.428 259.583 143.637Z" fill="#FECB9E" fill-opacity="0.0784314"/>
<path d="M265.06 106.14C264.219 106.246 263.393 106.422 262.804 105.7C263.542 104.721 265.146 104.839 266.29 104.788L266.523 105.619C266.273 105.703 265.216 106.035 265.06 106.14Z" fill="#FED0AB" fill-opacity="0.321569"/>
<path d="M85.0454 230.926C86.5469 229.858 87.2296 230.37 89.2461 230.224L89.0874 230.328C88.4229 230.757 88.2809 230.812 87.5076 230.985C87.2087 231.641 87.331 231.674 87.4045 232.448C87.0538 231.939 86.9964 231.885 86.4777 231.549C85.9177 231.667 86.1202 231.563 85.7171 232.173C85.5756 231.489 85.5468 231.41 85.0454 230.926Z" fill="#FECB9E" fill-opacity="0.219608"/>
<path d="M266.641 112.186L266.667 112.297C267.047 113.823 267.465 114.384 268.293 115.69C267.198 115.771 266.485 115.512 265.802 115.801L265.865 115.499C266.821 114.419 266.66 113.585 266.641 112.186Z" fill="#FECB9E" fill-opacity="0.670588"/>
<path d="M264.402 108.841C265.377 108.294 265.2 108.192 266.127 108.289C266.715 109.657 264.952 110.792 264.467 111.765L264.255 111.724C264.323 110.188 265.603 111.069 264.402 108.841Z" fill="#FED0AB" fill-opacity="0.878431"/>
<path d="M265.44 86.332C266.36 86.7837 266.11 86.5086 266.485 87.3158C266.386 88.0629 266.283 88.645 266.127 89.383L265.42 89.6737L265.317 89.2269V88.2244C265.041 87.6464 264.928 87.4734 264.877 86.8404L265.44 86.332Z" fill="#FECB9E" fill-opacity="0.121569"/>
<path d="M265.332 86.1382L265.44 86.3321L264.877 86.8404C264.928 87.4734 265.041 87.6464 265.317 88.2244C263.941 87.059 263.861 87.8395 261.937 87.2656L262.151 86.8382C262.444 86.7128 262.98 86.6388 263.316 86.5788L265.332 86.1382Z" fill="#FED0AB" fill-opacity="0.380392"/>
<path d="M141.522 51.1578C141.436 50.8695 141.458 50.7359 141.451 50.4342C142.169 49.16 143.402 48.4568 144.852 48.6072C143.716 49.5602 142.794 50.3802 141.522 51.1578Z" fill="#FED0AB" fill-opacity="0.337255"/>
<path d="M263.316 86.5788C264.976 85.5713 264.214 84.9767 266.708 84.2773L266.725 84.6829L266.845 85.3529C265.894 85.4302 266.009 85.2791 265.346 85.7834L265.331 86.1382L263.316 86.5788Z" fill="#FECB9E" fill-opacity="0.513725"/>
<path d="M147.106 47.7376C147.077 47.6999 147.048 47.662 147.019 47.6242C146.842 47.3235 146.802 46.9607 146.911 46.629C147.284 45.4845 148.366 45.5419 149.33 45.8756C148.597 46.469 147.787 47.0972 147.106 47.7376Z" fill="#FED0AB" fill-opacity="0.247059"/>
<path d="M33.5157 210.115C34.0973 209.714 34.4158 209.415 35.1322 209.392L35.2852 209.682C34.9177 210.662 34.4838 211.063 33.7886 211.853C33.359 211.274 33.4688 210.827 33.5157 210.115Z" fill="#FED6B7" fill-opacity="0.137255"/>
<path d="M118.035 100.597C117.589 99.4267 118.216 98.8198 119.23 98.3701L119.85 99.0459C119.246 99.5321 118.57 100.042 118.035 100.597Z" fill="#FED0AB" fill-opacity="0.427451"/>
<path d="M120.114 98.2346L120.883 98.1113L121.112 98.3621C120.665 98.8733 120.519 98.8806 119.85 99.0461L119.231 98.3703L120.114 98.2346Z" fill="#FED0AB" fill-opacity="0.537255"/>
</svg>
