<svg width="171" height="149" viewBox="0 0 171 149" fill="none" xmlns="http://www.w3.org/2000/svg">
<path d="M51.5405 20.5815C52.8163 20.664 54.059 20.5236 55.3397 20.568C56.2714 20.5674 57.5078 21.2786 58.3784 21.2938C66.5585 21.4361 74.7512 22.9616 82.5417 25.4394C83.7571 25.826 84.9629 26.452 86.1722 26.8203C88.8557 27.6375 91.9064 28.5358 94.1864 30.2703C94.375 30.2581 95.6904 30.1791 95.7711 30.2172C102.183 33.2359 108.836 36.921 114.449 41.2961C114.983 41.7117 115.854 41.8703 116.298 42.4065C116.159 43.1511 115.784 43.1063 115.371 43.9298L115.479 44.1525C116.027 44.0518 117.273 43.767 117.704 43.986C120.039 45.17 122.936 46.5794 124.13 48.9349C124.578 49.1655 125.101 49.3906 125.671 49.6815C127.032 50.3753 128.776 52.7735 129.158 54.2958C129.177 54.3725 128.927 54.7726 129.035 55.0928C133.439 55.4121 131.444 56.7322 134.014 59.1754C136.519 60.8514 136.443 61.5041 137.756 63.9782C140.56 69.2609 141.775 74.9927 142.428 80.9152C142.629 82.7395 142.281 84.7423 142.478 86.9412C142.778 90.2876 139.395 95.5821 137.864 98.5255C137.242 100.063 135.697 100.811 134.744 101.913C130.989 106.448 126.169 108.579 120.935 110.724C116.587 112.505 113.347 113.687 108.732 114.903C106.795 115.368 104.663 115.875 102.654 115.911C97.3299 116.006 91.9789 115.726 86.6693 115.348C85.6822 115.163 84.7877 114.705 83.7938 114.529C82.8246 114.357 81.4425 114.572 80.5267 114.297C76.4525 113.127 72.5353 111.337 68.484 110.073C66.2464 109.438 64.0733 108.269 61.9282 107.448C58.7963 106.25 56.6633 105.091 54.0175 103.109C52.44 101.927 49.4481 101.084 47.7885 99.6333C46.4947 98.5025 45.1191 97.4742 43.86 96.2883C42.543 95.2951 40.8039 94.4827 39.6579 93.2705C36.6586 90.0983 33.2601 87.3213 30.2954 84.1363C29.3525 83.1232 28.8062 81.4466 27.9649 80.3288C26.3891 78.2353 24.6632 76.2678 23.2864 74.0321C22.1506 72.2279 21.7268 70.8085 20.8928 68.9629C18.5964 63.882 16.8317 58.4838 16.55 52.9013C16.2486 46.9304 17.973 38.2045 22.361 33.8636C25.538 30.7208 31.5133 26.4404 35.61 24.45C36.2967 24.1162 38.5893 23.4595 39.4711 23.1985C43.3301 22.0555 47.5158 20.7603 51.5405 20.5815ZM122.603 48.4048C122.331 47.9037 120.639 47.1453 120.112 47.0862C120.61 48.0007 121.582 48.4272 122.603 48.4048Z" fill="#FECA9D"/>
<path d="M120.113 47.0862C120.64 47.1453 122.331 47.9036 122.603 48.4048C121.583 48.4272 120.611 48.0007 120.113 47.0862Z" fill="#FED8B9" fill-opacity="0.635294"/>
</svg>
