<svg width="224" height="255" viewBox="0 0 224 255" fill="none" xmlns="http://www.w3.org/2000/svg">
<path d="M43.1095 23.139C45.2744 22.1117 46.3612 22.3966 48.3229 21.5554C50.029 20.7764 52.0798 18.635 53.7565 17.9604C57.5266 16.4436 62.9175 15.4285 66.8489 14.6003C68.4904 14.2545 74.3573 16.2612 76.2138 16.8555C79.5436 15.6321 82.3377 16.5992 84.9332 18.9067L87.3565 19.1882C89.2902 20.3428 88.5568 21.2225 89.5757 21.6422C90.4699 21.1252 91.0577 20.3921 91.7457 20.4607C92.0585 21.1132 92.0355 20.8265 91.8196 21.5345C91.0359 22.2644 90.3181 22.7372 90.0906 23.711C90.408 24.4023 90.5944 24.5292 91.3272 24.9601C94.1261 25.9672 96.3053 26.4797 98.9375 28.2033C99.4733 28.5539 100.524 28.7841 101.291 29.2496L102.759 30.4367C102.394 31.5906 102.037 32.7467 101.686 33.9048C102.048 34.1043 102.263 34.2287 102.602 34.4654C102.716 35.1068 102.726 35.1934 102.59 35.8289C103.104 36.2183 103.448 36.206 104.089 36.3005C103.802 39.5468 104.576 39.2248 104.701 40.662L104.115 41.1498C103.644 40.9947 103.034 41.4582 102.396 41.3926L102.304 41.7625C101.366 42.3579 101.477 42.1057 101.032 42.9952C101.134 44.1274 101.277 44.7132 100.538 45.6099C100.024 45.8218 99.8799 45.8669 99.3333 45.9662C98.8774 46.4567 98.5525 46.6244 98.4701 47.1849C99.82 47.2627 101.524 45.7619 102.558 45.737C103.305 46.2834 103.019 46.2167 103.893 46.3226L105.001 46.6006C104.911 46.7657 104.805 46.9626 104.682 47.191C103.404 47.6215 102.326 48.1032 101.191 48.7702C99.886 48.5046 97.1565 48.8281 96.5597 50.2432C96.6638 51.0729 97.3094 51.1847 98.0175 51.3825C98.572 51.0123 98.5899 49.9989 98.6836 49.3295C99.202 49.09 99.3042 49.1322 99.8705 49.2553C101.214 50.2911 100.617 50.1599 102.144 50.2743C103.128 50.4421 103.03 50.572 103.858 50.2752C104.152 49.1037 103.248 49.5408 103.758 48.4031C104.557 48.0319 104.28 48.0244 104.94 48.2023C106.375 49.6023 107.234 48.9535 109.099 48.481C108.652 49.0924 107.581 50.7004 106.969 50.9841C106.334 51.2794 105.911 51.4859 105.236 51.6878L104.848 52.1282C105.1 53.2902 106.521 53.5326 105.811 54.3218C104.252 56.0569 103.744 55.5468 103.517 57.8194C102.985 58.5708 102.735 58.6528 102.693 59.4288C103.283 59.8039 103.036 59.6947 103.852 59.7254C104.477 60.0469 104.556 60.1589 104.999 60.675L106.479 60.7141C106.808 61.5362 107.201 62.7968 106.836 63.6261L106.787 63.7394C105.673 66.3281 103.372 64.542 101.86 63.4645L101.636 63.6732C101.765 64.7813 103.023 71.084 103.64 71.5921C103.739 70.4863 101.353 66.4896 104.326 66.8354C105.211 68.4233 103.891 69.5696 106.508 69.7312L107.092 70.261C106.9 71.2233 106.046 72.1963 105.605 72.9716C106.221 73.0753 106.319 73.0892 106.934 72.9943C109.174 72.932 108.851 71.8817 109.643 70.0983L110.488 70.0939C110.839 71.997 109.74 74.7686 109.024 76.628C108.578 77.2455 107.59 78.374 107.638 79.036C109.295 79.1241 110.755 77.772 112.264 78.5895C112.161 79.9768 110.393 80.1485 109.613 81.7723C109.545 82.5452 109.336 82.8026 110.146 83.1946C110.995 83.6054 111.313 84.5014 111.659 85.3235C111.318 86.7882 110.49 86.1342 109.873 88.1753C109.645 88.7848 109.342 93.2991 109.55 93.7596C110.999 94.0584 110.742 92.4001 112.145 92.7682C113.502 92.579 113.879 92.3141 115.006 93.2184C114.925 93.7609 114.929 94.0112 114.638 94.4883C113.797 94.562 112.788 94.5493 112.139 95.0443L112.228 95.3147C113.057 95.6295 113.785 95.4792 114.668 95.388L115.57 95.1497C115.786 95.5796 115.773 96.0768 115.81 96.5694L115.439 97.7303C115.443 98.7976 115.325 100.435 115.774 101.335C116.225 101.713 116.417 101.907 116.957 102.169L117.27 102.765L117.262 102.864C117.071 105.455 119.157 105.144 117.61 107.075C117.223 107.559 116.697 108.314 116.354 108.833C117.189 108.629 119.106 108.043 119.826 108.247L119.836 108.548C119.324 108.966 118.814 109.371 118.33 109.823C118.765 110.551 120.219 110.574 121.03 110.674C120.708 111.693 119.975 113.839 119.801 114.798C121.061 116.816 120.79 116.64 122.948 117.375C123.428 117.538 123.232 118.605 124.169 119.424C123.304 121.367 123.195 121.642 122.057 123.379C123.486 123.056 124.504 123.015 125.587 122.082C125.681 121.842 125.998 120.956 126.086 120.807C130.53 124.579 125.968 124.594 126.763 126.128C127.421 126.34 127.821 126.46 128.506 126.602C127.596 127.033 127.487 126.573 127.183 127.568C127.044 128.023 126.771 128.669 126.597 129.135C128.058 128.876 130.077 128.608 131.343 129.545C132.469 130.379 134.8 133.968 135.086 135.301C134.967 135.836 134.948 135.939 134.673 136.41C134.095 136.476 133.989 136.527 133.454 136.762L133.352 137.041C133.972 137.535 135.418 137.519 135.596 137.798C137.002 140 136.77 140.607 138.863 142.348C142.177 143.384 141.24 141.791 142.815 141.456L143.445 141.9C143.91 142.708 144.474 143.441 144.335 144.339C143.298 145.176 143.743 145.621 143.47 145.901C143.005 146.381 141.662 146.46 140.907 147.318L140.873 147.725L141.221 148.112C143.418 147.091 144.619 145.332 146.57 145.199C147.705 145.648 149.847 146.388 150.665 147.16C151.338 148.717 149.978 149.375 148.845 150.239C152.496 149.787 155.46 149.352 158.473 151.332C158.783 151.536 160.037 150.64 160.447 150.788C163.942 151.644 165.73 153.772 169.425 151.559L171.188 153.358C173.491 153.443 174.974 153.692 177.206 154.307C178.386 154.631 178.709 153.13 179.95 154.952C181.505 155.299 187.126 154.066 189.589 155.78C190.042 156.161 190.595 156.619 191.103 156.8C192.101 157.156 195.069 157.126 195.039 158.64C195.029 159.147 194.962 159.86 194.899 160.4L195.119 160.576C196.339 160.184 196.816 158.441 198.472 158.5C198.203 159.702 198.064 160.461 197.909 161.694C199.006 161.24 200.291 160.754 201.293 160.118C201.664 159.883 201.929 159.459 202.243 159.26C202.665 160.032 203.723 161.831 203.908 162.593L204.556 163.845C204.812 164.779 204.646 164.721 205.261 165.291C206.504 165.591 208.775 165.69 209.058 167.241C208.159 168.728 204.723 168.929 205.085 171.236C206.013 171.499 207.265 169.998 208.482 169.929C209.011 171.313 208.768 173.438 209.444 175.013C210.158 175.315 210.806 174.875 211.34 174.392L211.438 174.092C211.158 173.601 211.11 173.585 210.657 173.227L210.491 172.696C211.819 173.198 211.706 174.531 213.423 175.324L213.582 175.625C213.088 176.168 212.242 176.972 212.057 177.624L212.268 178.042C213.487 178.363 213.68 177.78 214.317 178.357L214.43 178.767C214.943 180.27 215.365 180.442 215.62 182.143C212.744 183.251 214.787 183.029 213.192 185.511C212.047 186.259 208.784 189.139 208.821 190.535C209.485 190.913 210.558 190.476 210.982 189.841C210.465 189.598 210.191 189.552 209.646 189.423L209.801 189.497L209.917 188.868C210.491 188.495 210.866 188.172 211.556 188.198C212.663 189.244 211.123 190.108 210.833 190.848C210.112 192.696 210.246 192.483 208.316 193.345L207.94 193.625L207.333 193.599C205.383 194.103 206.581 196.469 206.698 197.618C206.762 198.249 205.508 198.936 205.497 200.658C204.3 201.964 202.895 203.558 201.579 204.705C200.071 206.019 198.301 207.074 196.817 208.451C196.187 208.459 196.064 208.49 195.479 208.294C195.706 207.896 195.7 207.921 195.699 207.463C194.946 206.722 194.794 206.875 193.629 206.684L194.285 206.69L194.255 206.418C193.191 205.815 189.256 205.429 188.355 206.593C188.259 207.3 188.226 207.851 188.189 208.56C188.559 208.914 188.512 208.814 189.078 208.966L188.692 209.1C186.587 210.959 187.922 210.634 187.32 212.442C187.225 212.448 186.266 212.513 186.266 212.513C183.7 214.821 180.869 216.545 177.757 218.058C174.662 219.562 170.595 220.063 167.608 221.85C164.585 223.657 164.879 220.618 163.13 222.023C162.919 222.193 162.977 222.836 162.061 223.495C161.051 223.468 160.979 222.865 160.279 222.994C158.888 223.248 154.528 225.584 153.505 225.085L153.041 224.118C152.604 224.002 152.53 223.945 152.039 224.287C149.856 225.807 149.581 226.244 147.001 227.082C139.59 225.008 135.812 227.48 128.591 226.592L128.122 225.997C126.663 225.369 126.009 227.025 124.696 225.647C125.99 225.03 126.973 224.582 128.314 224.083C126.031 224.072 122.954 224.155 121.257 225.916C119.842 225.619 120.492 224.236 118.502 224.116C117.962 224.672 118.118 224.862 118.007 225.827C117.528 226.085 117.507 225.978 116.893 225.901C116.19 225.179 116.653 225.085 116.059 223.983C114.558 223.171 114.691 225.343 111.954 223.722L112.893 222.965C113.196 222.016 113.065 222.173 112.827 221.069C113.113 220.607 113.344 220.353 113.323 219.82L113.039 219.754L112.381 220.209L112.278 219.953C112.33 219.448 112.705 219.1 113.043 218.682C111.395 218.623 109.315 219.846 108.611 221.34C106.759 221.375 105.912 220.111 104.845 219.472L103.787 219.971C102.343 219.452 100.67 217.274 99.48 216.732C98.9465 216.489 97.401 217.261 95.5942 216.79L95.3951 216.737C95.9544 216.274 96.213 216.105 96.8216 215.734C97.1035 215.127 97.3739 214.665 97.2002 214.098C94.8268 213.026 92.5934 214.601 90.8641 214.022C88.5194 213.236 87.2169 211.389 84.3655 210.67C81.107 206.065 75.8903 203.95 72.0888 200.184C71.0414 199.146 67.2041 194.746 66.4656 193.61C63.4526 188.976 60.1197 185.903 56.3403 181.919C56.1321 180.535 56.2741 180.831 55.345 179.809C54.7962 179.205 53.5786 178.033 53.5401 177.212L54.4799 176.882L54.4495 176.626C53.9768 176.484 53.7267 176.395 53.2767 176.193C53.6758 175.456 53.6445 175.734 53.6014 175.023C52.9561 174.497 52.3584 174.713 51.3338 174.695L51.4178 174.452C52.3606 174.064 53.2041 173.909 53.5515 172.914C53.0121 170.172 47.9535 173.205 46.1833 173.259L46.0764 173.262L45.927 173.237C46.2763 172.836 47.0811 172.784 47.6627 172.672C48.1013 171.891 46.5473 171.013 47.9495 169.71C48.205 169.472 48.723 168.67 48.7425 168.272L48.3024 168.828C47.1157 169.222 45.8694 169.24 45.0935 168.109C44.331 166.998 46.5913 166.018 46.7718 164.992C45.4394 165.005 44.5698 164.948 44.0464 163.576C44.3668 162.771 44.665 163.331 45.3711 162.555C45.197 161.932 45.3217 162.165 44.812 161.674L44.5082 161.758C44.5519 162.134 44.5287 162.009 44.854 162.34L44.7341 162.693C44.1081 162.746 43.9891 162.825 43.4842 163.155L43.3455 163.246C40.6855 163.242 39.8464 158.276 38.4709 157.667C34.7359 156.139 34.4153 157.108 33.3637 153.032C33.2493 152.588 30.2297 150.435 30.4683 148.009C30.0514 146.684 31.5142 144.658 29.9475 143.661C27.704 142.234 25.9159 144.235 23.945 142.885L24.1911 142.74C24.4995 142.873 24.7095 142.93 25.0263 143.022C26.5267 142.62 27.648 138.692 27.7825 137.269C27.2768 136.343 27.8265 136.04 28.3349 135.197L27.9448 135.104C28.2703 134.787 21.7384 139.73 22.3654 139.439L22.2429 139.183C23.2555 136.931 27.5091 135.851 27.1501 132.487L27.5673 131.352C27.3135 130.929 26.9817 129.623 26.9924 129.634L26.5871 130.246C25.0088 130.557 18.9013 132.035 17.6546 131.38C17.0707 130.296 18.0355 128.38 18.1986 126.992C17.847 126.275 18.0591 126.518 17.3881 126.074C16.6886 125.949 16.5604 126.001 15.9564 126.313L15.7991 126.396L15.6724 126.211C16.4316 125.12 17.3819 125.879 18.3414 124.852C18.7574 123.851 18.8853 122.584 17.8618 121.957C17.0213 122.091 16.1539 122.344 15.3272 122.565C15.0926 121.826 15.0015 119.169 14.9355 118.241C14.7191 115.195 13.4568 111.927 13.6491 108.905C13.8112 106.358 12.7005 104.775 12.5835 102.493C13.0494 101.718 13.2431 102.162 14.1263 101.435C14.1612 100.164 13.1085 99.6107 13.0745 98.3614C13.0448 97.267 13.9194 96.2925 13.9159 95.0568C13.5632 94.6948 13.4618 94.5827 13.1915 94.1568C13.5019 90.0962 13.9733 87.1923 14.8028 83.1894C15.4714 79.9628 14.7939 75.7836 17.4551 73.0895C17.7887 72.7517 18.2527 71.9629 18.5131 71.5578C17.3856 69.204 16.547 67.7894 18.2147 65.4947C20.2655 64.1452 22.2532 65.6754 24.4026 62.7642L24.967 62.6669C26.4773 63.6141 26.5787 63.1433 28.0221 62.355C28.3524 63.0841 28.0179 63.3763 28.3419 64.2776L28.4919 64.0988C28.5549 63.16 28.6094 62.8286 28.3718 61.9251C27.5673 61.5861 27.1626 62.9834 25.7388 62.25C25.6281 59.6217 29.5507 57.7934 25.084 55.8607C24.395 55.5626 24.5474 53.3276 24.5827 52.4587C25.7451 51.5159 25.3115 50.6523 25.8584 49.5248C26.1082 49.0101 27.2094 48.502 27.4085 47.8798C26.9036 47.5981 26.7979 47.5338 26.3812 47.1352L26.4092 46.6933C26.8216 46.307 26.9524 46.1946 27.2584 45.7227C26.9854 45.3231 26.4674 44.5236 26.7964 44.0489C29.2635 40.4865 31.9443 33.6182 34.7884 30.6041C38.0391 27.159 40.6008 28.7867 43.1095 23.139ZM27.7832 117.863C27.9068 116.769 28.2531 114.431 28.0396 113.464C25.5963 114.802 27.2116 116.161 27.7832 117.863ZM116.233 113.337C115.671 113.665 115.213 113.924 114.626 114.214L114.568 114.503L115.054 114.886C115.845 114.496 116.299 114.339 116.841 113.643L116.815 113.353L116.233 113.337ZM117.928 114.766C117.18 115.317 116.68 115.615 116.171 116.388L116.112 116.828C116.415 116.901 116.441 116.947 116.722 116.839C117.401 116.426 118.041 116.111 118.507 115.471L118.517 115.046C118.318 114.934 118.143 114.809 117.928 114.766ZM96.5033 54.6187C96.6116 53.6839 96.6833 54.0394 96.2887 53.2488C95.7983 52.9408 95.7099 52.8413 95.1538 52.7639C94.6544 53.563 94.5719 53.4083 94.6367 54.1796C95.1829 54.6167 95.774 54.5648 96.5033 54.6187ZM105.673 90.4722C104.727 91.0254 103.655 91.8801 103.983 93.1429C104.507 93.2149 104.27 93.2608 104.722 93.0266C105.337 92.3747 106.036 91.5889 106.133 90.6555L105.673 90.4722ZM112.242 105.085C111.618 105.931 111.123 106.513 110.773 107.516C110.97 107.965 110.815 107.784 111.308 108.023C112.089 107.41 113.124 106.343 112.576 105.302L112.242 105.085ZM111.224 101.718C111.348 102.623 111.005 103.074 110.588 103.862L110.795 104.02C111.222 103.809 111.492 103.671 111.891 103.412C112.664 103.124 113.756 102.752 114.47 102.396C113.56 102.23 112.056 102.001 111.224 101.718Z" fill="#FECB9E"/>
<path d="M76.4547 40.4536L76.8861 40.4729C77.3849 40.8294 77.4608 40.8762 77.6349 41.4579C77.344 41.9663 76.6234 42.052 75.8759 42.4961C75.5959 43.2348 75.9175 44.0591 76.1463 44.8183C76.0087 45.6546 75.7819 45.8276 75.2227 46.4622C75.074 46.4189 74.857 46.2881 74.7115 46.21C74.5461 44.4854 73.492 43.7686 73.5438 42.0118C73.8068 41.6688 75.5305 41.072 76.4547 40.4536Z" fill="#FED1AA"/>
<path d="M28.0394 113.464C28.2529 114.431 27.9066 116.769 27.783 117.863C27.2114 116.161 25.5962 114.802 28.0394 113.464Z" fill="#FED1AA" fill-opacity="0.921569"/>
<path d="M111.224 101.718C112.056 102.001 113.56 102.229 114.47 102.396C113.756 102.752 112.664 103.123 111.891 103.412C111.492 103.671 111.222 103.809 110.795 104.02L110.588 103.862C111.005 103.074 111.348 102.623 111.224 101.718Z" fill="#FED1AA" fill-opacity="0.858824"/>
<path d="M105.673 90.4722L106.133 90.6555C106.036 91.5889 105.337 92.3746 104.722 93.0265C104.27 93.2608 104.507 93.2149 103.983 93.1429C103.654 91.88 104.727 91.0254 105.673 90.4722Z" fill="#FED1AA" fill-opacity="0.988235"/>
<path d="M35.2546 128.257C35.8949 128.405 36.204 128.42 36.6572 128.916C36.8998 129.6 36.617 130.155 36.3794 130.852C35.9159 130.808 35.9342 130.81 35.5112 130.61C35.0975 129.973 35.2286 129.044 35.2546 128.257Z" fill="#FED1AA"/>
<path d="M112.242 105.085L112.576 105.302C113.124 106.342 112.089 107.41 111.308 108.023C110.815 107.783 110.97 107.965 110.773 107.516C111.123 106.513 111.618 105.93 112.242 105.085Z" fill="#FED1AA" fill-opacity="0.65098"/>
<path d="M95.1539 52.7639C95.71 52.8414 95.7984 52.9409 96.2888 53.2489C96.6834 54.0394 96.6117 53.684 96.5034 54.6187C95.7741 54.5649 95.183 54.6167 94.6368 54.1797C94.572 53.4084 94.6545 53.563 95.1539 52.7639Z" fill="#FED1AA" fill-opacity="0.956863"/>
<path d="M117.928 114.765C118.143 114.809 118.318 114.934 118.518 115.046L118.507 115.47C118.041 116.111 117.401 116.426 116.722 116.839C116.441 116.947 116.415 116.901 116.112 116.828L116.171 116.388C116.681 115.615 117.18 115.317 117.928 114.765Z" fill="#FED1AA" fill-opacity="0.854902"/>
<path d="M99.3552 98.2842C99.9869 98.5038 99.7758 98.3454 100.163 98.8715C100.278 99.5853 99.8959 100.252 99.6061 100.939C99.117 100.689 99.075 100.628 98.7639 100.172C98.6036 99.493 99.0211 98.9144 99.3552 98.2842Z" fill="#FED1AA"/>
<path d="M116.233 113.337L116.815 113.353L116.841 113.643C116.299 114.339 115.844 114.496 115.054 114.887L114.568 114.503L114.626 114.215C115.213 113.924 115.671 113.665 116.233 113.337Z" fill="#FED1AA" fill-opacity="0.831373"/>
<path d="M22.7158 143.014L23.9452 142.885C25.9161 144.235 27.7042 142.234 29.9477 143.661C31.5144 144.658 30.0516 146.684 30.4685 148.01C30.2299 150.435 33.2495 152.588 33.3639 153.032C34.4154 157.108 34.7361 156.139 38.4711 157.668C39.8466 158.276 40.6857 163.242 43.3457 163.247L43.4844 163.155C43.9893 162.825 44.1083 162.746 44.7343 162.694L44.8542 162.34C44.5289 162.01 44.5521 162.134 44.5084 161.758L44.8122 161.674C45.3219 162.165 45.1972 161.932 45.3713 162.555C44.6652 163.332 44.367 162.771 44.0466 163.576C44.57 164.949 45.4396 165.006 46.772 164.992C46.5915 166.018 44.3312 166.998 45.0937 168.109C45.8696 169.241 47.1159 169.222 48.3026 168.828L48.7427 168.273C48.7232 168.67 48.2052 169.472 47.9497 169.71C46.5475 171.013 48.1015 171.891 47.6629 172.672C47.0813 172.784 46.2765 172.836 45.9272 173.237C45.5807 173.041 45.687 173.097 45.4807 172.667C46.2503 172.657 46.4712 172.667 47.2276 172.472L47.3983 172.176C46.7882 170.888 44.8439 169.334 44.1349 168.141C43.6511 167.327 44.5224 165.946 43.9505 164.727C43.2895 164.17 42.1154 164.258 41.2223 164.232C40.3948 163.714 40.1539 162.414 39.6444 161.446C38.6321 159.522 32.994 156.154 31.1272 155.545C30.7245 155.238 30.8465 155.405 30.7127 154.871C31.1313 154.254 31.3547 154.013 31.4715 153.275C31.1541 151.73 28.7507 151.113 27.765 149.728C26.8124 148.39 26.895 146.149 25.8201 145.128C24.9985 144.347 23.6967 143.956 22.7158 143.014Z" fill="#FED1AA" fill-opacity="0.643137"/>
<path d="M15.3273 122.565C16.1541 122.344 17.0214 122.091 17.862 121.957C18.8854 122.584 18.7576 123.851 18.3415 124.852C17.3821 125.879 16.4318 125.12 15.6725 126.211L15.7992 126.396L15.9565 126.313C16.5605 126 16.6887 125.949 17.3883 126.073C18.0593 126.518 17.8471 126.275 18.1988 126.992C18.0356 128.379 17.0709 130.296 17.6547 131.38C18.9014 132.035 25.0089 130.557 26.5872 130.246L26.9926 129.634C26.9818 129.622 27.3137 130.929 27.5674 131.352L27.1503 132.487C26.3276 135.227 26.1298 134.424 23.9344 136.057C23.1769 136.62 22.7759 137.966 21.7455 138.535C20.87 138.466 21.1202 138.609 20.6453 138.109C20.465 136.951 20.7638 136.221 20.2247 135.437C19.6661 135.052 19.9269 135.111 19.2488 135.22C18.0736 136.551 19.0217 136.729 18.9329 138.028L18.3286 136.828C18.4196 135.714 18.3198 135.239 19.0561 134.507C20.7017 134.504 21.6153 136.553 22.9011 135.605C24.1965 134.649 22.9768 133.36 23.0868 131.958L22.6478 131.766C21.953 131.822 20.548 132.832 19.6246 133.273C18.7904 132.644 18.5239 132.882 17.4333 132.651C16.0369 131.479 16.8464 130.448 16.5304 128.848C16.275 127.554 15.2691 127.962 14.896 126.584C15.498 125.493 16.498 124.792 16.5589 123.717C16.1153 122.865 16.2454 123.114 15.3273 122.565Z" fill="#FECB9E" fill-opacity="0.666667"/>
<path d="M203.907 162.593L204.551 162.995C206.912 161.305 206.382 161.557 209.174 162.852C210.237 164.553 211.488 165.92 212.429 167.693C212.672 168.15 213.333 167.774 213.933 168.542C213.547 169.917 212.797 169.377 212.536 170.619C213.598 171.851 213.943 170.616 215.027 171.296C215.337 172.192 214.995 172.936 214.744 173.89C215.37 174.744 216.83 176.868 216.498 177.74C215.854 179.432 216.126 182.759 215.132 183.945C215.227 184.68 215.734 184.805 216.409 185.1L216.456 185.338C216.231 185.494 216.077 185.636 215.824 185.713L215.777 185.294C215.278 185.252 215.157 185.221 214.673 185.084L214.448 184.603C214.48 183.835 215.198 182.841 215.619 182.143C215.365 180.442 214.943 180.27 214.43 178.767C214.804 178.155 214.899 178.243 214.779 177.675L214.049 177.392C213.35 176.226 215.008 175.999 214.957 174.683C214.373 172.679 211.882 172.673 209.954 171.489C210.169 170.567 211.574 170.54 211.926 169.093C211.184 168.558 210.611 169.282 209.664 168.794C209.771 167.666 210.674 167.774 211.062 166.459C210.218 164.542 206.518 165.107 204.556 163.845L203.907 162.593Z" fill="#FECFA5" fill-opacity="0.321569"/>
<path d="M103.517 57.8194C103.744 55.5468 104.252 56.0569 105.811 54.3218C106.521 53.5326 105.099 53.2902 104.848 52.1282L105.235 51.6878C105.911 51.4859 106.334 51.2794 106.969 50.9841C106.788 52.0007 106.662 51.7802 107.093 52.4968C107.856 52.9408 107.922 52.8175 108.262 53.4833L108.17 53.9777L108.039 53.8806C107.637 53.5857 107.558 53.475 107.088 53.428C106.653 54.0003 106.422 55.0958 106.586 55.7881C107.805 56.2637 108.499 56.4345 109.331 57.4718C109.007 58.0382 108.507 58.8876 108.326 59.4939C107.841 61.1162 108.423 62.3436 107.359 63.6815L107.307 63.7714C106.022 65.9716 104.951 65.1208 105.163 66.6493C105.612 67.2125 105.397 67.1137 105.985 67.2257C106.504 66.6687 106.666 66.3496 107.049 65.6975L107.397 65.6924L107.577 66.0357L107.722 67.4149L107.645 67.484C107.197 67.8823 106.73 68.2315 106.255 68.5961C106.427 69.3744 107.404 70.0657 107.433 70.2151C107.612 71.1413 106.714 71.6925 106.934 72.9943C106.319 73.0893 106.221 73.0753 105.605 72.9716C106.046 72.1963 106.9 71.2233 107.092 70.261L106.508 69.7312C103.891 69.5696 105.211 68.4233 104.325 66.8354C101.352 66.4896 103.739 70.4864 103.64 71.5921C103.023 71.084 101.765 64.7813 101.636 63.6732L101.86 63.4645C103.372 64.542 105.673 66.3281 106.787 63.7394L106.835 63.6261C107.201 62.7968 106.808 61.5362 106.479 60.7141L104.999 60.675C104.556 60.1589 104.476 60.0469 103.852 59.7254C105.491 59.7995 106.176 59.8527 107.293 58.5273C107.503 57.7479 107.541 58.0191 107.3 57.3915C106.714 56.8751 106.524 56.8788 105.761 56.7486C104.788 57.8045 104.913 57.8478 103.517 57.8194Z" fill="#FECFA5" fill-opacity="0.827451"/>
<path d="M18.9329 138.028C19.0217 136.729 18.0737 136.551 19.2488 135.22C19.9269 135.111 19.6661 135.052 20.2247 135.437C20.7638 136.221 20.465 136.951 20.6454 138.109C21.1202 138.609 20.8701 138.466 21.7456 138.535C22.776 137.966 23.1769 136.62 23.9345 136.057C26.1299 134.425 26.3276 135.227 27.1503 132.487C27.5093 135.851 23.2557 136.931 22.2431 139.183L22.3656 139.439C21.7386 139.73 28.2705 134.787 27.945 135.104L28.3351 135.197C27.8267 136.04 27.277 136.343 27.7827 137.269C27.6482 138.692 26.5269 142.62 25.0265 143.022C24.7097 142.93 24.4997 142.873 24.1913 142.74L23.9452 142.885L22.7158 143.014C21.4497 141.809 22.1359 141.331 19.7914 140.13C19.4478 139.447 19.2013 138.743 18.9329 138.028Z" fill="#FECB9E" fill-opacity="0.796078"/>
<path d="M204.557 163.845C206.518 165.107 210.219 164.542 211.063 166.459C210.675 167.774 209.772 167.666 209.664 168.794C210.612 169.282 211.185 168.557 211.927 169.093C211.574 170.54 210.17 170.566 209.955 171.489C211.883 172.673 214.374 172.679 214.958 174.682C215.009 175.999 213.35 176.226 214.05 177.392L214.779 177.674C214.9 178.243 214.804 178.155 214.431 178.767L214.317 178.357C213.68 177.78 213.487 178.363 212.269 178.042L212.057 177.623C212.242 176.972 213.088 176.168 213.582 175.624L213.423 175.324C211.706 174.53 211.819 173.198 210.491 172.696L210.657 173.227C211.11 173.585 211.158 173.601 211.438 174.092L211.34 174.392C210.806 174.875 210.158 175.315 209.444 175.013C208.768 173.438 209.011 171.312 208.482 169.929C207.266 169.998 206.014 171.498 205.085 171.236C204.724 168.929 208.159 168.728 209.058 167.241C208.775 165.69 206.504 165.59 205.261 165.29C204.647 164.721 204.813 164.779 204.557 163.845Z" fill="#FED1AA" fill-opacity="0.85098"/>
<path d="M213.192 185.51C214.787 183.029 212.744 183.251 215.62 182.143C215.198 182.841 214.48 183.834 214.449 184.603L214.674 185.084C215.158 185.22 215.278 185.251 215.777 185.294L215.824 185.713C213.793 188.789 216.286 189.46 213.315 191.313C212.814 193.376 212.082 196.63 210.435 197.858C209.211 198.771 207.959 198.89 206.536 199.445C207.576 197.764 208.119 198.338 210.119 197.795L210.155 197.429C209.682 197.112 209.51 197.048 208.98 196.825C207.851 195.751 208.063 195.469 207.3 193.81L207.333 193.599L207.94 193.625L207.856 194.061L208.209 194.339C208.973 194.431 209.474 194.381 209.699 193.603L209.398 193.3C209.79 192.753 210.137 193.448 210.931 192.267C211.565 191.325 211.694 190.419 212.303 189.512C212.746 188.852 213.114 189.225 213.897 189.079C214.221 188.227 214.989 186.65 214.855 185.911C213.841 186.049 213.729 187.04 212.425 187.572L212.094 187.36C212.174 185.979 212.885 187.009 213.192 185.51Z" fill="#FECFA5" fill-opacity="0.611765"/>
<path d="M105.001 46.6005C106.013 46.6486 107.338 45.7367 108.751 46.6764L108.774 46.9698L108.173 47.5532C108.341 49.1006 109.783 48.7427 109.002 50.5798L108.271 50.724C107.249 52.463 109.967 56.6954 109.666 58.182C109.385 59.5647 107.343 62.2783 109.248 63.8658C108.464 64.3753 108.116 65.0129 107.343 65.1617C107.013 64.5947 107.194 64.4901 107.359 63.6814C108.424 62.3435 107.842 61.1161 108.326 59.4939C108.508 58.8875 109.007 58.0381 109.331 57.4717C108.499 56.4344 107.806 56.2636 106.587 55.788C106.423 55.0957 106.653 54.0002 107.089 53.4279C107.558 53.475 107.637 53.5856 108.04 53.8805L108.17 53.9776L108.262 53.4833C107.922 52.8174 107.856 52.9408 107.094 52.4967C106.662 51.7801 106.788 52.0006 106.969 50.984C107.581 50.7003 108.652 49.0923 109.099 48.4809C107.234 48.9534 106.375 49.6022 104.94 48.2022C104.28 48.0244 104.557 48.0318 103.758 48.403C103.248 49.5407 104.152 49.1037 103.858 50.2751C103.031 50.5719 103.128 50.442 102.144 50.2742C101.606 50.017 101.483 49.9995 101.112 49.5554L101.191 48.7701C102.326 48.1031 103.404 47.6214 104.682 47.1909C104.805 46.9625 104.912 46.7657 105.001 46.6005Z" fill="#FECFA5" fill-opacity="0.356863"/>
<path d="M31.127 155.545C32.9938 156.154 38.6318 159.522 39.6442 161.446C40.1537 162.414 40.3945 163.714 41.222 164.232C42.1152 164.258 43.2892 164.17 43.9503 164.727C44.5221 165.946 43.6508 167.327 44.1347 168.141C44.8437 169.334 46.7879 170.888 47.398 172.176L47.2274 172.472C46.471 172.667 46.25 172.657 45.4805 172.667L46.5084 172.302L46.6099 171.899C46.2581 171.142 44.8012 170.312 44.0422 169.799C43.4443 165.175 40.9191 166.214 38.3232 162.57C34.8695 162.322 35.1915 161.029 34.2483 158.087C33.1038 157.314 32.1638 156.452 31.127 155.545Z" fill="#FECB9E" fill-opacity="0.431373"/>
<path d="M46.0762 173.262L46.1831 173.259C47.9533 173.205 53.0119 170.172 53.5513 172.914C53.2039 173.909 52.3604 174.063 51.4176 174.452L51.3336 174.695C52.3582 174.713 52.9559 174.497 53.6012 175.023C53.6443 175.734 53.6755 175.456 53.2765 176.193C53.7265 176.395 53.9765 176.484 54.4493 176.626L54.4797 176.882L53.5399 177.212C53.5784 178.033 54.796 179.205 55.3448 179.809C56.2739 180.831 56.1319 180.535 56.3401 181.919C54.9067 180.5 53.651 179.115 52.0078 177.939C50.6082 176.937 48.1501 178.019 48.2628 175.815C49.3412 175.316 49.3996 176.149 50.3031 175.773C50.573 175.009 50.1119 173.847 49.8853 172.994C48.5225 173.478 47.3346 174.15 46.0762 173.262Z" fill="#FECB9E" fill-opacity="0.831373"/>
<path d="M18.2148 65.4946C18.4671 64.9832 19.4328 63.0892 19.3746 62.7283C18.9013 59.7883 19.7627 59.8395 21.0659 57.2534C21.0661 57.8611 20.9788 59.0154 21.2723 59.4645C22.0669 60.9474 23.7124 60.7832 25.25 60.6283C25.696 60.3428 25.8367 60.2418 26.2199 59.8773C25.6479 61.453 24.7797 61.2255 24.4028 62.7642C22.2533 65.6753 20.2656 64.1451 18.2148 65.4946Z" fill="#FED1AA" fill-opacity="0.784314"/>
<path d="M91.3271 24.9602L92.5038 24.6747L92.5196 24.3921C91.8206 23.6667 91.9396 23.6591 92.2343 22.7327C93.6229 21.6848 95.6523 22.9103 96.8287 23.8205C98.1935 26.7644 100.259 27.473 101.291 29.2497C100.524 28.7842 99.4732 28.554 98.9375 28.2034C96.3052 26.4798 94.1261 25.9673 91.3271 24.9602Z" fill="#FECFA5" fill-opacity="0.796078"/>
<path d="M14.896 126.583C15.2691 127.962 16.2749 127.554 16.5304 128.848C16.8463 130.448 16.0368 131.479 17.4333 132.651C18.5239 132.882 18.7904 132.644 19.6245 133.273C20.548 132.832 21.953 131.822 22.6477 131.766L23.0867 131.958C22.9767 133.36 24.1965 134.649 22.901 135.605C21.6153 136.553 20.7017 134.504 19.0561 134.507C18.3197 135.239 18.4196 135.713 18.3285 136.828C18.1228 136.404 14.7642 127.238 14.7601 127.186C14.7485 127.037 14.8606 126.74 14.896 126.583Z" fill="#FECFA5" fill-opacity="0.27451"/>
<path d="M24.5828 52.4585C24.5476 53.3274 24.3951 55.5623 25.0842 55.8605C29.5508 57.7932 25.6282 59.6215 25.7389 62.2497C27.1627 62.9832 27.5674 61.5858 28.372 61.9249C28.6095 62.8283 28.5551 63.1597 28.4921 64.0986L28.342 64.2773C28.018 63.3761 28.3525 63.0838 28.0222 62.3547C26.5789 63.1431 26.4774 63.6139 24.9671 62.6667L24.4028 62.764C24.7797 61.2253 25.6479 61.4528 26.2199 59.8772C26.0714 59.691 25.635 59.2903 25.4473 59.1076C24.534 58.3766 22.8759 57.5309 22.5659 56.5452C22.7427 55.5866 23.0047 55.5433 23.7111 54.7239C23.9952 53.8465 24.2063 53.3013 24.5828 52.4585Z" fill="#FED1AA" fill-opacity="0.905882"/>
<path d="M189.078 208.966C190.396 208.24 190.672 209.057 191.817 208.609C192.466 207.887 192.275 208.054 192.445 206.95C192.952 206.508 192.773 206.635 193.629 206.684C194.794 206.875 194.946 206.722 195.699 207.463C195.7 207.921 195.706 207.896 195.479 208.294C196.064 208.49 196.187 208.458 196.817 208.451C195.622 209.008 190.638 211.584 189.923 211.584C189.01 210.584 190.287 209.751 188.692 209.1L189.078 208.966Z" fill="#FED1AA" fill-opacity="0.913725"/>
<path d="M109.024 76.6279C110.141 78.6111 111.297 76.979 112.742 77.6235C113.641 78.8334 113.741 79.6749 114.491 80.8596C113.863 81.7476 113.669 81.972 113.408 83.0124C111.174 81.3687 110.683 83.528 109.613 81.7723C110.393 80.1485 112.161 79.9768 112.264 78.5895C110.755 77.772 109.295 79.1241 107.638 79.0359C107.591 78.374 108.578 77.2455 109.024 76.6279Z" fill="#FECFA5" fill-opacity="0.298039"/>
<path d="M189.589 155.78C190.597 155.289 190.561 155.09 191.445 155.267C191.83 155.775 191.876 156.087 192.507 156.12C194.676 156.235 197.836 155.091 198.472 158.317L198.472 158.5C196.816 158.441 196.339 160.184 195.119 160.576L194.9 160.4C194.962 159.86 195.029 159.147 195.039 158.64C195.069 157.126 192.101 157.156 191.103 156.8C190.595 156.619 190.042 156.161 189.589 155.78Z" fill="#FED1AA" fill-opacity="0.929412"/>
<path d="M87.3564 19.1882C88.0538 19.2213 90.8788 19.2865 91.1896 19.5746C92.2103 20.5209 96.7187 22.5195 96.8288 23.8204C95.6523 22.9102 93.623 21.6847 92.2344 22.7326C91.9397 23.659 91.8207 23.6666 92.5196 24.392L92.5039 24.6746L91.3272 24.9601C90.5944 24.5291 90.408 24.4023 90.0906 23.711C90.3181 22.7371 91.0358 22.2644 91.8196 21.5345C92.0355 20.8265 92.0585 21.1132 91.7457 20.4607C91.0577 20.3921 90.4699 21.1252 89.5757 21.6422C88.5567 21.2225 89.2902 20.3428 87.3564 19.1882Z" fill="#FECFA5" fill-opacity="0.25098"/>
<path d="M138.863 142.348C136.77 140.607 137.002 139.999 135.596 137.798C135.417 137.519 133.972 137.535 133.352 137.041L133.454 136.762C133.989 136.527 134.094 136.475 134.673 136.41C135.309 137.073 135.052 136.996 135.849 137.142C136.772 136.597 136.888 136.267 137.716 136.393C138.608 138.329 137.767 137.87 139.184 139.245L139.838 139.995C139.551 141.129 138.45 140.27 138.863 142.348Z" fill="#FECFA5" fill-opacity="0.819608"/>
<path d="M208.316 193.345C210.246 192.483 210.112 192.696 210.834 190.848C211.123 190.108 212.663 189.244 211.556 188.198C210.866 188.172 210.491 188.494 209.917 188.868L209.801 189.497L209.647 189.423C210.191 189.552 210.465 189.598 210.982 189.841C210.558 190.476 209.486 190.913 208.822 190.535C208.785 189.138 212.047 186.259 213.192 185.51C212.886 187.009 212.174 185.979 212.094 187.36L212.425 187.572C213.729 187.04 213.842 186.049 214.855 185.911C214.99 186.65 214.221 188.227 213.898 189.079C213.114 189.225 212.746 188.852 212.303 189.513C211.694 190.419 211.565 191.325 210.932 192.267C210.137 193.448 209.791 192.753 209.399 193.3L208.316 193.345Z" fill="#FECFA5" fill-opacity="0.772549"/>
<path d="M111.814 90.0996C111.864 89.2769 112.501 88.6878 113.061 88.1685L113.126 88.8129C114.055 89.4453 114.447 88.8472 115.265 89.6404C115.163 90.034 115.067 90.1009 114.805 90.4012C115.074 90.9101 115.306 90.9466 115.838 91.1863L116.24 91.9406C115.819 92.4168 115.569 92.7112 115.198 93.2365L115.006 93.2183C113.878 92.314 113.501 92.5789 112.144 92.7681C111.783 91.1995 112.627 91.1382 111.814 90.0996Z" fill="#FED1AA" fill-opacity="0.0705882"/>
<path d="M107.722 67.4148C108.716 67.4732 108.472 67.322 109.199 67.854C109.501 68.5416 109.914 69.6371 110.488 70.0938L109.643 70.0982C108.851 71.8817 109.174 72.9319 106.934 72.9942C106.714 71.6924 107.612 71.1412 107.433 70.215C107.404 70.0656 106.427 69.3744 106.255 68.596C106.73 68.2314 107.197 67.8823 107.645 67.4839L107.722 67.4148Z" fill="#FECFA5" fill-opacity="0.713725"/>
<path d="M108.611 221.34C109.315 219.846 111.396 218.622 113.043 218.681C112.706 219.1 112.331 219.448 112.278 219.953L112.382 220.209L113.04 219.754L113.323 219.82C113.345 220.353 113.113 220.607 112.828 221.069C113.065 222.173 113.196 222.016 112.894 222.965L111.954 223.722C111.085 223.142 110.151 223.252 109.099 223.239C110.238 223.094 111.105 222.722 111.306 221.449C111.085 220.673 111.248 220.878 110.75 220.41C110.306 220.561 109.696 221.526 109.212 222.044L108.871 221.926L108.611 221.34Z" fill="#FECFA5" fill-opacity="0.85098"/>
<path d="M111.659 85.3236C111.313 84.5016 110.995 83.6056 110.146 83.1948C109.336 82.8028 109.545 82.5453 109.613 81.7725C110.682 83.5281 111.174 81.3689 113.408 83.0125C114.422 84.5679 114.458 86.7053 113.057 87.9887C113.39 86.772 112.575 86.1794 111.659 85.3236Z" fill="#FECFA5" fill-opacity="0.784314"/>
<path d="M189.078 208.966C188.512 208.814 188.559 208.914 188.189 208.56C188.226 207.851 188.259 207.3 188.355 206.593C189.256 205.429 193.191 205.815 194.255 206.418L194.285 206.69L193.63 206.684C192.773 206.635 192.953 206.508 192.446 206.95C192.275 208.054 192.466 207.887 191.818 208.609C190.672 209.057 190.396 208.24 189.078 208.966Z" fill="#FED1AA" fill-opacity="0.984314"/>
<path d="M104.089 36.3005C105 37.4048 105.039 37.2775 104.643 38.7473L104.854 39.2392C106.079 39.1782 105.839 38.817 106.6 39.3003C107.033 40.2733 107.593 42.3048 106.871 43.2093C106.006 43.3189 105.332 42.8272 104.435 42.4207C104.464 41.8826 104.607 41.204 104.701 40.662C104.576 39.2248 103.802 39.5468 104.089 36.3005Z" fill="#FECFA5" fill-opacity="0.784314"/>
<path d="M111.658 85.3235C112.575 86.1792 113.389 86.7718 113.057 87.9885L113.061 88.1686C112.501 88.6879 111.864 89.277 111.814 90.0997C111.332 90.208 111.298 90.1981 110.801 90.1439C110.134 89.5447 110.34 89.2627 109.919 88.2814L109.873 88.1753C110.49 86.1342 111.317 86.7882 111.658 85.3235Z" fill="#FED1AA" fill-opacity="0.929412"/>
<path d="M103.517 57.8193C104.913 57.8478 104.788 57.8044 105.761 56.7485C106.524 56.8787 106.714 56.875 107.3 57.3914C107.541 58.019 107.503 57.7478 107.293 58.5272C106.176 59.8526 105.491 59.7994 103.852 59.7253C103.035 59.6947 103.283 59.8038 102.693 59.4287C102.734 58.6528 102.985 58.5707 103.517 57.8193Z" fill="#FED1AA" fill-opacity="0.662745"/>
<path d="M102.304 41.7624L102.396 41.3925C103.034 41.4581 103.644 40.9946 104.115 41.1497L104.701 40.6619C104.606 41.2039 104.464 41.8825 104.435 42.4206C104.138 44.4438 104.842 44.1654 103.893 46.3225C103.019 46.2166 103.305 46.2833 102.558 45.7369C102.807 44.9739 102.42 42.6877 102.304 41.7624Z" fill="#FECFA5" fill-opacity="0.960784"/>
<path d="M112.145 92.7682C110.742 92.4 111 94.0584 109.551 93.7595C109.342 93.2991 109.645 88.7847 109.873 88.1753L109.92 88.2814C110.34 89.2627 110.134 89.5447 110.802 90.1438C111.298 90.1981 111.332 90.2079 111.814 90.0996C112.627 91.1383 111.784 91.1995 112.145 92.7682Z" fill="#FFD1AB" fill-opacity="0.937255"/>
<path d="M103.787 219.971L104.845 219.472C105.912 220.111 106.759 221.375 108.611 221.34L108.87 221.926L109.212 222.044C109.696 221.526 110.306 220.561 110.749 220.41C111.248 220.878 111.084 220.673 111.306 221.449C111.104 222.723 110.238 223.094 109.099 223.239C108.156 222.775 104.656 220.255 103.787 219.971Z" fill="#FECFA5" fill-opacity="0.94902"/>
<path d="M139.184 139.245C140.661 139.763 141.846 140.348 143.139 141.244L143.445 141.9L142.815 141.456C141.24 141.79 142.177 143.384 138.863 142.348C138.45 140.27 139.551 141.129 139.838 139.995L139.184 139.245Z" fill="#FECFA5" fill-opacity="0.486275"/>
<path d="M21.272 59.4646C22.9261 56.991 22.9395 58.4284 25.2401 59.0529L25.447 59.1078C25.6347 59.2905 26.0711 59.6912 26.2196 59.8774C25.8364 60.2418 25.6957 60.3429 25.2497 60.6283C23.7121 60.7832 22.0666 60.9475 21.272 59.4646Z" fill="#FED1AA" fill-opacity="0.631373"/>
<path d="M198.472 158.318L198.625 158.345C200.733 158.711 200.016 158.273 202.243 159.26C201.929 159.459 201.664 159.883 201.293 160.118C200.291 160.755 199.007 161.24 197.909 161.694C198.064 160.462 198.203 159.703 198.472 158.5L198.472 158.318Z" fill="#FECFA5" fill-opacity="0.0588235"/>
<path d="M205.497 200.658C205.508 198.936 206.762 198.249 206.698 197.618C206.581 196.469 205.383 194.103 207.333 193.6L207.3 193.811C206.782 194.134 206.751 194.22 206.495 194.781C206.623 196.28 207.7 196.449 208.98 196.825C209.51 197.048 209.682 197.112 210.155 197.429L210.119 197.796C208.119 198.339 207.576 197.764 206.536 199.445C206.134 200.033 206.045 200.166 205.497 200.658Z" fill="#FED1AA" fill-opacity="0.811765"/>
<path d="M102.303 41.7625C102.419 42.6878 102.806 44.9739 102.558 45.7369C101.523 45.7619 99.8196 47.2627 98.4697 47.1848C98.5522 46.6244 98.877 46.4566 99.3329 45.9662C99.8796 45.8669 100.024 45.8218 100.537 45.6098C101.277 44.7132 101.133 44.1274 101.031 42.9951C101.477 42.1057 101.365 42.3579 102.303 41.7625Z" fill="#FED1AA" fill-opacity="0.509804"/>
<path d="M124.169 119.424C124.824 119.778 125.735 120.174 126.086 120.807C125.998 120.956 125.681 121.842 125.588 122.081C124.505 123.015 123.486 123.056 122.058 123.379C123.195 121.642 123.304 121.367 124.169 119.424Z" fill="#FECFA5" fill-opacity="0.133333"/>
<path d="M21.0657 57.2535C21.4563 55.1726 21.6436 55.031 23.7109 54.7241C23.0045 55.5436 22.7425 55.5869 22.5657 56.5454C22.8757 57.5311 24.5338 58.3768 25.4471 59.1079L25.2402 59.053C22.9396 58.4284 22.9262 56.991 21.2721 59.4647C20.9786 59.0156 21.0659 57.8612 21.0657 57.2535Z" fill="#FED1AA" fill-opacity="0.815686"/>
<path d="M115.439 97.7302L115.77 98.6901C116.76 98.8848 116.631 98.7179 117.275 99.3232C117.685 100.312 117.38 101.627 117.27 102.765L116.957 102.169C116.417 101.906 116.225 101.713 115.774 101.335C115.325 100.435 115.443 98.7975 115.439 97.7302Z" fill="#FED1AA" fill-opacity="0.309804"/>
<path d="M121.258 225.916C122.954 224.155 126.032 224.072 128.315 224.083C126.973 224.582 125.99 225.03 124.697 225.647C123.892 225.77 122.215 225.916 121.64 226.347L121.258 225.916Z" fill="#FED1AA" fill-opacity="0.0666667"/>
<path d="M102.144 50.2742C100.617 50.1598 101.214 50.291 99.8704 49.2552C99.304 49.1321 99.2019 49.0898 98.6834 49.3294C98.5898 49.9988 98.5719 51.0122 98.0173 51.3823C97.3092 51.1846 96.6637 51.0728 96.5596 50.2431C97.1563 48.828 99.8859 48.5045 101.191 48.77L101.112 49.5553C101.483 49.9994 101.605 50.0169 102.144 50.2742Z" fill="#FED1AA" fill-opacity="0.92549"/>
<path d="M107.577 66.0356L107.397 65.6924L107.049 65.6974C106.666 66.3495 106.504 66.6686 105.985 67.2256C105.397 67.1136 105.612 67.2125 105.163 66.6492C104.951 65.1208 106.022 65.9715 107.307 63.7713L107.359 63.6814C107.193 64.4901 107.013 64.5947 107.342 65.1617C108.116 65.0129 108.464 64.3753 109.248 63.8658C109.353 64.8519 109.454 64.5463 109.029 65.359C108.4 65.8052 108.306 65.8376 107.577 66.0356Z" fill="#FED1AA" fill-opacity="0.65098"/>
<path d="M146.57 145.199C144.619 145.332 143.418 147.091 141.221 148.112L140.873 147.725L140.907 147.318C141.662 146.46 143.005 146.381 143.47 145.901C143.743 145.621 143.298 145.176 144.335 144.339L144.326 144.875C145.064 144.987 145.975 144.991 146.57 145.199Z" fill="#FED1AA" fill-opacity="0.827451"/>
<path d="M121.64 226.347C122.215 225.916 123.891 225.77 124.696 225.647C126.009 227.025 126.663 225.369 128.122 225.997L128.592 226.592C126.729 226.524 123.149 227.168 121.64 226.347Z" fill="#FECFA5" fill-opacity="0.956863"/>
<path d="M115.006 93.2184L115.199 93.2366C115.569 92.7113 115.819 92.4169 116.24 91.9407C116.487 93.1123 115.954 95.1817 115.81 96.5694C115.773 96.0768 115.785 95.5796 115.569 95.1497L114.667 95.388L114.831 94.8452L114.638 94.4882C114.929 94.0111 114.925 93.7609 115.006 93.2184Z" fill="#FED1AA" fill-opacity="0.831373"/>
<path d="M208.979 196.825C207.7 196.448 206.622 196.28 206.495 194.781C206.751 194.22 206.782 194.134 207.3 193.811C208.062 195.47 207.851 195.751 208.979 196.825Z" fill="#FED1AA" fill-opacity="0.658824"/>
<path d="M95.3947 216.737C94.9476 216.029 94.4108 215.919 93.8418 214.678L93.9746 214.508C95.6097 214.996 95.4045 215.791 96.8212 215.734C96.2126 216.105 95.954 216.274 95.3947 216.737Z" fill="#FECFA5" fill-opacity="0.713725"/>
<path d="M114.638 94.4883L114.831 94.8453L114.667 95.388C113.785 95.4792 113.057 95.6295 112.228 95.3147L112.139 95.0443C112.787 94.5493 113.797 94.562 114.638 94.4883Z" fill="#FED1AA" fill-opacity="0.34902"/>
<path d="M208.315 193.345L209.398 193.301L209.699 193.603C209.474 194.381 208.972 194.431 208.209 194.339L207.855 194.062L207.94 193.625L208.315 193.345Z" fill="#FECFA5" fill-opacity="0.560784"/>
</svg>
