<svg width="281" height="215" viewBox="0 0 281 215" fill="none" xmlns="http://www.w3.org/2000/svg">
<path d="M21.8648 59.3994C22.9138 58.8606 24.6176 58.0304 25.3439 57.1416C26.5329 55.8313 26.4797 53.6651 27.6402 52.3344C30.8083 48.7018 34.2273 45.0949 37.6436 41.6961C39.764 39.5866 41.2952 39.2983 43.5838 37.7961C46.8613 35.6446 50.0563 33.4837 53.5242 31.6339C58.9861 29.1182 64.7928 26.7952 70.5554 25.071C73.5366 24.3546 76.6304 24.0514 79.6335 23.4591C81.5221 23.0866 83.3502 22.5134 85.2552 22.1552C87.7409 21.6876 90.5823 21.648 93.0103 21.089C98.0095 19.938 103.031 19.2889 108.151 19.0174C108.822 18.9805 110.269 19.4488 110.971 19.6675C111.069 19.6301 111.168 19.5948 111.268 19.5615C112.799 19.0469 125.54 18.9904 127.76 19.4394C128.521 19.5933 129.02 20.6287 129.4 20.6558C131.056 20.7742 136.457 20.2178 137.755 19.6396C140.169 20.4445 141.535 20.4948 143.969 20.9447C144.356 21.0162 145.803 22.3467 146.236 22.4437C146.451 22.492 147.207 22.1934 147.756 22.4481C148.041 23.1391 147.922 24.0934 147.887 24.8644C150.497 22.521 151.582 22.496 154.825 21.9973C155.672 22.6434 156.989 23.9661 157.802 24.7447C158.644 25.6122 159.665 24.5154 160.539 24.8553C163.163 25.8759 163.518 29.0671 166.699 27.6054C166.511 27.6919 169.584 26.7714 169.28 26.8113C169.616 27.3492 169.737 27.479 169.69 28.1221C168.737 28.7281 168.621 27.8618 168.195 28.694C168.54 30.5243 171.266 30.6775 172.852 30.8548C173.917 29.7399 172.957 27.6946 171.273 27.6699L171.352 28.0885L171.137 27.7658C171.713 28.3776 172.43 28.0952 173.161 27.8924C173.75 28.1238 176.85 29.2374 177.022 29.5532C176.552 29.9223 176.074 30.2587 175.717 30.738C174.34 32.0074 172.517 32.8164 171.436 34.5249L171.463 34.8992C172.438 35.0582 172.788 34.6225 173.571 34.8081C177.044 36.4032 177.536 35.3647 180.941 35.6347C181.375 35.6692 184.029 37.0786 184.636 37.3938C185.999 36.8086 187.981 35.7177 189.222 34.8973C190.092 35.8541 190.227 36.1756 190.408 37.4597C190.803 37.8336 190.989 37.9865 191.436 38.2968L191.403 38.6995C189.865 38.899 187.879 38.697 186.817 39.6385L186.731 40.1037C188.25 39.6994 190.301 38.01 190.901 41.143C190.923 41.2568 190.943 41.3709 190.962 41.4851L192.815 41.2052L192.738 40.9805L192.816 40.9268C193.901 40.1797 194.168 39.937 195.439 40.1741C195.785 40.5339 195.798 40.5663 196.252 40.7456L196.358 41.0819C197.506 42.3929 198.533 42.7358 200.218 42.6163L200.239 43.5694L201.495 44.696C201.475 45.4399 201.309 45.9694 201.677 46.441C202.556 46.3398 204.18 44.5665 204.541 43.6934L204.268 43.3392C205.864 42.5137 209.735 42.3115 211.126 43.4684C210.303 44.9486 208.094 43.7243 206.921 44.3844L206.916 44.6169C208.152 44.8237 209.377 44.3235 209.874 45.6551C209.434 46.1529 208.178 46.2426 207.064 46.9869C206.621 46.9168 206.644 46.9226 206.276 46.6621L206.02 46.9793L206.21 47.1964C208.333 46.8697 209.796 46.2126 211.972 46.3318C213.387 45.5865 212.724 44.6265 213.797 44.6691C214.912 46.0169 216.606 45.3244 217.341 46.9098C217.047 47.694 216.449 47.929 215.689 48.0401L215.665 48.2723C216.921 48.3793 216.306 47.8748 217.393 48.4083C217.916 49.232 218.307 49.7846 218.909 50.5531C219.705 50.9165 220.091 51.285 220.87 51.0139L221.141 51.8769C220.625 52.3881 220.469 52.3508 220.455 52.9288C221.152 53.1574 222.615 52.8282 223.409 52.7048L224.425 52.958C224.056 54.3341 223.594 55.9142 223.289 57.2878C224.198 56.145 224.885 55.273 225.676 54.0489C225.836 53.5841 225.905 53.384 226.143 52.9546L226.472 53.1135C227.973 54.6265 228.284 55.4571 230.482 54.9562C230.988 54.9975 232.028 55.0181 232.395 55.2707C235.555 54.806 237.105 56.2481 240.361 57.2067C242.658 58.0833 243.051 59.5167 244.176 61.7268C243.832 62.3896 243.238 63.4081 243.58 64.1676C244.073 64.2612 243.867 64.2923 244.34 64.008C244.493 63.5012 244.457 63.2639 244.821 63.0399C245.694 63.7246 244.861 64.3809 245.784 65.2004C246.133 65.1237 247.067 64.8907 247.328 65.087C248.247 65.7832 250.75 67.9177 251.025 68.9658C251.287 69.9707 250.248 70.1865 250.679 71.5242C251.663 71.4528 251.145 70.8294 252.281 70.9478C253.561 72.5173 252.213 72.3624 253.196 74.1128C254 75.5458 257.252 77.5948 257.561 78.4638C256.721 80.4679 257.198 80.5878 258.741 82.0143C259.352 84.7234 259.514 86.7827 261.366 88.8407C260.874 89.7969 260.868 89.4773 261.002 90.4316C261.332 90.7619 261.605 91.047 261.911 91.3976C261.771 92.1424 261.59 92.4319 261.246 93.101L261.945 93.6259L261.924 93.9795C260.65 94.4708 256.465 95.4564 255.93 95.7694L256.089 96.1537C259.388 96.4932 260.068 95.8851 263.119 95.7663C263.257 97.1453 262.617 96.4518 262.842 97.7418C264.043 98.2195 264.32 97.0006 264.714 97.8314C264.372 98.9615 264.047 99.3938 263.314 100.338C261.949 101.166 259.959 101.964 262.128 103.801C262.644 104.251 262.955 104.635 263.612 104.71C265.092 105.45 265.04 105.133 266.583 105.132L266.694 105.553C264.435 109.581 265.918 107.641 262.178 109.769C261.953 110.649 261.559 111.818 261.716 112.676C262.464 113.512 264.192 111.949 265.004 111.39C265.349 111.834 265.978 112.69 266.34 113.064C265.789 113.589 265.147 114.174 264.624 114.712C264.015 117.205 263.385 117.825 264.257 120.078C263.875 120.986 263.723 122.444 263.776 123.424C262.787 125.94 261.534 124.03 260.419 126.191C260.312 126.397 260.536 126.764 260.576 126.993C260.767 128.126 259.631 128.716 260.503 129.879L261.351 129.922L261.588 130.464C258.162 132.502 258.623 133.994 257.061 137.26C255.296 140.953 253.318 143.839 249.99 146.193C249.236 146.726 248.016 149.07 247.279 149.799C245.707 151.425 243.578 153.295 241.566 154.317C238.736 155.754 236.097 158.338 233.735 160.489C230.377 163.545 226.367 165.114 222.529 167.45C219.216 169.466 216.203 172.222 212.44 173.557C210.799 174.119 205.968 175.754 204.424 176.028C200.044 176.805 199.818 175.155 195.804 178.187L193.582 177.651C190.92 179.04 189.95 179.421 186.958 179.857C185.26 180.105 182.31 180.222 180.851 180.893C179.287 180.778 179.942 179.648 176.941 179.938C175.893 179.44 174.806 179.456 173.694 179.693L173.139 180.156L172.78 180.321C171.524 181.043 171.011 181.515 169.924 182.46C166.361 182.67 166.288 178.468 159.18 179.073C158.207 179.077 156.778 179.177 155.919 178.826C155.479 177.9 156.403 177.68 155.277 177.28C152.763 176.387 150.911 178.87 150.297 180.936C150.021 181.494 149.474 182.25 148.84 182.396C148.055 181.946 145.666 180.664 145.185 180.105C145.543 179.941 145.933 179.724 146.285 179.539L146.221 179.304C145.105 179.076 142.837 178.637 141.946 179.45C142.428 180.079 143.538 181.095 143.074 181.84L142.468 181.932C141.25 181.501 141.475 180.281 140.247 180.154C139.852 180.565 139.729 180.731 139.197 180.965C138.68 180.809 137.89 180.231 137.548 180.219C134.475 180.114 131.543 179.786 128.498 179.442C128.274 178.087 127.476 176.357 125.916 176.304C125.346 177.107 126.035 177.509 125.475 178.284C123.522 178.162 123.147 177.201 120.455 177.346C119.294 175.95 117.853 174.348 115.778 174.416C115.003 174.442 114.723 174.706 113.906 174.482C112.645 173.174 112.847 173.488 111.224 174.11C108.862 175.014 109.541 172.315 108.416 171.98C106.583 171.434 104.288 170.594 102.428 170.695C102.047 170.716 100.687 171.61 100.084 171.815C99.3599 171.462 97.5263 170.582 97.0537 170.057C96.5624 169.51 93.7094 167 93.6053 166.615C93.911 166.264 94.1672 165.957 94.4512 165.588L94.3049 165.212C90.8634 162.624 90.0192 165.589 87.2762 165.82C86.8771 165.853 85.0945 163.949 84.8749 163.265C85.3265 162.95 85.424 162.891 85.7547 162.455C84.7668 162.298 83.9467 163.123 83.4812 162.997C81.7465 162.525 79.561 160.453 77.6231 161.077C76.1221 161.561 76.5059 161.587 75.017 161.088C73.9656 160.243 70.7511 157.538 69.8839 157.619C66.2596 157.96 66.3022 156.55 63.6424 154.708C62.7849 154.114 60.1724 153.589 58.8123 152.789C58.7432 151.977 59.5087 151.69 59.9393 150.497C59.772 149.877 59.9248 150.082 59.3556 149.739C58.1087 149.73 58.0997 151.147 56.4521 150.974C55.2417 150.138 55.0519 149.03 54.6494 147.655C53.5099 146.714 52.9604 146.283 51.5134 145.816C49.7325 145.241 48.381 143.666 46.9358 142.45C44.7398 140.599 42.4697 138.838 40.1312 137.17C39.8883 136.606 39.5601 135.96 39.292 135.397C37.0108 134.149 36.6551 134.309 37.1231 131.696C36.6988 130.333 33.6281 129.74 32.1367 127.433C28.5605 121.903 23.9054 117.261 21.8614 110.778C21.2794 108.931 19.4997 105.986 18.3793 104.382C18.4387 101.959 17.5205 101.229 17.2852 99.0085C17.0041 96.3561 16.3111 93.8993 15.997 91.2968C15.7244 90.0423 16.2646 87.5612 15.9999 86.426C15.0396 82.3084 15.1474 77.4644 15.9648 73.304C16.5917 70.1135 18.266 69.1638 17.9817 65.403C18.9362 64.935 20.0308 64.6698 20.8171 63.9683L22.7198 63.8717C24.3482 63.8493 24.5445 62.8883 24.8599 61.5072L24.3115 61.2894C24.6735 60.6688 24.6321 60.931 24.5355 60.2961C23.9986 59.7517 22.6708 59.5785 21.8648 59.3994ZM253.677 90.2178C254.002 89.6505 254.164 89.4685 254.051 88.8069C253.053 87.8984 252.348 88.5226 250.548 87.6118C250.393 88.2707 250.107 89.0482 250.383 89.6308C251.161 90.2071 252.081 89.4093 253.677 90.2178ZM21.5303 67.8606C22.0886 67.4913 22.6769 67.2173 22.9075 66.6317C22.3097 66.2472 21.6643 66.4184 20.8259 66.454C20.3356 66.6197 20.0337 66.6655 19.6941 67.0505C19.9287 67.7405 20.8568 67.7571 21.5303 67.8606ZM33.4801 95.8828C33.6936 95.0039 33.8964 94.5036 33.6216 93.6553C33.2237 93.092 32.7015 92.8684 32.0135 92.8846C31.8969 93.8794 32.5695 95.4952 33.4801 95.8828ZM20.7587 91.7443C21.582 91.0776 22.484 89.5974 22.8229 88.5921C22.7387 88.0441 22.8436 88.1865 22.4987 87.8827C22.0156 88.5867 20.6719 90.7234 20.5464 91.4869L20.7587 91.7443Z" fill="#FFCA9C"/>
<path d="M192.815 41.2053C192.801 42.3578 192.308 43.6701 191.119 43.9795C190.419 43.6934 190.648 43.8977 190.281 43.1867C190.261 42.5222 190.507 41.9721 190.963 41.4852L192.815 41.2053Z" fill="#FDD3B3"/>
<path d="M250.548 87.6118C252.348 88.5226 253.053 87.8984 254.05 88.8069C254.164 89.4685 254.002 89.6505 253.677 90.2178C252.081 89.4093 251.161 90.2071 250.382 89.6308C250.107 89.0482 250.393 88.2707 250.548 87.6118Z" fill="#FDD3B3" fill-opacity="0.980392"/>
<path d="M20.8262 66.4542C21.6645 66.4185 22.3099 66.2474 22.9077 66.6319C22.6772 67.2175 22.0889 67.4915 21.5306 67.8608C20.857 67.7573 19.9289 67.7407 19.6943 67.0507C20.0339 66.6657 20.3358 66.6199 20.8262 66.4542Z" fill="#FDD3B3" fill-opacity="0.160784"/>
<path d="M32.0131 92.8846C32.7012 92.8684 33.2234 93.092 33.6212 93.6554C33.8961 94.5036 33.6932 95.0039 33.4797 95.8828C32.5691 95.4953 31.8966 93.8794 32.0131 92.8846Z" fill="#FDD3B3" fill-opacity="0.980392"/>
<path d="M22.4992 87.8828C22.8441 88.1866 22.7391 88.0443 22.8233 88.5923C22.4845 89.5976 21.5825 91.0778 20.7592 91.7444L20.5469 91.487C20.6724 90.7236 22.016 88.5868 22.4992 87.8828Z" fill="#FDD3B3" fill-opacity="0.584314"/>
<path d="M157.802 24.7449C160.24 24.6504 159.105 23.2771 162.694 23.9613C164.137 25.2228 164.478 25.5146 166.455 25.408C167.274 25.3639 167.424 25.3525 167.685 26.1619C169.501 26.4446 169.887 24.3449 171.894 25.4397C172.648 26.7841 172.304 27.2042 174.137 27.5225C174.263 27.5443 174.282 27.5762 174.392 27.6529C176.18 28.4316 179.769 29.6853 181.277 30.6524C181.336 32.0478 180.47 31.9718 181.612 33.186C182.639 33.5028 183.631 32.8255 184.069 32.9086C185.504 33.1805 185.459 35.9604 187.71 35.016C188.398 34.7273 188.877 34.0181 189.59 34.0031C190.066 34.3893 190.143 34.6074 190.697 34.51C192.956 34.1125 193.436 33.0619 195.7 33.6494C195.697 34.5064 193.466 36.8538 193.467 37.8572C194.136 38.2364 194.949 38.4703 195.268 38.9824C194.978 39.5764 195.152 39.4031 194.64 39.7116C193.841 39.4222 193.496 39.2056 192.763 38.7701C192.486 39.4397 192.011 40.2405 192.117 40.8428L192.739 40.9808L192.815 41.2054L190.963 41.4853C190.944 41.3711 190.924 41.2571 190.902 41.1433C190.302 38.0103 188.251 39.6996 186.731 40.104L186.817 39.6387C187.879 38.6972 189.866 38.8992 191.403 38.6998L191.436 38.2971C190.99 37.9867 190.803 37.8339 190.408 37.4599C190.227 36.1758 190.093 35.8544 189.223 34.8976C187.981 35.7179 185.999 36.8089 184.637 37.394C184.029 37.0789 181.376 35.6694 180.941 35.635C177.537 35.365 177.044 36.4034 173.571 34.8083C174.741 33.6177 173.911 32.9208 174.964 32.3027C175.129 32.7501 174.996 32.5683 175.392 32.8559C176.541 32.7316 177.4 31.4504 177.62 30.3994L177.405 30.1472C176.7 30.2442 176.458 30.6375 175.981 31.1775L175.718 30.7383C176.075 30.2589 176.553 29.9226 177.023 29.5534C176.851 29.2377 173.75 28.124 173.161 27.8927C172.43 28.0955 171.714 28.3779 171.137 27.766L171.352 28.0888L171.273 27.6701C172.957 27.6949 173.918 29.7401 172.852 30.855C171.267 30.6778 168.54 30.5245 168.195 28.6943C168.621 27.862 168.738 28.7283 169.691 28.1224C169.737 27.4792 169.617 27.3495 169.281 26.8116C169.585 26.7717 166.511 27.6921 166.7 27.6056C163.519 29.0674 163.164 25.8762 160.54 24.8556C159.666 24.5156 158.645 25.6125 157.802 24.7449Z" fill="#FECEA4" fill-opacity="0.772549"/>
<path d="M75.0166 161.088C76.5054 161.587 76.1216 161.561 77.6226 161.078C79.5606 160.453 81.7461 162.525 83.4808 162.997C83.9462 163.124 84.7664 162.298 85.7542 162.455C85.4235 162.892 85.3261 162.95 84.8745 163.265C85.0941 163.95 86.8767 165.854 87.2758 165.82C90.0187 165.589 90.863 162.624 94.3045 165.212L94.4508 165.588C94.1667 165.957 93.9106 166.265 93.6049 166.615C93.709 167 96.562 169.511 97.0533 170.057C97.5259 170.583 99.3595 171.462 100.083 171.815C100.687 171.611 102.046 170.716 102.428 170.695C104.287 170.595 106.582 171.434 108.416 171.98C109.54 172.315 108.861 175.014 111.223 174.11C112.847 173.489 112.645 173.174 113.906 174.482C114.723 174.706 115.002 174.442 115.778 174.416C117.853 174.348 119.294 175.95 120.454 177.346C123.147 177.201 123.521 178.162 125.474 178.285C126.035 177.509 125.346 177.107 125.916 176.304C127.475 176.357 128.274 178.088 128.497 179.442C126.67 178.485 126.552 179.637 124.68 178.936C120.204 177.258 115.568 179.819 112.816 174.596C112.234 174.777 111.642 174.922 111.042 175.028C108.332 175.523 101.426 173.561 99.2805 172.083C98.3502 171.286 96.8523 171.517 96.3174 171.121C95.1107 170.23 94.2259 168.202 92.5851 167.578C92.0803 167.386 90.8311 168.053 90.2677 168.302C89.9585 168.018 90.0616 167.375 89.7418 166.62C89.4439 166.479 89.3242 166.348 89.0584 166.43C86.4234 167.243 85.8947 165.139 83.8037 163.905C81.53 162.564 81.7906 163.07 79.7854 163.463C79.0466 163.228 79.286 163.356 78.81 162.564C78.0589 162.183 77.4513 162.465 76.5867 162.663L75.0166 161.088Z" fill="#FECEA4" fill-opacity="0.772549"/>
<path d="M203.779 37.7898C205.723 38.5016 203.918 40.1447 204.268 41.3841C204.993 41.4202 205.589 41.3694 206.156 41.8093L207.141 42.0442C208.127 42.1066 210.845 42.1211 211.568 42.3564C211.862 42.7409 211.893 42.7999 212.038 43.2614C212.997 43.4613 215.133 43.9872 215.996 44.0993C221.125 44.7655 218.404 47.335 219.09 48.6066C219.536 48.604 219.727 48.5994 220.163 48.5339C219.647 49.0748 219.565 48.9662 219.578 49.5615L220.178 50.2472L219.242 49.9098C218.908 50.2976 219.002 50.0838 218.91 50.5533C218.307 49.7849 217.917 49.2322 217.394 48.4086C216.306 47.8751 216.922 48.3796 215.666 48.2725L215.689 48.0403C216.449 47.9292 217.048 47.6943 217.341 46.9101C216.607 45.3247 214.912 46.0171 213.797 44.6694C212.724 44.6268 213.388 45.5867 211.973 46.3321C209.796 46.2128 208.334 46.87 206.211 47.1967L206.02 46.9796L206.277 46.6623C206.645 46.9229 206.621 46.917 207.065 46.9871C208.178 46.2428 209.434 46.1532 209.874 45.6554C209.377 44.3238 208.153 44.8239 206.916 44.6171L206.921 44.3847C208.095 43.7246 210.304 44.9488 211.127 43.4686C209.735 42.3117 205.864 42.5139 204.268 43.3395C202.918 42.8818 202.034 41.1511 200.634 42.1826L201.155 40.8116C202.269 39.8917 202.527 40.6623 204.114 39.9864L204.202 39.6595C203.699 39.231 203.279 39.362 202.48 39.3173C203.475 38.7611 203.408 38.714 203.779 37.7898Z" fill="#FECEA4" fill-opacity="0.760784"/>
<path d="M203.778 37.7896L204.292 37.3445C205.07 37.7598 204.708 38.0793 205.951 38.5442C206.74 38.4802 207.051 38.4063 207.819 38.2135C209.331 38.9089 210.126 39.341 211.787 39.6062L212.237 41.8954C213.641 42.7619 213.723 42.9725 215.564 42.4499C217.217 41.9808 216.728 42.2723 218.262 42.2569C219.999 42.9481 220.448 44.6696 221.632 46.0241C221.895 46.3235 222.743 46.989 222.806 47.0835C221.786 47.7655 221.338 48.1002 220.163 48.5337C219.726 48.5992 219.535 48.6038 219.09 48.6064C218.403 47.3348 221.124 44.7653 215.995 44.0991C215.132 43.987 212.997 43.4611 212.037 43.2612C211.892 42.7997 211.861 42.7407 211.567 42.3562C210.845 42.1209 208.126 42.1064 207.14 42.044C207.969 41.9435 209.254 41.9145 209.801 41.352L209.758 40.9514C209.065 40.32 207.785 40.0754 206.873 40.0101C206.548 40.5743 206.369 41.1914 206.156 41.8091C205.588 41.3692 204.993 41.42 204.268 41.3839C203.917 40.1445 205.722 38.5014 203.778 37.7896Z" fill="#FECEA4" fill-opacity="0.266667"/>
<path d="M174.392 27.6526C176.513 28.0173 176.994 27.7022 178.969 26.9451C179.155 27.7616 179.253 28.5343 179.808 29.1562C180.652 29.6712 181.915 29.2458 182.926 29.0386C183.24 29.2238 184.512 29.9622 184.704 30.1644C186.117 31.6522 187.246 30.4751 188.42 30.8862C188.447 31.7807 188.071 32.4704 188.417 33.1286C189.775 33.6611 189.304 32.5995 190.758 32.7595C191.422 33.1939 191.638 33.4877 192.152 34.0837C193.569 33.178 194.196 32.4259 195.699 33.6491C193.436 33.0617 192.956 34.1123 190.697 34.5098C190.143 34.6072 190.066 34.389 189.59 34.0029C188.876 34.0178 188.397 34.7271 187.709 35.0158C185.458 35.9602 185.504 33.1803 184.069 32.9084C183.631 32.8252 182.639 33.5026 181.612 33.1857C180.469 31.9715 181.335 32.0475 181.277 30.6521C179.768 29.6851 176.18 28.4314 174.392 27.6526Z" fill="#FECEA4" fill-opacity="0.537255"/>
<path d="M76.5874 162.663C77.452 162.465 78.0596 162.183 78.8107 162.564C79.2867 163.356 79.0473 163.228 79.7862 163.463C81.7913 163.07 81.5307 162.564 83.8044 163.905C85.8954 165.139 86.4241 167.243 89.0591 166.43C89.3249 166.348 89.4446 166.479 89.7425 166.62C90.0623 167.375 89.9592 168.018 90.2685 168.302C90.8318 168.053 92.081 167.386 92.5858 167.578C94.2266 168.202 95.1114 170.23 96.3181 171.121C96.853 171.517 98.3509 171.286 99.2812 172.083C97.4863 171.671 96.0726 171.485 94.2491 171.34C93.9403 171.126 92.4119 169.913 92.1999 169.88C89.6155 169.585 88.4017 166.952 86.3703 166.537C83.6488 165.982 83.0609 167.756 81.1068 164.697C80.4601 164.357 79.7885 164.604 79.0467 164.758C78.2742 163.984 77.4044 163.399 76.5874 162.663Z" fill="#FECEA4" fill-opacity="0.376471"/>
<path d="M262.178 109.769C265.918 107.641 264.435 109.581 266.694 105.552C266.982 107.932 266.478 111.421 266.907 113.957C266.743 114.299 266.606 114.588 266.493 114.825C266.102 114.899 266.243 114.889 265.821 114.694C265.323 116.865 267.958 117.536 264.257 120.078C263.385 117.825 264.015 117.205 264.624 114.712C265.147 114.173 265.79 113.589 266.34 113.064C265.979 112.69 265.349 111.834 265.004 111.39C264.192 111.949 262.464 113.512 261.716 112.676C261.559 111.818 261.954 110.649 262.178 109.769Z" fill="#FECEA4" fill-opacity="0.0901961"/>
<path d="M159.18 179.073C166.288 178.468 166.362 182.67 169.924 182.46C168.437 182.924 166.868 183.194 165.305 183.101C164.67 183.063 164.274 182.798 163.639 183.058C160.158 183.233 161.933 182.503 160.935 181.394C160.058 181.238 159.97 181.524 159.148 181.721L158.873 181.29C158.802 180.596 158.879 180.458 159.189 179.844L159.276 179.675L159.108 179.33L159.18 179.073Z" fill="#FECEA4" fill-opacity="0.831373"/>
<path d="M150.297 180.936C150.911 178.87 152.764 176.387 155.277 177.28C156.403 177.679 155.479 177.9 155.919 178.826C156.778 179.177 158.207 179.077 159.18 179.073L159.108 179.33C157.923 179.317 157.097 179.125 156.203 179.84C155.934 180.799 156.428 181.183 157.015 181.945L156.618 182.401L157.123 182.248C156.653 182.775 155.558 182.347 154.917 182.188C153.02 181.106 151.947 181.728 150.297 180.936Z" fill="#FECEA4" fill-opacity="0.886275"/>
<path d="M261.366 88.8408C262.506 90.4109 262.939 90.9665 263.59 92.8416C263.157 93.8635 262.664 94.6557 263.119 95.7664C260.069 95.8852 259.388 96.4933 256.09 96.1538L255.93 95.7695C256.466 95.4565 260.65 94.4709 261.925 93.9796L261.946 93.626L261.246 93.1011C261.591 92.432 261.771 92.1425 261.912 91.3977C261.605 91.0471 261.332 90.762 261.003 90.4317C260.868 89.4774 260.875 89.797 261.366 88.8408Z" fill="#FECEA4" fill-opacity="0.913725"/>
<path d="M159.108 179.33L159.276 179.674L159.189 179.844C158.879 180.457 158.802 180.596 158.873 181.29L159.148 181.721C159.97 181.524 160.058 181.237 160.935 181.394C161.933 182.503 160.158 183.233 163.639 183.058C161.22 183.863 157.018 183.632 154.917 182.188C155.558 182.347 156.653 182.775 157.123 182.248L156.618 182.401L157.015 181.945C156.428 181.183 155.934 180.799 156.203 179.84C157.097 179.126 157.923 179.317 159.108 179.33Z" fill="#FECEA4" fill-opacity="0.431373"/>
<path d="M227.446 51.236C228.026 50.7789 228.67 50.1342 229.374 50.1568C230.216 50.3594 230.94 51.1407 231.778 51.6898C230.928 51.6866 230.829 51.555 230.176 51.9129C230.644 53.1137 231.788 53.2088 231.333 54.4732C231.079 54.6508 230.768 54.9227 230.482 54.9561C228.284 55.4571 227.973 54.6265 226.472 53.1135C227.381 53.3251 228.622 53.1914 228.937 52.1664C227.948 51.7767 227.761 52.4637 226.84 51.9602L227.446 51.236Z" fill="#FECEA4" fill-opacity="0.729412"/>
<path d="M263.776 123.424C263.801 124.499 262.466 130.167 261.588 130.464L261.351 129.922L260.503 129.879C259.631 128.716 260.767 128.126 260.576 126.993C260.536 126.764 260.311 126.397 260.419 126.191C261.533 124.03 262.787 125.94 263.776 123.424Z" fill="#FECEA4" fill-opacity="0.290196"/>
<path d="M222.806 47.0835C223.698 48.0592 224.612 48.8169 225.609 49.6795C223.881 50.0864 221.75 50.0675 221.141 51.8769L220.87 51.014L220.723 50.4884L220.177 50.247L219.577 49.5612C219.564 48.966 219.646 49.0746 220.163 48.5337C221.338 48.1001 221.786 47.7654 222.806 47.0835Z" fill="#FECEA4" fill-opacity="0.976471"/>
<path d="M196.784 37.691L197.193 37.4082C197.366 36.4295 197.179 36.6019 197.807 36.0776C198.844 36.1797 200.318 37.2826 201.21 37.8963C201.537 38.4185 201.474 38.6671 201.435 39.2678L199.44 39.7492C198.855 39.9651 199.019 39.9281 198.565 40.4872C197.742 39.5019 197.714 38.3765 196.784 37.691Z" fill="#FECEA4" fill-opacity="0.0392157"/>
<path d="M200.634 42.1824C202.033 41.1508 202.918 42.8815 204.268 43.3393L204.541 43.6935C204.18 44.5665 202.556 46.3398 201.677 46.441C201.309 45.9694 201.475 45.4399 201.495 44.696L200.239 43.5694L200.218 42.6164L200.634 42.1824Z" fill="#FECEA4" fill-opacity="0.980392"/>
<path d="M262.128 103.801C262.785 102.921 262.09 101.922 263.069 101.213L263.686 101.519L263.852 101.632C264.929 102.351 265.821 102.541 266.722 103.28L266.779 103.593C265.141 104.551 264.616 103.118 263.612 104.71C262.955 104.635 262.644 104.251 262.128 103.801Z" fill="#FECEA4" fill-opacity="0.941176"/>
<path d="M198.564 40.4873C199.019 39.9282 198.855 39.9651 199.44 39.7493L199.61 40.25C200.245 40.553 200.489 40.624 201.155 40.8115L200.634 42.1825L200.218 42.6165C198.533 42.736 197.506 42.3931 196.358 41.0821C197.114 40.6729 197.597 40.9083 198.516 41.0769L198.764 40.8581L198.564 40.4873Z" fill="#FECEA4" fill-opacity="0.172549"/>
<path d="M176.941 179.938C179.942 179.648 179.287 180.778 180.85 180.893C179.474 182.055 177.603 183.095 175.777 182.333C176.396 182.301 176.56 182.305 177.161 182.097C177.263 181.569 176.778 181.088 176.404 180.517C176.681 180.604 177.119 180.846 177.393 180.984C178.066 180.9 177.919 181.02 178.337 180.635C177.929 180.018 177.877 180.182 176.941 179.938Z" fill="#FECEA4" fill-opacity="0.858824"/>
<path d="M173.571 34.8084C172.788 34.6228 172.439 35.0584 171.463 34.8995L171.437 34.5251C172.517 32.8167 174.341 32.0077 175.717 30.7383L175.981 31.1775L174.964 32.3027C173.911 32.9208 174.741 33.6177 173.571 34.8084Z" fill="#FECEA4" fill-opacity="0.819608"/>
<path d="M20.8174 63.9684C21.2644 61.5873 22.1177 61.5331 24.3118 61.2896L24.8602 61.5073C24.0838 61.884 23.4035 62.7893 22.8177 63.4597L22.7201 63.8719L20.8174 63.9684Z" fill="#FECEA4" fill-opacity="0.972549"/>
<path d="M231.778 51.69C232.704 53.2958 233.41 53.6378 232.396 55.2709C232.028 55.0183 230.989 54.9977 230.483 54.9564C230.768 54.923 231.079 54.6511 231.333 54.4735C231.789 53.2091 230.644 53.114 230.176 51.9132C230.829 51.5552 230.928 51.6869 231.778 51.69Z" fill="#FECEA4" fill-opacity="0.843137"/>
<path d="M196.784 37.6909C197.713 38.3764 197.741 39.5018 198.564 40.4872L198.764 40.858L198.515 41.0767C197.596 40.9081 197.114 40.6728 196.358 41.082L196.252 40.7456C195.798 40.5663 195.785 40.534 195.439 40.1741C197.242 40.0234 195.677 39.1229 196.784 37.6909Z" fill="#FECEA4" fill-opacity="0.933333"/>
<path d="M172.78 180.321L173.139 180.156C174.31 180.359 175.298 180.345 176.404 180.517C176.778 181.088 177.264 181.569 177.161 182.098C176.56 182.305 176.396 182.301 175.777 182.333C174.924 181.423 173.858 181.522 172.78 180.321Z" fill="#FECEA4" fill-opacity="0.984314"/>
<path d="M206.156 41.809C206.369 41.1913 206.549 40.5742 206.873 40.01C207.786 40.0753 209.066 40.3199 209.759 40.9513L209.802 41.3519C209.255 41.9144 207.97 41.9433 207.141 42.0439L206.156 41.809Z" fill="#FECEA4" fill-opacity="0.219608"/>
<path d="M201.435 39.2678L202.48 39.3172C203.279 39.3619 203.699 39.2309 204.201 39.6594L204.114 39.9863C202.527 40.6622 202.269 39.8916 201.155 40.8115C200.49 40.624 200.245 40.553 199.611 40.25L199.44 39.7493L201.435 39.2678Z" fill="#FECEA4" fill-opacity="0.941176"/>
<path d="M225.968 51.406C226.462 51.5473 226.928 51.3646 227.446 51.2363L226.84 51.9605C227.761 52.464 227.948 51.777 228.937 52.1667C228.622 53.1917 227.381 53.3254 226.472 53.1138L226.143 52.9549C225.905 53.3842 225.836 53.5843 225.676 54.0492C225.561 53.0023 225.643 52.7705 224.652 52.3794C225.179 51.7339 225.252 52.5771 225.987 52.0535L225.968 51.406Z" fill="#FECEA4" fill-opacity="0.533333"/>
<path d="M224.652 52.3792C225.643 52.7703 225.561 53.0021 225.677 54.049C224.885 55.273 224.199 56.145 223.29 57.2878C223.594 55.9143 224.056 54.3341 224.425 52.958L224.652 52.3792Z" fill="#FECEA4" fill-opacity="0.0509804"/>
<path d="M173.139 180.156L173.694 179.693C174.806 179.456 175.893 179.44 176.942 179.937C177.877 180.182 177.929 180.018 178.338 180.635C177.92 181.02 178.067 180.9 177.394 180.984C177.12 180.846 176.681 180.604 176.404 180.517C175.299 180.345 174.311 180.359 173.139 180.156Z" fill="#FECEA4" fill-opacity="0.364706"/>
<path d="M263.314 100.338L263.686 101.519L263.069 101.213C262.09 101.922 262.785 102.921 262.128 103.801C259.959 101.964 261.95 101.166 263.314 100.338Z" fill="#FDD3B3" fill-opacity="0.376471"/>
<path d="M223.409 52.7048C223.085 52.3924 222.959 52.241 222.69 51.8818L222.802 51.5333C223.499 51.2116 225.124 51.3754 225.968 51.4058L225.987 52.0533C225.252 52.577 225.178 51.7338 224.651 52.3792L224.425 52.9581L223.409 52.7048Z" fill="#FECEA4" fill-opacity="0.917647"/>
<path d="M175.981 31.1773C176.458 30.6372 176.7 30.244 177.404 30.147L177.62 30.3991C177.4 31.4502 176.541 32.7314 175.392 32.8557C174.995 32.568 175.129 32.7499 174.964 32.3024L175.981 31.1773Z" fill="#FECEA4" fill-opacity="0.67451"/>
<path d="M22.7202 63.8719L22.8178 63.4597C23.4036 62.7893 24.0839 61.884 24.8603 61.5073C24.545 62.8884 24.3487 63.8494 22.7202 63.8719Z" fill="#FECEA4" fill-opacity="0.290196"/>
<path d="M218.91 50.5532C219.002 50.0837 218.908 50.2975 219.241 49.9097L220.178 50.2471L220.724 50.4885L220.871 51.0141C220.092 51.2851 219.705 50.9166 218.91 50.5532Z" fill="#FECEA4" fill-opacity="0.54902"/>
</svg>
