<svg width="342" height="326" viewBox="0 0 342 326" fill="none" xmlns="http://www.w3.org/2000/svg">
<path d="M80.3665 40.8195C83.7753 35.8088 86.5165 36.6858 91.443 34.1435C93.7985 32.928 95.4945 30.471 98.9363 28.7385C101.081 27.1313 104.783 27.6243 106.823 26.6773C115.725 22.5448 123.643 18.216 133.339 16.4272C138.573 15.4616 144.163 14.7674 149.26 13.6333C151.553 14.5845 155.918 11.8144 158.813 12.162C160.46 12.3597 162.992 12.4253 164.73 12.3758C166.214 12.3336 168.81 11.4275 170.425 11.3862C174.545 12.2435 178.58 11.4183 182.749 11.5836C185.714 11.4936 189.203 12.3356 192.118 12.2196C198.237 12.0557 204.823 12.7796 210.838 13.9565C215.344 14.8381 219.096 15.8581 223.786 16.1004C225.534 16.1907 227.919 19.5171 231.283 18.7175C231.438 18.6808 236.498 21.8553 237.232 21.8473C240.67 22.6814 243.825 22.8042 247.24 23.525C248.787 23.9162 251.228 26.676 253.625 26.1885C255.093 25.89 258.03 29.7675 259.273 31.1798C262.048 31.2505 262.563 31.5398 265 32.9358C264.343 33.71 263.713 34.589 263.1 35.4078C265.163 35.6918 266.36 35.4208 267.78 35.463C268.513 35.4848 271.505 38.0425 272.938 38.692C273.935 38.6898 274.213 38.1793 275.01 38.208C276.013 38.2438 277.245 39.9253 277.685 40.705C278.94 42.9203 281.108 43.6218 283.025 45.0838C283.348 45.3303 284.523 46.9505 284.823 47.3655C288.948 48.4908 290.465 51.6678 294.568 54.5968C294.803 57.6423 296.56 58.9558 298.588 61.1495C298.078 61.7073 297.683 61.9968 297.598 62.7278C298.675 64.3683 301.16 63.2888 302.715 63.5383L302.96 64.0273C302.778 64.7955 302.723 64.555 302.953 65.2148C302.9 66.3315 302.695 67.916 303.165 68.8613C304.575 70.0075 305.213 68.7838 305.64 70.8083C305.133 71.632 304.743 72.0718 304.765 73.0238L304.98 73.4755C306.343 73.8135 306.313 73.204 307.178 73.8123C307.31 75.4565 305.778 75.7923 305.83 76.8935C307.938 77.4323 308.618 75.04 310.37 76.294L310.423 77.2255C309.69 78.4953 308.508 80.435 307.97 81.7155C309.633 81.4763 313.308 80.5688 314.408 81.155L314.413 81.8763L313.038 83.1015C312.408 83.551 312.38 83.6878 311.983 84.3828C311.985 86.0275 313.438 86.1758 314.793 86.1233C315.038 86.1135 315.28 86.0985 315.523 86.0778C316.478 87.1715 317.29 88.0893 318.328 89.1195L318.22 89.2005C317.343 89.8423 316.785 89.8098 316.145 90.7388L316.14 91.2913C317.27 91.4833 317.795 91.3483 318.403 92.0575C318.378 93.5233 317.578 93.6173 317.775 94.7348C319.168 95.343 319.83 94.2968 320.355 95.021C320.158 95.7185 320.1 95.7698 319.683 96.3785L320.455 98.022C321.428 98.807 323.03 97.9628 324.123 99.3788C324.158 100.111 324.17 100.407 324.075 101.131C324.8 101.593 325.1 101.591 325.3 102.261C324.678 102.851 323.833 102.612 322.953 102.559L322.728 102.83C323.063 103.909 325.173 105.906 326.29 105.844L326.618 104.888C327.208 106.825 326.118 108.707 326.493 110.299L326.875 110.351L327.235 109.573L327.41 109.516C327.783 109.981 327.785 110.209 327.91 110.784L327.938 110.643L329.133 111.595C330.303 113.694 328.668 114.059 329.08 115.856C329.538 116.288 329.768 116.31 330.358 116.498C330.825 117.348 332.23 121.667 332.113 122.62C331.493 123.76 330.468 124.078 329.538 125.108C328.098 125.791 327.46 127.721 328.238 129.12C328.69 129.258 328.528 129.311 328.885 129.134C331.533 127.819 331.183 129.737 333.72 128.369C334.288 130.47 332.018 132.281 334.178 135.084C333.053 136.793 333.788 137.017 333.15 138.99L332.83 139.221C331.838 138.025 332.033 136.962 331.013 136.24C330.308 136.492 330.545 136.378 330.018 137.014C329.93 139.628 333.333 140.175 334.198 142.031C334.565 142.815 334.488 144.283 335.028 145.375L335.06 146.631C333.095 150.022 329.71 148.736 329.893 151.606C331.135 151.712 333.193 151.904 334.128 152.802L334.073 153.135L333.63 153.358C330.63 152.176 328.643 156.005 327.303 158.103L327.583 157.941C328.798 157.223 331.42 154.758 331.878 154.745C332.538 156.45 331.883 156.821 332.173 158.185L332.073 158.841C329.805 159.866 328.513 158.088 327.77 161.326C327.933 161.806 329.415 163.284 329.89 163.62C329.863 164.535 329.698 164.559 330.125 165.111C331.133 165 331.32 163.986 331.66 163.118C332.368 163.161 332.948 163.09 333.45 163.528C333.768 164.759 332.35 169.195 331.99 170.651C331.658 171.988 330.483 173.856 330.223 175.373C329.84 177.612 330.503 181.054 329.343 182.99L328.888 182.816C328.675 182.099 328.7 181.753 328.21 181.292C325.878 182.563 327.698 184.477 327.48 186.583C327.225 189.001 323.713 193.348 323.448 195.168C322.835 199.381 324.84 198.458 321.355 202.643C321.183 204.743 321.248 206.029 319.268 207.216L319.65 206.936C318.735 212.006 312.328 219.939 309.015 224.214C308.815 224.473 307.255 224.274 306.513 224.533C305.898 225.177 306.003 224.896 305.83 225.689C306.623 226.432 307.595 225.695 308.455 226.515C308.663 228.481 304.775 229.41 303.323 229.681C303.018 230.668 304.585 232.228 303.875 233.881C303.73 235.795 297.265 237.932 297.298 238.889C297.435 242.704 296.97 243.041 293.325 245.039C293.125 245.148 291.033 247.809 290.548 248.402C287.853 251.692 284.33 254.312 281.028 256.967C279.845 257.69 278.418 257.925 277.39 258.902C275.995 260.232 276.018 262.548 274.09 263.253C273.72 263.16 273.143 263.03 272.79 262.995C272.078 262.922 270.13 264.705 269.33 265.26C266.43 267.005 263.435 270.35 260.72 272.025C257.573 273.967 255.408 274.235 252.913 277.443C251.598 279.133 247.065 278.8 245.182 279.832C242.797 281.14 240.776 283.433 238.261 284.568C235.03 286.06 231.229 287.285 228.06 288.763C222.676 291.273 217.482 293.575 211.791 295.378C207.005 296.895 201.959 297.66 197.107 298.897C192.884 299.975 188.155 301.945 183.847 302.55C181.774 302.84 178.472 302.175 176.177 302.02C172.472 303.977 170.987 303.053 166.985 303.348C164.434 303.533 161.645 304.495 159.003 304.457C157.545 304.435 156.373 303.11 155.003 303.445C152.216 304.485 146.424 301.925 143.83 302.383C138.588 303.305 139.342 304.653 134.562 300.975C126.303 302.968 125.668 302.222 118.873 297.342L116.52 298.432C115.888 297.87 114.964 296.97 114.171 296.72C111.781 295.97 108.89 296.665 106.499 296.065C103.804 295.388 101.108 293.798 98.4963 292.845C97.501 292.483 95.5235 292.058 94.4108 291.783C89.7058 286.01 84.592 286.87 78.8595 283.16C76.331 281.255 74.004 278.445 71.3878 276.695C64.282 271.94 58.2615 266.292 52.0548 260.455C50.7913 259.265 49.7128 257.363 48.49 256.195C38.0685 246.256 31.5248 233.313 25.2028 220.574C23.5294 217.637 23.1222 213.975 21.9397 210.971C19.4801 204.724 18.0091 198.534 16.7754 191.937C16.465 190.278 15.6321 189.049 15.2518 187.466C14.7345 185.314 14.6487 182.965 14.2971 180.779C12.378 172.864 13.2645 164.877 13.6925 156.839C13.977 151.497 14.0369 145.788 14.8318 140.466C15.3035 137.308 17.2122 133.888 18.0914 130.833C18.6238 128.957 18.7304 126.148 19.2521 124.148C20.4038 119.733 21.7129 115.12 23.1922 110.812C23.7344 109.742 24.6557 106.193 25.3973 105.378C29.5623 100.802 30.7693 95.0093 33.8038 89.8195C34.9833 87.8023 37.5755 85.9275 38.7415 83.685C40.3325 80.6253 41.1418 77.2205 43.5245 74.6225C44.36 73.7073 46.6405 72.8183 47.863 72.2405C48.1703 70.9935 48.4005 69.7515 48.6435 68.4915C51.2415 65.8078 53.7258 63.2503 56.0575 60.3185C56.4835 59.7828 58.4293 58.6888 58.9218 58.189C59.426 57.6773 60.4713 55.8908 60.8445 55.1645C62.2985 52.3373 65.431 51.9608 67.4793 50.3435C70.3833 48.0505 73.1935 44.7603 76.089 42.4443C77.1198 41.6198 79.0555 41.1558 80.3665 40.8195ZM318.568 202.523C319.438 201.838 320.088 200.859 320.243 199.751L319.923 199.203C319.233 199.92 318.333 200.7 318.06 201.627C318.173 202.169 318.173 202.129 318.568 202.523ZM295.615 64.8153C296.338 65.4855 296.163 65.5605 296.868 65.5353C296.748 64.5965 296.323 64.391 295.46 64.0363C294.693 64.3545 293.915 64.5465 293.495 65.208C294.203 65.42 294.87 65.0948 295.615 64.8153Z" fill="#FFE79C"/>
<path d="M319.923 199.203L320.243 199.751C320.088 200.859 319.438 201.838 318.568 202.523C318.173 202.128 318.173 202.169 318.06 201.627C318.333 200.7 319.233 199.92 319.923 199.203Z" fill="#FFEAAB" fill-opacity="0.341176"/>
<path d="M295.46 64.0361C296.322 64.3909 296.747 64.5964 296.867 65.5351C296.162 65.5604 296.337 65.4854 295.615 64.8151C294.87 65.0946 294.202 65.4199 293.495 65.2079C293.915 64.5464 294.692 64.3544 295.46 64.0361Z" fill="#FFEAAB" fill-opacity="0.882353"/>
<path d="M302.952 65.2148C303.46 66.1181 304.087 67.3166 304.635 68.1631C307.77 69.4053 309.172 69.4451 308.012 73.1268C309.147 73.5343 311.437 74.2846 312.417 74.8118L310.622 77.1931L310.422 77.2256L310.37 76.2941C308.617 75.0401 307.937 77.4323 305.83 76.8936C305.777 75.7923 307.31 75.4566 307.177 73.8123C306.312 73.2041 306.342 73.8136 304.98 73.4756L304.765 73.0238C304.742 72.0718 305.132 71.6321 305.64 70.8083C305.212 68.7838 304.575 70.0076 303.165 68.8613C302.695 67.9161 302.9 66.3316 302.952 65.2148Z" fill="#FFEAAB" fill-opacity="0.870588"/>
<path d="M329.892 151.606C330.617 151.559 330.935 151.554 331.633 151.378C332.92 149.753 333.1 150.163 335.03 150.369C335.07 150.501 334.853 155.246 335.038 155.896C335.138 156.245 334.498 157.947 334.188 158.308L334.103 157.713L333.767 157.474C333.162 157.876 332.88 158.019 332.172 158.185C331.882 156.821 332.538 156.45 331.878 154.745C331.42 154.758 328.797 157.223 327.582 157.941L327.302 158.103C328.642 156.005 330.63 152.176 333.63 153.358L334.073 153.135L334.128 152.802C333.193 151.904 331.135 151.712 329.892 151.606Z" fill="#FFEAAB" fill-opacity="0.396078"/>
<path d="M318.328 89.1194C318.918 89.6249 319.235 89.6236 319.995 89.7679C320.803 90.4564 320.595 91.8111 320.953 92.3461C321.585 93.2959 323.798 93.6996 323.94 95.1906C322.615 95.7456 322.323 95.5551 320.998 96.4089L319.683 96.3784C320.1 95.7696 320.158 95.7184 320.355 95.0209C319.83 94.2966 319.168 95.3429 317.775 94.7346C317.578 93.6171 318.378 93.5231 318.403 92.0574C317.795 91.3481 317.27 91.4831 316.14 91.2911L316.145 90.7386C316.785 89.8096 317.343 89.8421 318.22 89.2004L318.328 89.1194Z" fill="#FFEAAB" fill-opacity="0.882353"/>
<path d="M320.455 98.0219C321.365 97.9012 323.443 97.6619 324.105 98.3194C327.458 101.641 327.27 107.334 329.133 111.594L327.938 110.643L327.91 110.784C327.785 110.208 327.783 109.981 327.41 109.515L327.235 109.572L326.875 110.35L326.493 110.299C326.118 108.707 327.208 106.825 326.618 104.887L326.29 105.844C325.173 105.905 323.063 103.908 322.728 102.829L322.953 102.559C323.833 102.612 324.678 102.851 325.3 102.261C325.1 101.59 324.8 101.593 324.075 101.131C324.17 100.407 324.158 100.111 324.123 99.3787C323.03 97.9627 321.428 98.8069 320.455 98.0219Z" fill="#FFEAAB" fill-opacity="0.894118"/>
<path d="M294.568 54.5967L294.98 54.7472C295.523 56.3769 295.955 58.4092 297.772 58.9277C298.647 58.4427 298.288 58.4797 299.13 58.6959C300.333 59.6259 300.593 60.6572 301.38 61.6159C302.16 62.5652 304.507 60.9529 303.905 63.9317L302.96 64.0272L302.715 63.5382C301.16 63.2887 298.675 64.3682 297.598 62.7277C297.683 61.9967 298.077 61.7072 298.587 61.1494C296.56 58.9557 294.803 57.6422 294.568 54.5967Z" fill="#FFEAAB" fill-opacity="0.180392"/>
<path d="M329.537 125.108C330.435 125.509 330.047 125.455 331 125.341C331.442 125.001 331.6 124.842 332.132 124.643C333.012 125.384 333.23 126.823 333.365 127.914L333.72 128.369C331.182 129.737 331.532 127.819 328.885 129.134C328.527 129.311 328.69 129.258 328.237 129.12C327.46 127.721 328.097 125.791 329.537 125.108Z" fill="#FFEAAB" fill-opacity="0.835294"/>
<path d="M334.178 135.083C334.415 138.337 335.143 142.298 335.028 145.375C334.488 144.283 334.565 142.815 334.198 142.031C333.333 140.175 329.93 139.628 330.018 137.014C330.545 136.378 330.308 136.491 331.013 136.24C332.033 136.962 331.838 138.025 332.83 139.221L333.15 138.99C333.788 137.017 333.053 136.792 334.178 135.083Z" fill="#FFEAAB" fill-opacity="0.552941"/>
<path d="M310.422 77.2256L310.622 77.1931L310.657 77.9056L310.88 78.0444C311.795 78.6251 312.937 79.7966 313.362 80.2924C313.547 80.5049 315.705 80.4116 316.25 80.9424C315.68 81.6201 315.25 81.5966 314.412 81.8764L314.407 81.1551C313.307 80.5689 309.632 81.4764 307.97 81.7156C308.507 80.4351 309.69 78.4954 310.422 77.2256Z" fill="#FFEAAB" fill-opacity="0.478431"/>
<path d="M315.522 86.0778C315.28 86.0986 315.037 86.1136 314.792 86.1233C313.437 86.1758 311.985 86.0276 311.982 84.3828C312.38 83.6878 312.407 83.5511 313.037 83.1016C315.04 83.6646 317.802 84.4748 319.712 85.2611C318.282 85.3926 316.617 85.3163 315.522 86.0778Z" fill="#FFEAAB" fill-opacity="0.913725"/>
<path d="M327.77 161.326C329.028 160.5 331.238 159.401 332.185 161.274L331.435 163.001L331.66 163.118C331.32 163.986 331.133 165 330.125 165.112C329.698 164.559 329.863 164.535 329.89 163.62C329.415 163.284 327.933 161.806 327.77 161.326Z" fill="#FFEAAB" fill-opacity="0.984314"/>
<path d="M332.173 158.185C332.88 158.019 333.163 157.876 333.768 157.474L334.103 157.713L334.188 158.308C333.81 158.893 332.578 160.873 332.185 161.274C331.238 159.401 329.028 160.499 327.77 161.326C328.513 158.088 329.805 159.866 332.073 158.841L332.173 158.185Z" fill="#FFEAAB" fill-opacity="0.901961"/>
<path d="M329.893 151.606C329.71 148.736 333.095 150.022 335.06 146.631C335 147.941 334.813 148.227 333.853 149.052L333.665 149.211L333.75 149.59L335.03 150.37C333.1 150.164 332.92 149.753 331.633 151.378C330.935 151.554 330.618 151.559 329.893 151.606Z" fill="#FFEAAB" fill-opacity="0.266667"/>
<path d="M327.48 186.582C327.698 184.477 325.878 182.563 328.21 181.292C328.7 181.753 328.675 182.099 328.888 182.816L329.343 182.989C328.723 184.021 327.808 185.441 327.48 186.582Z" fill="#FFEAAB" fill-opacity="0.784314"/>
</svg>
