<svg width="213" height="194" viewBox="0 0 213 194" fill="none" xmlns="http://www.w3.org/2000/svg">
<path d="M120.889 99.57C125.055 98.9733 130.075 100.306 134.17 101.085C141.942 102.597 149.682 104.264 157.387 106.086C162.246 107.191 167.214 107.861 171.944 109.445C179.836 112.088 177.135 118.686 175.38 124.332L172.027 135.077L166.055 154.185C164.891 157.932 163.828 161.971 162.463 165.626C162.373 165.869 162.271 166.107 162.156 166.339C160.225 170.239 157.558 169.87 153.785 169.078C150.727 168.435 147.683 167.214 144.66 166.372L125.227 160.761C120.725 159.42 114.03 157.973 110.602 154.757C109.46 153.685 109.432 148.719 109.623 147.116C109.913 144.67 110.531 142.338 110.958 139.904C113.005 128.235 115.561 116.635 117.69 104.972C118.005 103.244 119.043 100.084 120.889 99.57ZM125.973 146.222C129.978 147.836 135.369 148.755 139.572 150.194C140.882 150.642 148.166 152.914 148.968 152.958C149.506 152.411 149.893 150.792 150.154 149.955C152.497 140.952 155.844 131.75 158.53 122.817C158.762 122.046 159.032 121.253 159.368 120.521C155.127 120.036 152.104 119.228 147.964 118.34C142.924 117.259 137.107 116.334 132.147 115.14C131.326 117.212 131.341 121.015 130.807 123.322C129.066 130.838 128.019 138.8 125.973 146.222Z" fill="#FEE79B"/>
<path d="M45.238 124.907C46.4375 124.999 47.5206 125.387 48.7022 125.585C49.6116 125.738 50.4228 124.874 51.2193 125.518C53.3186 127.215 54.0565 129.984 55.4079 132.222C57.3397 135.421 59.3197 137.713 60.1241 141.443C60.6872 140.782 61.3355 140.144 62.0664 139.666C65.8102 137.104 68.8289 134.101 72.6678 131.662C76.2638 129.378 77.5008 131.365 80.3501 129.916C82.2003 130.098 87.6784 131.251 87.6968 133.617C87.0003 134.631 86.797 133.574 85.7037 134.613C85.419 135.788 87.0085 136.452 87.4908 137.571C89.8507 143.376 82.1581 144.608 79.1403 146.638C75.2199 149.274 72.1317 151.393 67.9664 153.65C68.1685 154.149 68.4123 154.758 68.7401 155.178C70.7924 157.808 72.3808 160.692 73.9826 163.606C75.1597 165.748 76.3872 167.885 77.4947 170.068C78.3848 171.823 78.9323 173.618 79.8765 175.348L79.7536 175.726C79.2517 176.498 79.0761 176.79 78.7244 177.634C78.9556 178.473 79.5882 177.885 79.9913 178.789C79.4396 179.676 77.5631 181.316 76.6513 181.692C66.2154 185.994 64.5668 174.708 61.1195 168.1C59.67 165.322 58.1428 163.216 56.8445 160.672C49.4003 164.843 43.982 172.828 35.8857 166.348C32.9884 164.029 34.5824 162.777 33.9309 159.482C35.9467 156.183 39.3697 153.892 42.8462 152.314C46.0197 152.623 44.6286 152.071 46.3825 149.998C46.5373 149.815 49.2357 148.382 49.892 147.876C48.9633 146.396 48.1632 144.343 47.3379 142.771C45.1278 138.563 40.1285 128.788 45.238 124.907Z" fill="#FEE79B"/>
<path d="M59.5274 54.2341C70.0955 52.9015 81.1611 61.3719 83.9061 71.2475C85.7438 77.8585 81.8823 86.0497 76.9814 90.3971C73.1436 93.8016 72.4625 94.7088 67.266 95.7285C59.5441 97.2746 44.2861 91.1486 42.8671 82.5361C41.7512 75.7628 43.695 67.2184 47.2164 61.3598C49.8202 57.0276 54.8299 55.1546 59.5274 54.2341Z" fill="#FEE79B"/>
<path d="M167.383 28.4719C170.338 28.8148 174.246 30.3983 176.586 32.301C177.126 32.7395 177.582 33.8016 178.896 34.8804L178.304 36.0533C178.413 37.0593 178.672 36.6834 179.034 37.4465C180.242 39.2016 177.367 41.0728 177.272 41.8973C177.028 44.0272 177.292 44.3411 174.917 45.8419C169.451 49.2968 163.642 52.473 157.939 55.559C153.037 58.2111 148.257 61.3087 143.384 64.0395C139.526 66.2116 134.954 68.4609 131.265 70.8545C130.52 71.2718 129.353 71.7656 128.551 72.1348C121.89 68.6479 115.651 64.8297 122.087 56.5549C124.278 53.7387 129.419 51.3704 132.531 49.3982L153.39 36.4108C157.413 33.8634 162.622 28.998 167.383 28.4719Z" fill="#FEE79B"/>
</svg>
