<svg width="491" height="485" viewBox="0 0 491 485" fill="none" xmlns="http://www.w3.org/2000/svg">
<path d="M305.413 11.7251C306.063 10.4177 307.088 8.39072 308.628 8.0891C314.198 6.99895 324.268 14.639 329.073 17.325C331.268 18.5524 332.91 19.3011 334.89 20.2392C341.835 13.5886 351.87 21.7913 354.833 28.6708C355.46 30.1328 355.745 31.8913 356.42 33.2458C358.4 37.229 360.793 41.3643 361.75 45.7525C362.723 52.8093 362.72 60.3933 362.633 67.498C362.62 68.6093 363.325 74.112 363.873 74.728C365.01 74.8933 365.263 74.1543 366.643 73.9985L366.823 74.3605C364.778 76.7318 368.818 77.6448 368.668 80.6143C368.46 84.7313 365.115 88.624 363.075 92.1663C361.213 95.4035 358.795 98.6 356.588 101.593C355.06 103.534 352.52 105.529 351.203 107.519C349.46 110.148 348.538 113.532 346.743 116.233L322.808 152.028C318.618 158.158 313.315 164.423 309.693 170.82C304.495 180.006 298.483 188.391 292.075 196.77C290.04 199.429 288.86 202.466 286.51 205.167C290.453 204.664 294.8 202.729 298.663 201.576C300.24 200.978 302.383 200.629 303.888 199.992C308.513 198.037 309.68 195.836 314.895 197.754C316.99 195.085 317.395 193.939 320.988 194.309C320.868 194.297 329.903 190.379 331.01 190.292C332.19 189.97 334.603 188.663 335.698 188.497C339.453 187.929 338.898 189.851 341.078 186.643C343.883 185.417 345.85 185.39 348.643 184.509C350.738 183.849 353.33 182.42 355.398 181.731C358.483 180.701 361.72 179.723 364.828 178.723C366.845 178.075 369.938 178.142 372.063 177.355C373.348 176.88 375.335 175.126 376.498 174.77C381.573 173.214 386.465 171.564 391.618 170.249C393.475 169.775 397.05 167.592 399.145 166.985C404.168 165.275 410.49 164.171 415.408 162.296C424.755 158.733 434.133 155.599 443.598 152.38C445.62 151.691 448.73 150.94 450.79 151.649C451.225 151.799 452.458 153.217 453.253 153.632C454.265 153.044 454.493 152.975 455.505 153.209C456.228 153.799 456.008 153.443 456.283 154.249L455.958 154.643C453.388 155.469 453.61 155.74 452.055 158.103C453.768 157.215 455.33 156.35 457.318 156.456C458.793 157.396 456.823 159.03 456.513 160.378C456.33 161.173 457.468 161.694 457.785 163.081C457.543 163.838 457.543 163.883 456.823 164.339C454.758 165.647 438.578 171.415 437.83 172.251L438.085 172.595C452.03 173.334 446.818 162.411 462.233 170.782C463.933 170.296 465.203 169.72 466.79 168.971C473.673 171.591 475.27 177.484 478.043 183.424C481.095 189.973 479.248 191.869 480.358 197.796C482.05 206.827 484.898 214.216 481.53 223.555C478.673 231.476 473.868 234.592 466.998 238.97C465.918 239.668 461.818 241.66 461.295 242.341C462.075 243.914 466.768 241.099 468.248 242.114C469.15 242.732 469.633 243.46 469.198 244.491C467.343 245.959 464.055 244.506 462.848 245.894C463.2 247.606 464.93 248 466.755 249.579C464.91 250.715 463.703 251.088 461.695 251.788C457.623 253.21 461.415 255.42 460.298 257.628C459.265 259.278 454.738 259.988 453.005 259.868C440.848 259.018 428.775 257.373 416.6 256.648C414.168 256.503 411.593 255.815 409.125 255.628L306.83 246.968C302.675 246.608 297.99 246.235 293.968 245.187C290.353 244.245 290.08 244.971 286.875 245.016C286.195 244.67 286.143 244.605 285.373 244.458L285.103 244.792L285.323 245.169C286.71 245.644 288.088 246.693 289.245 247.057C294.298 248.642 298.075 251.763 302.59 254.11L355.385 282.215L411.965 312.045C417.938 315.168 445.933 327.123 447.278 332.4L446.988 332.818C445.808 332.975 445.075 331.578 443.563 332.243C443.665 332.665 444.548 333.348 445.005 334.003C444.48 334.91 443.628 334.188 442.673 335.12L442.83 335.643C444.438 335.933 445.143 334.273 446.633 335.423C447.678 337.65 445.54 339.39 445.16 340.96L445.458 341.043L445.9 341.173C447.128 341.52 447.503 341.433 447.775 342.778C446.853 343.118 444.035 340.803 442.708 342.138C442.928 344.033 447.373 346.983 448.6 348.778C449.38 349.158 451.2 353.25 451.245 353.288C456.315 357.435 459.61 360.335 460.633 367.213C461.07 370.153 461.773 371.425 459.718 374.235C457.99 376.595 457.325 380.425 455.92 383.058C455.433 384.673 451.86 390.15 451.73 391.448C450.793 400.74 445.52 403.503 439.488 409.478C439.1 409.863 439.02 416.915 438.753 418.725C437.235 420.765 431.403 425.413 428.86 426.133C415.815 429.823 401.36 425.508 388.338 423.388C386.905 423.155 383.523 424.365 381.83 424.558C379.835 424.785 378.803 424.72 376.805 424.548C381.54 433.508 376.73 429.778 373.795 434.225C372.985 434.283 372.483 433.818 371.763 433.363C371.028 432.818 368.855 431.158 368.148 431.083C368.08 432.06 370 432.908 370.713 434.28C369.933 435.303 369.353 436.255 368.008 436.09C365.113 433.695 366.158 436.998 363.09 436.015C362.485 435.425 362.485 435.29 362.243 434.505L361.825 433.158C360.923 432.133 359.26 432.78 357.983 431.29C355.833 428.783 354.51 425.8 352.593 423.128C350.315 420.418 349.055 416.433 347.133 413.66C343.215 408.013 340.685 401.53 337.305 395.753L282.393 302.765C277.655 294.64 274.03 286.943 268.57 279.115C264.465 273.23 260.765 265.288 256.898 259.128C255.323 261.25 256.348 275.518 256.035 279.005C255.805 281.558 255.483 284.795 255.203 287.475C255.023 289.673 255.235 292.108 255.008 294.28C254.323 300.785 254.14 307.143 254.148 313.678C254.15 316.388 253.573 319.39 253.518 322.173C253.393 328.373 253.453 334.573 253.343 340.773C253.303 342.863 252.69 343.91 252.665 345.345C252.673 347.148 252.943 349.043 252.855 350.843C252.57 356.715 252.355 362.495 252.46 368.375C252.413 370.808 251.858 373.493 251.905 375.905C252.043 382.973 251.5 389.853 250.75 396.873C250.678 397.548 250.92 399.275 251.005 400.038C251.315 402.793 251.575 405.523 251.493 408.308C252.018 413.975 250.718 420.285 250.748 425.685C250.785 432.428 252.628 440.025 250.93 446.858C250.895 446.96 250.86 447.065 250.825 447.17C249.889 448.055 249.482 448.26 248.355 448.915C248.096 450.583 248.069 451.825 248.011 453.51L245.354 451.748C244.33 455.258 244.074 455.805 240.823 457.155C238.93 455.875 236.497 454.223 235.041 452.488C231.936 456.415 230.123 459.92 225.754 462.563C222.345 464.625 219.923 465.818 215.88 465.948C207.62 473.87 201.086 474.915 192.236 466.308C190.735 464.848 189.729 462.98 188.677 461.183C185.527 466.103 182.937 464.625 179.125 466.345L178.728 466.528C172.919 463.52 169.941 459.865 166.273 454.973C161.89 454.235 156.319 451.453 155.69 446.56C155.529 445.305 155.744 443.53 155.853 442.228C154.996 443.335 154.487 444.393 153.829 445.623C151.404 443.713 150.931 444.325 148.828 441.678C148.062 441.455 145.241 440.903 145.222 439.808C145.175 437.118 144.447 434.745 144.205 432.113C144.145 431.468 144.446 430.295 144.641 429.663C147.582 422.003 151.478 414.693 155.476 407.54C156.762 405.235 157.711 402.185 158.892 399.775C159.827 397.74 161.237 395.745 162.162 393.725C164.63 388.33 166.636 383.335 170.153 378.495C171.03 377.288 172.277 372.955 173.092 371.283C175.142 367.068 176.983 362.625 178.909 358.345C179.808 355.835 183.096 352.213 183.829 349.91C185.728 343.94 187.614 339.56 191.367 334.518C191.846 333.875 193.079 330.378 193.56 329.355C195.143 325.985 196.689 322.46 198.188 319.048C199.076 317.043 199.974 314.163 200.922 312.31C205.044 304.253 208.908 296.1 212.889 287.973C214.659 284.36 215.958 280.303 217.943 276.568C219.519 273.603 221.336 270.61 222.739 267.645L119.925 331.38C101.608 342.813 83.352 354.358 64.6635 365.16C63.0575 366.09 54.88 367.223 55.442 363.72C55.6213 362.6 56.009 361.63 56.4475 360.593C55.9928 360.37 55.5448 360.135 55.1043 359.888C53.7523 359.11 52.9385 358.685 52.5383 357.22C52.6863 355.868 53.4713 355.928 53.972 354.725L53.6538 354.215C51.3378 352.745 43.465 354.595 39.968 353.628C37.753 353.015 33.2843 352.398 31.0878 351.073C27.3415 348.81 23.7832 342.928 22.9869 338.673C22.896 338.123 22.8346 333.775 22.5659 333.688C18.7814 332.358 16.4116 330.49 14.1282 327.17C13.0355 325.583 12.441 324.328 11.5931 322.585C9.70762 318.708 10.9287 315.553 10.7146 311.593C10.689 311.118 9.66347 308.698 9.39012 308.145C7.79624 304.913 7.50164 301.048 8.10619 297.523C6.26319 295.985 3.86994 292.58 3.75654 290.083C3.67804 288.355 4.03037 288.485 3.17432 286.628C7.15219 278.873 10.0759 271.588 15.8025 264.913C18.5136 261.753 21.1447 260.235 23.3146 256.615C21.8376 253.995 18.7001 249.308 20.5891 246.703C22.2865 244.361 21.9739 243.468 20.4577 241.212C29.185 234.27 36.3045 227.493 48.214 230.683C52.5253 231.838 57.1335 232.448 61.5945 232.584C63.3768 234.391 63.0183 233.792 65.1935 232.986C66.073 233.035 66.8075 233.751 67.547 234.303C72.814 234.307 79.9625 232.261 84.2015 234.203C84.8625 233.919 86.5738 233.231 87.2195 233.209C90.6243 233.092 94.062 233.229 97.4805 233C106.981 232.365 116.335 232.66 125.845 232.227C129.042 232.143 132.298 232.511 135.485 232.43C141.471 232.279 147.443 232.013 153.409 231.521C154.424 231.465 155.912 232.219 156.875 232.093C163.768 231.197 170.57 231.243 177.513 231.259C181.461 231.268 185.479 230.861 189.396 230.795C193.198 230.731 196.922 231.269 200.783 230.673C203.93 230.309 205.014 231.158 208.367 229.837C208.879 229.982 209.395 230.115 209.914 230.234C212.297 230.775 219.308 228.626 222.563 230.012C223.03 230.211 225.882 230.49 226.363 230.186C226.277 229.1 216.095 221.96 214.779 221.055C211.75 218.972 208.45 217.302 205.378 215.263L161.508 186.235L128.751 164.235C127.095 163.103 125.446 161.657 123.802 160.582C118.056 156.819 112.524 153.205 106.639 149.661C96.7833 143.726 86.901 138.591 77.5395 131.863C68.6788 125.496 69.5425 125.914 65.4578 116.067C66.447 115.144 67.744 114.291 68.861 113.498C65.3965 108.203 57.4925 99.566 58.9083 92.7078C59.4945 89.8675 62.4355 88.6058 64.819 87.3535C64.0958 83.7133 62.6795 72.9963 63.5213 69.4135C63.9495 67.5918 64.889 65.9303 66.2293 64.6245C68.8783 62.008 72.5815 61.4763 75.3438 59.0213C78.5708 56.143 80.3893 51.4518 83.9638 49.0115C87.503 46.5953 92.3083 45.5833 95.8633 43.2955C97.499 40.7073 98.3123 38.7603 99.702 35.8048C101.345 32.3095 108.439 30.409 111.898 29.7273C113.387 29.4335 118.49 31.2168 120.16 30.65C129.016 27.643 137.644 24.0245 145.739 31.1293C147.6 32.6415 151.285 34.6818 153.567 35.584C154.887 36.1423 156.425 33.9095 157.175 33.748C160.849 32.9573 163.976 41.5675 164.964 43.5263L172.633 58.4598C175.396 63.9 178.39 68.3553 180.31 74.3553C180.901 76.1995 184.07 79.8065 185.112 81.8828L224.336 159.082C226.758 163.945 229.441 168.779 231.808 173.713C233.632 177.514 236.393 180.668 237.977 184.9C239.56 189.128 242.612 193.357 244.574 197.433C245.285 198.795 244.934 200.482 246.362 201.252C248.195 200.698 245.83 197.027 246.026 195.569C246.858 189.376 245.4 183.186 246.216 176.984C246.431 175.345 247.062 174.371 247.87 172.992C247.188 171.856 246.132 170.346 246.102 168.982C246.081 167.95 246.82 166.343 246.745 165.364C245.582 150.056 246.132 134.726 246.02 119.384C245.962 111.427 245.945 103.409 246.083 95.451C246.124 93.0403 246.681 90.6343 247.42 88.3503C246.815 86.5785 246.335 84.958 246.14 83.0928C245.676 78.6453 246.281 74.0875 245.952 69.6213C245.437 62.626 241.4 36.4908 242.79 31.9503C243.199 30.6135 245.11 27.0493 246.335 26.403C247.133 26.547 247.757 27.3273 248.372 27.9295L248.688 27.7373C250.373 26.7283 254.268 25.1693 256.065 26.527C256.963 27.205 257.285 28.24 258.198 28.472C259.443 27.4178 260.853 25.7408 262.47 26.3635C265.028 27.3478 264.975 24.1147 266.328 22.3656C271.685 15.4344 277.81 10.8955 286.953 11.4136C288.205 11.4846 290.7 11.6275 291.818 10.9883C295.038 9.6448 302.023 11.107 305.413 11.7251Z" fill="#7F90FE"/>
<path d="M370.712 434.28C370 432.908 368.08 432.06 368.147 431.083C368.855 431.158 371.028 432.818 371.763 433.363L371.707 433.85L372.245 434.388L372.233 434.865C371.733 435.27 371.735 435.358 371.12 435.43C370.972 434.798 370.983 434.598 370.943 433.958L370.755 433.985L370.712 434.28Z" fill="#7F90FE" fill-opacity="0.0313725"/>
</svg>
