<svg width="506" height="520" viewBox="0 0 506 520" fill="none" xmlns="http://www.w3.org/2000/svg">
<path d="M210.094 13.0105C212.084 12.8651 220.903 15.066 223.132 15.7065C230.122 17.715 237.191 23.7189 242.159 28.9157C243.8 30.6321 245.828 32.0788 247.32 33.928C249.675 36.8253 251.881 42.0551 254.457 44.6942C254.645 44.8848 254.996 44.7099 255.318 44.6276C256.615 43.4317 256.156 42.3539 257.918 40.8767C263.407 36.2767 269.645 33.9811 276.398 31.8508C280.628 30.5171 285.538 30.6562 289.88 29.7612C293.747 29.1234 294.473 28.5559 297.814 27.6832C301.343 26.7615 307.33 26.6696 311.128 26.2131C317.074 25.4986 323.855 23.5715 329.781 23.8342C330.665 23.8732 333.706 24.3005 334.552 24.6107C339.406 26.3857 345.636 29.2711 350.092 31.7828C352.118 32.9254 356.411 36.9005 358.14 38.522C359.331 39.6391 360.74 42.6236 361.989 43.9517C362.888 44.9082 365.038 46.3367 365.622 47.2563C368.217 51.3252 369.078 55.1726 369.989 59.7983C370.337 61.5792 372.257 65.0425 372.767 67.1392C373.308 69.3548 373.8 71.5597 374.133 73.7994C374.389 75.5445 375.197 78.2918 375.313 79.8424C375.608 83.701 375.697 89.1948 375.301 92.9988C378.304 91.9768 381.072 90.5517 384.1 89.6561C385.748 89.1689 388.33 89.3195 389.871 88.8312C391.547 88.2993 393.423 87.0071 395.302 86.8368C396.472 86.7306 398.166 87.6259 399.354 87.4195C401.895 86.9789 405.77 85.929 408.316 85.9603C410.751 85.99 415.758 85.9232 418.048 86.5425C429.435 89.6231 440.06 98.0028 448.634 105.865C449.489 106.652 450.198 109.204 451.053 110.044C451.856 110.83 454.346 110.853 455.382 111.421C456.53 112.051 457.812 113.133 458.711 114.066C464.654 120.243 465.863 124.14 467.396 132.256C468.584 138.55 468.92 141.858 468.914 148.231C468.818 159.115 464.502 169.537 456.878 177.304C463.702 178.991 466.764 184.05 471.743 188.486C473.523 190.072 476.325 191.679 478.057 193.267C480.578 195.58 484.356 200.437 485.351 203.646C485.912 205.457 486.263 207.327 486.395 209.218C486.755 214.385 486.128 220.582 486.324 225.886C486.463 229.678 486.478 234.144 486.283 237.906C486.024 242.888 485.328 248.23 484.011 253.025C482.81 257.791 479.723 261.64 477.834 266.086C476.399 269.463 477.305 273.17 478.072 276.58C478.318 277.667 478.819 278.997 479.834 279.574C483.277 281.526 485.542 284.284 487.783 287.475C492.031 292.871 494.009 297.068 493.907 304.078C493.821 309.999 492.81 316.037 491.434 321.826C491.203 322.816 490.226 324.236 489.982 325.201C489.601 326.549 489.462 328.159 488.946 329.461C487.103 334.133 485.722 339.099 483.762 343.698C482.835 345.691 480.436 347.252 479.268 348.921C474.073 356.34 469.635 362.698 459.757 362.906C460.615 364.894 464.139 372.45 464.586 374.042C467.625 384.886 471.613 402.05 466.129 412.456C464.134 416.241 461.143 420.606 458.586 424.026C457.411 425.6 455.791 428.599 454.666 429.927C448.662 437.031 441.55 444.605 432.933 448.404C429.092 450.097 426.002 450.602 421.981 451.585C419.977 452.075 417.896 452.888 416.012 453.395C406.336 456 388.325 457.989 379.414 453.202C378.083 455.391 375.877 457.963 374.752 460.147C373.554 462.475 372.698 464.979 371.472 467.439C369.964 470.473 368.578 471.931 366.882 474.584C362.555 481.35 357.635 489.12 350.727 493.482C348.797 494.701 342.745 496.46 340.244 497.268C327.722 501.315 316.041 501.089 303.369 497.989C301.287 497.481 298.568 496.087 296.448 495.419C291.522 493.865 287.892 492.408 283.345 490.042C282.789 489.757 282.243 489.455 281.705 489.138C274.692 484.956 264.143 474.967 262.112 467.053C253.745 470.206 254.295 472.883 247.294 477.4C241.661 481.328 235.162 482.523 229.064 484.672C221.473 487.899 213.999 487.145 206.04 487.246C199.639 487.327 191.925 487.65 186.316 483.61C180.841 479.667 172.491 473.962 168.21 468.612C167.094 466.103 165.393 462.973 164.479 460.467C160.624 449.886 162.5 453.934 154.918 456.32C144.711 459.537 129.759 461.322 119.356 457.478C116.317 456.356 112.707 453.758 109.226 453.436C104.198 453.411 101.643 455.482 96.3898 454.459C83.2625 451.895 72.9953 443.039 70.4546 429.599C69.3283 423.643 70.8636 416.698 70.448 410.564C69.875 402.101 68.8327 393.481 69.5122 384.922C69.765 380.413 69.0242 378.62 70.1052 373.707C60.05 373.659 57.4821 373.237 47.9481 369.309C45.723 368.393 43.2781 367.019 41.0733 366.008C30.3143 361.07 23.9927 357.183 20.0383 345.808C19.1605 343.284 19.2185 340.493 18.7025 337.934C18.3768 336.322 17.6855 334.461 17.3321 332.744C16.8889 330.589 17.4855 328.898 17.3829 326.782C17.368 326.475 15.7812 325.185 15.4739 324.18C14.9938 322.608 15.5845 321.164 15.6211 319.539C15.7062 315.763 15.5118 309.862 15.9616 306.229C16.7524 299.838 17.9146 293.064 18.8537 286.647C19.0855 285.066 18.6554 283.161 19.1267 281.694C19.5562 280.356 20.577 278.911 21.1117 277.53C21.6995 276.014 21.8905 273.523 22.4959 272.106C23.8129 269.024 25.8121 265.878 27.1394 262.76C28.8999 258.192 33.46 256.001 37.7134 254.285C39.0021 253.763 40.9591 254.158 41.5994 252.801C41.1569 251.483 39.0849 248.597 38.2326 247.332C35.9658 246.223 30.9914 244.521 29.4864 243.623C26.033 241.561 19.734 237.491 17.0673 234.727C11.5905 229.051 7.95846 223.306 6.05617 215.692C5.49089 213.429 4.4164 211.263 4.18151 208.716C3.83683 205.627 4.30706 201.419 3.90439 198.426C2.04379 184.599 2.62936 170.945 9.88748 158.663C12.0071 155.077 12.5891 151.529 16.2902 148.485C19.4498 145.887 19.6909 144.491 24.2279 144.547C25.5358 142.095 26.4613 141.418 28.662 139.936C29.9477 140.236 31.2301 140.551 32.5084 140.88C32.631 140.522 33.383 138.305 33.6169 138.077C37.8032 133.992 46.7274 131.97 52.3183 130.327C54.3547 129.728 55.0616 130.65 56.4531 130.529C57.7327 130.417 60.637 129.413 61.8193 129.456C65.6886 129.595 69.8082 130.59 73.6775 130.769L74.0415 130.784C73.5896 129.506 71.6402 126.069 71.5473 125.296C70.2725 112.962 71.6735 99.5569 73.9595 87.3372C76.0109 80.68 77.8524 72.5954 80.7462 66.3729C81.5041 64.7431 92.2768 54.0955 93.5892 53.4709C109.686 45.8111 128.434 42.833 145.855 47.1548C148.35 47.7733 163.26 55.8988 163.523 55.8412C165.504 42.4969 171.696 28.9332 183.162 21.1915C190.218 16.4264 201.892 14.9907 210.094 13.0105Z" fill="#99A8FF"/>
</svg>
