<svg width="535" height="520" viewBox="0 0 535 520" fill="none" xmlns="http://www.w3.org/2000/svg">
<path d="M222.487 10.5308C224.041 10.2125 226.79 10.5608 228.411 10.6806C239.814 11.523 251.992 16.3142 261.865 21.9686C268.216 25.5256 273.874 30.4852 276.755 37.3C277.461 38.9655 278.372 44.7892 279.399 45.3468C279.916 45.2139 280.423 44.9054 280.726 44.469C283.607 40.3438 286.727 36.4888 290.264 32.894C293.926 29.1751 298.801 26.374 303.396 23.9313C304.456 23.3679 306.867 23.5319 308.048 23.037C311.507 22.103 315.182 20.8836 318.649 20.1153C323.599 18.9083 328.591 19.1538 333.583 18.9971C340.707 18.7733 346.551 19.1788 353.513 20.7778C359.72 22.0355 366.436 23.5372 372.118 26.3852C376.342 28.5026 379.834 30.9059 382.857 34.4532C383.606 35.3313 386.052 36.58 387.175 37.7955C389.309 40.105 389.304 41.4156 390.252 44.3C390.735 45.4056 392.091 47.1926 392.87 48.8523C395.064 52.3915 395.764 57.4293 397.332 60.9283C399.377 65.4944 400.667 67.874 400.848 73.2208C400.921 75.4125 401.313 77.498 401.25 79.9168C405.524 77.7574 411.286 76.756 416.041 75.9451C421.66 74.9866 426.793 75.5784 432.417 76.2614C435.009 76.5758 438.501 78.8624 440.954 79.66C443.29 80.4185 445.583 80.8735 448.055 81.715C455.309 84.1873 462.033 88.2464 467.913 93.1325C470.311 95.125 471.255 99.0601 473.35 101.442C474.154 102.359 475.468 103.302 476.45 104.045C476.49 104.437 476.542 105.694 476.73 105.854C478.647 107.489 480.719 107.562 482.456 109.731C484.434 112.148 485.706 115.282 487.218 117.976C492.02 126.53 493.916 135.412 493.407 145.144C493.245 151.189 493.668 157.095 492.511 163.078C492.004 165.702 489.347 170.545 490.186 173.086C490.667 174.542 496.704 176.49 497.937 177.68C498.598 178.292 499.517 180.746 500.115 181.18C505 184.718 508.174 189.346 511.361 194.387C512.038 195.69 512.362 197.085 513.015 198.397C521.411 215.231 519.274 234.508 511.236 250.997C510.026 253.48 508.668 255.885 507.328 258.259C505.901 260.791 504.062 262.805 503.112 265.61C503.469 266.221 505.188 267.746 505.797 268.277C509.901 271.844 512.129 274.942 514.616 279.706C519.854 289.735 523.785 301.177 524.621 312.501C525.078 318.704 523.838 326.023 522.082 331.949C520.651 336.686 520.98 337.794 517.45 341.586C516.05 348.907 508.856 354.363 503.705 358.972C503.125 359.49 502.487 360.973 502.148 361.736C498.804 363.308 496.711 363.718 492.691 365.823C493.18 369.344 495.162 373.18 495.418 375.604C496.139 385.315 496.147 397.114 493.877 406.663C492.362 413.033 486.257 423.402 482.187 428.693C480.207 431.263 477.388 429.276 475.829 434.016C472.73 437.2 471.354 436.839 469.426 441.802C469.058 442.744 459.643 449.122 458.303 449.775C454.003 451.872 448.75 453.416 444.254 455.268C443.107 455.74 440.926 455.889 439.682 456.346C437.645 457.005 435.599 457.61 433.535 458.164C423.677 460.021 408 458.783 399.502 453.591C399.393 457.122 398.084 464.132 396.932 467.525C396.169 469.768 394.434 472.91 393.706 475.454C392.94 478.128 390.688 480.735 389.455 483.203C387.93 486.293 386.901 489.85 385.095 492.775C383.748 494.956 380.749 496.28 378.792 497.894C377.436 499.012 375.95 500.924 374.49 501.791C360.569 510.057 343.552 511.428 327.74 510.185C322.789 509.801 318.513 509.832 313.652 508.636C309.618 507.641 306.334 506.124 302.539 504.51C301.22 503.959 298.633 503.509 297.57 502.979C288.401 498.403 282.16 489.709 276.337 481.597C274.966 479.69 273.435 478.316 272.547 476.253C270.65 480.304 267.662 483.475 263.858 486.021C241.813 500.78 213.745 505.996 190.648 490.354C186.402 487.476 183.56 484.822 180.69 480.779C180.524 480.73 179.189 480.369 179.127 480.33C176.821 478.854 174.462 473.422 173.4 471.035C168.253 472.827 162.885 474.673 157.395 475.031C156.198 475.109 154.704 474.665 153.444 474.801C137.514 476.499 124.546 473.715 111.158 464.735C105.955 461.246 108.004 460.024 106.488 458.506C103.415 458.203 102.418 455.516 100.032 453.753C99.1158 453.074 97.1485 452.606 96.6067 452.16C86.7295 444.055 82.5381 431.198 78.534 419.513C75.7291 411.163 75.552 403.077 77.115 394.712C77.9579 390.201 78.1037 387.258 80.0909 383.165C75.9193 383.11 70.6889 382.431 66.6689 381.29C64.8029 380.762 63.2217 379.563 61.4343 378.85C59.2073 377.962 56.7753 377.524 54.5091 376.706C50.9329 375.416 40.4899 370.809 37.9756 368.537C33.8696 364.828 29.8197 359.534 27.2769 354.647C23.061 346.54 19.6948 332.897 19.3113 323.742C18.9694 315.578 18.8127 306.476 20.6939 298.505C21.3453 295.744 22.5122 293.091 23.3342 290.375C23.9104 288.471 24.2712 286.499 24.8832 284.608C26.3931 279.943 29.5822 275.718 32.8805 272.163C35.2776 269.583 48.2968 258.086 51.2009 257.391C53.0935 256.938 54.4459 258.66 56.4665 258.2C58.002 257.851 59.0592 256.2 60.5788 256.14C62.1577 256.694 62.6935 258.025 63.5508 259.477C62.9401 261.366 62.8353 262.147 62.6177 264.147C61.6658 264.756 60.7021 265.148 60.2225 266.02L60.2873 267.141C60.5386 271.011 56 273.944 53.5204 276.472C47.1584 282.96 41.9883 287.606 39.7624 296.713C37.8614 304.491 37.5425 311.519 37.6992 319.485C37.8194 325.584 37.2559 328.436 40.3543 334.082C41.9693 337.791 41.9335 341.327 44.4596 345.423C47.3932 351.213 50.8441 352.443 56.1199 355.264C63.6874 359.307 69.2919 361.631 77.5781 364.052C82.2484 362.715 87.3043 363.391 92.2331 363.086C95.9499 359.542 106.236 354.023 109.552 360.576C110.268 361.994 110.938 363.459 111.718 364.893C111.518 370.443 110.401 371.744 107.248 376.28C102.467 383.16 97.9045 391.551 96.2514 399.828C95.7086 402.544 95.8259 404.78 94.9492 407.494L94.8185 407.891C96.8619 414.509 99.5599 422.553 102.084 429.106C102.965 431.394 107.178 435.142 108.841 437.296C112.129 441.556 117.573 444.136 121.631 447.621C124.309 449.888 126.983 450.117 130.12 451.402C134.887 453.356 141.324 456.255 146.67 455.615C149.618 455.263 150.636 455.349 153.574 455.571C155.885 455.746 158.847 455.074 161.201 455.051C166.586 455.012 170.119 449.208 171.518 444.627C173.831 437.053 173.574 437.599 180.685 436.615C181.495 435.831 182.314 434.967 183.106 434.157C186.567 433.608 186.015 433.078 188.502 435.416C191.165 437.92 190.917 438.573 191.568 441.995C191.901 443.747 192.574 445.831 192.645 447.675C192.738 451.786 191.782 460.645 193.182 464.328C196.412 472.829 207.907 478.74 216.417 479.891C224.188 480.944 234.264 481.098 241.526 478.097C244.042 477.06 246.392 475.835 248.718 474.441C256.141 470.876 255.517 469.045 258.332 462.246C259.365 462.084 260.271 462.116 261.008 461.552C260.809 460.669 260.291 460.329 259.624 459.58C260.645 457.396 261.008 455.516 262.858 453.897C265.3 453.022 266.8 452.444 270.337 451.781C276.322 450.655 274.812 456.668 278.681 458.125C279.433 458.41 277.711 462.492 277.753 464.208L278.15 464.438C279.605 465.281 280.177 465.349 280.917 467C281.134 467.483 281.026 467.339 281.593 467.561C282.492 467.209 282.542 467.13 283.302 466.582L283.49 466.694C283.594 466.757 283.696 466.822 283.803 466.882C288.043 469.324 290.76 473.944 293.984 477.504C302.923 487.377 312.85 491.245 326.008 492.308C329.992 492.631 333.886 492.598 337.881 493.034C339.385 493.198 340.83 493.096 342.309 492.791C345.498 492.13 361.436 487.071 363.57 485.24C367.865 481.56 379.03 461.599 379.999 456.124C380.378 453.978 380.02 451.541 380.02 449.357C380.022 446.393 380.182 443.405 380.367 440.449C379.024 438.926 378.178 437.401 377.162 435.653C370.169 423.637 383.75 416.629 392.486 425.097C393.376 425.852 394.32 426.933 395.281 427.581C404.228 433.622 413.946 439.276 424.891 440.456C428.175 440.812 439.084 436.171 443.002 435.75C444.094 435.633 446.89 434.564 448 434.016C450.939 431.274 454.126 428.805 457.422 426.544C459.75 424.943 461.163 421.166 463.156 419.066C464.389 417.768 466.113 416.379 467.182 414.929C470.552 406.007 476.636 399.058 475.479 389C475.186 386.472 476.557 380.621 475.873 377.461C475.46 375.552 475.831 372.786 474.345 371.031C472.038 368.312 468.365 366.983 465.129 365.758C458.446 363.449 459.692 361.571 458.872 356.071C458.047 355.371 456.939 354.566 456.061 353.89C456.323 352.336 456.166 352.383 455.771 350.928C455.575 349.983 457.096 349.392 457.704 348.74C460.173 346.094 466.879 345.334 470.348 345.404C475.742 345.517 481.51 346.838 486.934 346.015C489.083 345.689 490.734 343.331 492.338 342.046C494.18 340.492 496.599 339.319 497.814 337.235C499.828 334.004 501.265 330.476 502.665 326.999C504.875 321.509 505.447 317.03 505.337 311.175C505.314 308.21 505.58 305.499 504.778 302.532C503.051 296.144 500.076 287.588 495.131 282.934C494.065 281.928 490.669 281.202 489.057 280.184C488.47 279.288 488.835 278.596 488.671 277.517L488.253 277.42C487.367 278.094 487.119 278.371 486.087 278.708C484.872 278.376 485.434 278.152 484.159 277.052C482.383 277.073 477.072 278.789 476.173 278.604C475.661 277.998 475.628 276.924 475.51 276.083C474.57 275.72 473.634 275.347 472.702 274.965C471.406 274.433 470.372 274.062 469.844 272.785C470.33 271.586 471.027 271.669 471.087 270.538L470.066 270.003C469.267 268.17 471.346 264.492 472.485 263.032C473.859 261.269 475.675 260.24 477.532 259.064C478.154 259.534 479.125 260.41 479.818 260.467C479.896 260.153 480.288 258.69 480.513 258.542C482.864 257.004 487.098 256.098 489.005 253.975C491.411 251.302 495.204 243.196 496.738 240.12C498.854 235.873 498.843 221.526 498.065 216.634C497.482 212.73 496.343 208.93 494.682 205.349C491.166 197.679 484.551 191.11 476.009 192.132C472.762 192.52 468.48 191.945 465.144 192.195C463.88 192.29 461.163 191.088 459.834 190.908C454.81 190.394 455.205 191.276 453.305 186.608C452.783 186.427 452.464 186.302 451.96 186.074C451.79 184.796 452.579 185.844 452.778 184.38L452.051 183.791C451.947 182.978 453.948 181.777 454.512 180.706C455.382 179.059 454.818 176.765 455.638 175.158C457.566 171.286 462.344 171.47 465.933 170.104C474.013 167.03 473.227 160.54 473.666 153.44C473.82 152.102 473.193 149.308 473.431 148.108C475.029 140.015 470.296 132.528 467.804 125.047C466.798 122.03 463.522 118.111 461.516 115.291C455.638 107.026 447.663 100.75 437.854 97.8726C433.64 96.6077 430.367 96.136 426.187 94.3135C421.31 95.7753 415.163 95.638 410.221 97.7981C408.196 98.6835 405.511 100.316 403.47 101.386C400.782 102.798 397.755 104.366 395.153 105.911C393.494 106.895 391.362 109.498 389.505 110.263C387.87 110.936 385.464 111.168 383.609 111.55C381.775 110.46 378.664 109.586 377.24 108.199C373.037 104.106 378.246 94.7996 381.443 91.6866C381.475 88.9738 382.081 77.4252 381.642 75.4376C379.753 66.9251 374.106 56.751 369.772 49.1357C369.14 48.026 367.517 46.5038 366.418 45.7838C360.43 42.1934 351.368 38.526 344.513 37.34C343.231 37.118 339.02 37.5322 337.366 37.486C323.565 36.8114 311.319 37.2935 300.577 47.198C296.277 51.1614 291.907 57.0603 286.609 59.9567C285.799 60.6342 284.608 59.0792 284.214 59.4383C274.961 67.8643 275.462 59.0272 273.48 57.6129C273.231 57.7788 271.946 58.6892 271.685 58.6349C267.659 57.7897 262.597 55.4802 262.166 50.7978C262.134 50.4651 263.148 49.8503 262.921 48.9315C259.285 48.0928 259.553 42.6249 257.343 40.5331C252.337 35.7943 243.794 31.6599 237 30.5304C234.699 30.1477 232.196 30.3614 229.871 30.2512C222.699 30.0626 216.655 30.3204 209.965 33.1936C207.249 34.3597 206.11 34.5754 203.805 36.4483C191.48 46.4605 195.899 48.869 194.971 62.8119C194.847 64.6746 193.467 70.9509 193.145 73.9325C191.163 74.5763 189.282 74.5598 188.816 76.5515L188.505 76.7216C186.945 75.2775 187.195 76.638 185.74 76.451C185.083 76.3666 183.785 74.3276 182.926 74.0283C181.559 73.5514 179.643 73.8183 178.315 73.3004C173.444 71.496 174.417 65.7423 172.421 61.8481C169.954 57.0336 166.599 55.4224 161.407 55.2224C159.002 55.1294 156.744 54.7648 154.24 54.9317C150.703 55.1673 147.062 54.4968 143.539 55.3363C141.728 55.7743 139.499 56.1266 137.803 56.9276C134.051 58.7002 130.116 59.9896 126.304 61.5671C123.833 62.5896 121.883 64.8493 119.718 66.1416C115.487 68.6669 112.561 71.3194 109.548 75.2075C108.155 76.9005 106.377 78.5299 105.218 80.3932C101.265 86.7483 100.457 94.1592 97.7749 100.965C96.986 102.967 97.6751 105.26 97.8687 107.338C98.7989 117.323 103.834 125.456 108.799 133.884C110.05 136.007 111.901 137.704 113.032 139.893C113.922 141.616 113.997 143.463 114.218 145.364C113.195 147.102 112.439 150.001 111.147 151.333C106.981 155.628 97.6208 150.551 94.4019 147.309C91.4369 147.324 88.5791 147.332 85.5705 147.231C84.1658 147.184 80.0496 146.559 79.0209 146.8C69.813 148.955 60.7768 154.033 52.5083 158.582C51.4347 159.173 49.5915 161.054 48.8916 162.119C44.7694 168.392 41.4972 177.526 40.0675 184.913C39.8076 186.255 40.4936 190.239 40.3935 191.581C39.905 198.127 40.0422 207.522 41.6508 213.904C43.7516 222.238 51.3289 230.483 57.4414 236.177C59.0146 237.643 61.3918 239.921 62.4845 241.835C62.9826 242.707 62.0433 244.016 62.0529 244.46C62.0686 245.166 64.3742 246.539 64.712 247.31C64.9348 247.819 64.4288 248.6 64.4931 248.751C64.8977 249.702 65.0772 250.273 65.2501 251.285C65.038 252.365 63.3748 254.033 62.5438 254.695L62.037 254.631C61.0002 253.838 60.9518 253.694 60.2081 252.582C58.9843 252.552 57.7256 252.484 56.4989 252.434C54.4537 253.453 53.9814 253.774 51.6797 252.395C49.0254 250.805 47.0029 248.214 44.5884 246.273C36.4628 239.743 27.0026 231.348 25.686 220.418C25.4426 218.541 23.7002 214.893 23.2271 212.602C20.654 200.082 20.847 185.799 23.61 173.33C24.7037 168.394 27.3712 159.237 29.7217 155.003C32.3471 150.273 37.5223 144.254 41.5774 140.526C42.2757 139.884 48.4927 138.278 49.8054 136.918C53.1784 134.981 58.9652 132.495 62.7985 132.304C67.4821 128.491 76.3934 127.416 82.2562 127.459C82.1875 127.319 81.9987 126.947 81.9266 126.738C78.383 116.468 77.1194 106.234 79.0008 95.4995C79.4799 92.765 81.3994 90.3157 82.0115 88.2595C83.047 84.7801 83.3584 83.265 84.706 79.7334C87.5806 72.2006 91.904 64.3202 97.9342 58.8501C98.453 58.3795 101.207 57.493 101.926 56.9051C104.538 54.7687 105.152 53.2905 108.278 51.9279C111.808 44.0731 118.456 43.4557 125.246 39.151C126.369 38.4385 135.806 35.874 137.158 35.8048C145.925 35.3569 155.276 35.0892 163.985 36.2292C166.545 36.5865 172.641 38.5294 175.189 39.3636C177.725 36.1072 178.104 34.1019 180.103 30.755C184.526 28.3676 185.14 26.015 188.717 23.0955C190.102 21.9657 196.518 17.1345 198.136 16.7909C201.058 16.1704 202.061 15.577 204.799 13.9008C208.319 12.4889 213.819 11.7673 217.625 11.0682C219.032 10.8097 220.576 10.929 222.186 10.5959L222.487 10.5308Z" fill="#7F8BDF"/>
</svg>
