<svg width="178" height="162" viewBox="0 0 178 162" fill="none" xmlns="http://www.w3.org/2000/svg">
<path d="M127.864 16.9221C129.664 16.7068 130.177 17.8555 131.007 19.1748C135.644 19.6411 137.603 23.9411 139.433 27.6184C141.62 32.0134 143.517 36.7227 144.429 41.5811C144.697 43.0122 144.53 45.2528 144.567 46.9661C144.653 50.9222 144.644 55.1081 144.555 59.0807C143.455 63.1051 144.06 63.3405 143.842 67.3223C143.515 73.2581 141.67 81.4131 139.03 86.7835C135.027 94.9254 128.026 103.127 121.181 109.077C118.747 110.675 115.181 112.746 112.542 113.832C110.011 114.873 109.298 113.258 106.418 115.346C105.218 116.216 99.1364 116.073 97.381 116.412C96.3329 116.615 91.9523 114.616 90.6376 115.336C88.4707 117.231 86.3804 120.097 84.2226 122.305C81.5488 125.042 79.957 126.055 77.1644 128.362C71.4822 133.055 65.4702 137.333 58.4982 139.862C52.9758 141.865 44.9794 141.826 39.7275 139.068C37.4489 137.871 34.8145 136.598 32.8803 134.768C29.111 131.201 24.5214 124.574 22.7525 119.679C21.3117 115.012 20.9355 109.149 23.0088 104.638C24.2409 101.956 27.5891 100.32 30.0688 98.961C30.457 98.7482 30.8857 98.8403 31.2543 99.0251C31.5388 99.5967 31.5152 100.561 31.5465 101.229C32.3915 101.918 33.4795 102.184 33.942 103.061C34.2178 104.769 32.5938 107.857 31.6411 109.281C32.1925 111.286 31.6356 113.359 32.0048 115.203C32.725 117.878 34.6527 121.444 36.3796 123.602C39.3784 127.349 43.0761 128.738 47.75 128.77C49.7404 128.783 51.0088 128.411 52.9021 128.065C58.2977 127.54 69.8246 117.398 74.197 113.55C75.6496 112.272 77.7404 109.674 79.3375 108.186C74.5186 104.81 66.907 94.3674 65.2148 88.7215C62.6953 80.3152 63.7205 68.9901 65.8696 60.4905C67.7839 52.9208 71.4626 47.0837 77.5001 42.0769C80.2236 39.8704 86.0985 38.8323 89.427 39.876C95.0961 41.5064 100.176 45.6121 103.279 50.689C105.347 54.5523 108.513 62.0522 108.243 66.5049C107.905 72.0964 107.827 80.689 106.278 85.9707C104.817 90.9522 101.841 94.8432 100.481 100.058C103.299 99.939 106.994 99.5041 109.503 98.0979C110.386 97.5685 111.178 96.5426 111.993 95.9624C116.971 92.4323 120.476 87.5533 123.908 82.6061C126.712 78.5644 128.017 74.0757 128.798 69.2862C129.008 67.2886 129.05 65.2574 129.274 63.2615C129.565 60.6626 130.018 58.0858 130.113 55.4656C130.177 53.6994 129.972 51.9155 129.94 50.1501C129.879 46.6948 130.046 43.2874 129.33 39.8764C129.141 38.9514 129.058 38.1599 128.815 37.1626C128.101 34.2308 122.528 26.9805 122.134 24.9321C122.345 23.5252 124.407 21.6525 125.4 20.6552C126.042 21.1531 127.809 22.2248 128.498 21.3701C128.228 20.9389 128.101 20.7799 127.993 20.2668C128.127 19.8656 128.264 19.765 128.566 19.4866L128.667 19.3942C128.458 18.582 126.571 19.0707 126.542 17.8824C126.85 17.3812 127.337 17.1964 127.864 16.9221ZM86.5889 96.9705L87.0231 97.0295C87.5231 96.5505 91.4967 87.0615 92.3173 85.476C94.0353 82.157 94.4155 76.7313 95.7719 73.1562C95.3671 71.4666 95.6277 68.6727 95.6117 67.1083C95.5797 63.9624 94.4887 61.2756 93.354 58.4574C92.3867 56.0549 91.8202 53.8492 88.8172 53.8383C88.5408 53.8382 88.2646 53.8434 87.9883 53.854C86.2188 53.9298 84.648 54.2892 83.4041 55.8489C78.3005 62.2483 77.576 73.2008 77.6624 81.1039C77.6814 82.8452 78.1701 84.1396 78.5936 85.6658C79.9928 90.7079 83.045 93.3856 86.5889 96.9705Z" fill="#FEE69B"/>
</svg>
