<svg width="198" height="202" viewBox="0 0 198 202" fill="none" xmlns="http://www.w3.org/2000/svg">
<path d="M101.347 22.4414C102.781 22.5528 106.354 24.0134 106.701 25.4975C107.505 28.9371 107.758 32.7734 108.089 36.3151L110.403 58.9434C110.554 60.4545 110.37 62.1104 110.528 63.3004C111.523 70.7861 112.046 78.5245 115.076 85.5309C117.294 90.6569 124.329 90.7497 129.018 92.3371C132.602 93.5812 136.722 94.0886 140.274 95.1788C146.038 96.9482 151.783 97.6829 157.648 99.0425C163.866 100.484 170.313 101.145 176.388 103.125C178.465 103.802 180.469 105.865 179.526 108.167C178.742 108.895 176.667 109.036 175.575 109.233C170.724 110.109 166.235 110.254 161.359 110.274C158.553 110.286 153.315 110.034 150.752 110.38C143.576 111.349 135.767 113.065 128.896 115.393C125.676 116.483 121.47 118.55 118.877 120.814C116.957 122.49 115.951 125.253 114.695 127.4C111.868 132.447 109.287 138.586 108.05 144.262C107.012 149.027 106.774 154.795 106.062 159.698C105.877 160.977 105.94 162.353 105.728 163.672C104.845 169.155 103.858 174.624 102.385 179.983C101.652 182.771 101.947 185.919 101.005 188.601C100.569 189.843 99.1468 189.051 98.47 188.581C95.965 186.2 96.8448 182.642 96.6824 179.602C96.2236 171.051 95.0874 162.779 93.7056 154.34C93.5533 153.663 93.573 152.727 93.4092 152.076C92.8199 149.764 94.1094 146.96 93.4692 144.722C91.5038 137.854 89.5051 130.988 87.6628 124.09C87.4785 123.4 84.1477 119.19 83.4992 118.48C81.371 116.154 76.9425 115.115 74.0709 114.165C70.2914 112.73 66.7753 110.69 62.7335 109.928C56.8428 108.463 54.5007 108.771 48.4818 108.693L35.3221 108.649C31.6815 108.668 26.6144 108.441 22.9668 108.278C21.1121 106.729 20.6896 105.78 19.428 103.727C23.8194 101.939 28.4252 100.732 33.129 100.137C34.7331 99.9348 37.1958 99.9222 38.645 99.6668C43.3278 98.8412 44.2934 98.1671 49.1531 98.7714C53.016 95.7733 60.3341 94.4631 65.1503 93.115C70.8161 91.5291 73.5007 89.8525 78.3274 86.5563C83.5438 82.9938 89.3585 76.7048 91.4395 70.7161C92.0942 68.832 92.2376 66.775 92.7121 64.8385C93.6405 61.0479 94.4338 57.454 94.896 53.5655C95.2163 50.8693 95.2649 48.1458 95.4789 45.44C95.82 41.1886 96.3674 36.9561 97.1194 32.7579C97.7248 29.4422 97.2037 23.5737 101.347 22.4414Z" fill="#FEE69B"/>
</svg>
