<svg width="403" height="397" viewBox="0 0 403 397" fill="none" xmlns="http://www.w3.org/2000/svg">
<g clip-path="url(#clip0_555_90)">
<path d="M168.455 0.0984469C170.633 -0.631131 173.653 -0.0557043 175.881 0.440459C189.41 3.44864 199.931 14.8922 206.215 26.4406C216.848 12.3403 239.369 12.9962 255.519 10.0573C291.999 3.41806 304.923 34.7693 305.765 64.5503C333.728 55.9096 347.3 56.0488 368.124 78.1514C369.497 79.6293 372.436 80.8744 373.721 82.2973C386.963 96.9775 383.712 119.824 372.517 133.285C379.263 136.584 393.178 148.079 395.487 155.587C398.033 163.867 397.472 182.415 395.462 191.101C394.264 196.284 390.938 203.051 388.642 207.863L389.927 215.58C394.077 219.107 401.104 225.839 401.965 231.225C405.004 250.115 393.815 279.869 374.526 284.933C374.957 285.681 375.369 286.439 375.756 287.208C379.874 295.297 384.024 312.728 380.885 321.437C376.954 332.335 364.186 348.839 353.547 353.366C339.756 359.233 323.307 363.258 308.86 358.34C305.397 361.897 303.862 366.209 301.628 370.565C287.818 397.522 264.68 402.14 236.611 390.772C226.995 388.057 216.037 378.422 212.524 369.033C204.911 372.238 200.343 379.124 191.394 381.955C164.73 390.391 140.143 386.981 130.296 357.945L129.566 358.327C113.485 366.664 101.341 362.98 86.1215 358.035L85.7096 358.143C79.1761 359.861 72.8485 359.388 66.9577 355.736C50.4211 345.478 56.1933 322.793 54.7019 306.428C54.34 302.415 55.4008 298.665 54.3462 294.435C52.5241 292.931 45.7659 292.635 43.0451 291.736C31.0639 287.698 17.6661 283.054 13.9032 269.334C8.46176 249.507 10.1217 224.201 18.4399 205.251C21.1357 199.114 26.2527 196.928 32.3119 195.206L28.6302 190.287C20.4056 186.696 14.4149 183.874 8.43055 176.429C-0.11857 165.804 -0.717639 147.073 0.468006 133.953C1.11699 126.754 6.87048 112.538 13.0234 108.074C15.1513 106.529 20.7051 104.343 23.0265 102.867C35.3197 95.0603 43.7753 93.4176 58.2089 95.9215C53.7471 83.1967 57.1855 59.2261 62.5708 46.5037C70.8766 26.8644 99.6628 23.3307 117.959 27.8311C120.449 28.4428 128.324 33.0075 131.401 34.4648C136.206 11.4765 146.24 3.99847 168.455 0.0984469Z" fill="#FEE69B"/>
</g>
<defs>
<clipPath id="clip0_555_90">
<rect width="403" height="397" fill="white"/>
</clipPath>
</defs>
</svg>
