<svg width="273" height="281" viewBox="0 0 273 281" fill="none" xmlns="http://www.w3.org/2000/svg">
<path d="M218.559 42.3746C228.972 42.8548 231.132 40.1771 238.547 48.7843C242.548 53.4276 240.99 57.7626 241.22 63.3526C241.431 68.4531 241.154 73.1621 240.985 78.0411L240.249 106.056C240.202 107.745 240.907 110.048 240.97 112.033C241.038 114.189 240.412 116.937 240.465 118.809C240.629 124.631 240.854 130.55 240.732 136.374L239.025 204.264C238.873 210.926 238.363 216.974 238.338 223.812C238.288 230.922 238.054 238.029 237.637 245.126C237.453 248.251 237.431 252.395 236.53 255.34C235.156 259.825 231.086 259.58 227.518 259.455C225.988 257.933 223.631 256.403 221.476 256.353C204.668 255.973 187.04 256.403 170.308 256.535L71.595 257.033C63.0045 257.055 54.7895 257.583 45.9375 257.538C37.7885 257.238 35.9545 258.218 27.6335 256.358C26.5297 253.365 24.6566 248.131 24.4637 244.965C23.9254 236.133 24.4318 226.978 24.7229 218.127C24.7995 215.797 24.5438 213.158 24.5613 210.767L24.94 176.125L25.7005 100.632L25.9632 63.9718C26.0215 60.4838 25.1585 53.6846 27.136 50.5583C27.5825 49.8523 29.9652 47.7696 30.8195 47.7763C33.1737 47.7948 36.5937 46.4323 38.7502 47.4978C40.1557 47.9703 42.4777 46.0398 43.8997 46.0486C50.2257 46.0871 56.4922 46.1156 62.797 45.5656C65.738 45.3088 68.839 45.7796 71.735 45.5516C80.2087 44.8838 88.6625 44.8613 97.1577 44.9113C99.4567 44.9243 101.97 44.4563 104.251 44.5216C110.613 44.7038 116.925 44.1996 123.288 44.4171C125.404 44.4493 127.96 43.8846 130.045 44.0058C137.893 44.4623 145.594 43.6686 153.433 43.4098C156.31 43.3148 159.762 44.1256 162.567 43.9168C168.502 43.4748 174.308 42.9768 180.241 43.9536C181.67 44.1803 182.383 43.2836 183.454 43.1883C187.36 42.8411 191.294 43.3243 195.163 43.3888C196.406 43.4096 198.717 42.5013 200.449 42.4811L200.608 42.4803C201.89 42.4658 203.519 43.2136 204.756 43.6898C208.61 42.7656 214.563 42.4233 218.559 42.3746ZM37.8512 245.826C42.223 244.862 47.8775 245.59 52.5992 245.218C59.7967 244.679 66.9997 244.55 74.213 244.431C76.47 244.393 78.7775 244.103 81.0522 244.058C97.6145 243.732 114.255 244.316 130.768 242.965C134.81 242.634 139.007 242.934 143.064 242.743C147.597 242.623 152.11 242.526 156.648 242.501C157.958 242.493 159.531 243.07 160.793 243.5C167.172 240.81 182.63 242.438 190.172 241.993C192.511 241.855 195.065 241.632 197.384 241.541L222.163 240.722C222.088 239.908 222.018 239.084 221.933 238.272C222.25 231.766 222.231 225.148 222.643 218.681C223.624 203.289 223.05 188.031 223.693 172.615C224.486 152.824 225.597 133.048 227.026 113.292C227.579 105.151 228.516 96.8281 228.93 88.6681C229.364 80.1246 230.076 71.6638 230.353 63.1196C230.404 61.5721 230.159 60.0601 230.289 58.5088L175.969 59.2131C166.915 59.2631 157.711 58.8798 148.641 58.7426C145.627 58.6971 142.042 59.2198 138.628 59.2176L81.543 58.6168L54.425 58.5048C50.536 58.5263 40.8165 58.7836 37.2742 58.1251C36.8122 60.4063 37.5295 61.7221 37.359 63.6211C36.972 67.9286 37.2685 71.8583 37.3262 76.1268L37.4282 93.0011L38.0967 160.766C38.131 165.422 37.8922 170.175 37.8012 174.829C37.7645 176.722 38.146 179.029 38.137 180.98C38.0675 196.063 38.5165 211.215 38.2537 226.3C38.1412 232.752 39.3662 239.582 37.8512 245.826Z" fill="#FEE69B"/>
</svg>
