<svg width="190" height="221" viewBox="0 0 190 221" fill="none" xmlns="http://www.w3.org/2000/svg">
<path d="M94.496 21.49C96.3266 21.7377 100.349 23.732 101.673 25.0551C103.71 27.0174 103.592 30.2105 104.346 32.5972C105.384 35.8788 105.492 39.7576 106.332 42.9056C109.689 55.4892 116.471 66.9723 121.852 78.7282C122.748 80.6859 124.835 82.5887 126.189 84.2549C129.404 87.9462 134.016 90.0781 137.927 92.9079C142.394 95.9481 147.581 98.1596 152.428 100.479C154.096 101.277 155.647 102.466 157.325 103.264C159.509 104.134 162.281 103.492 164.152 105.467C166.501 107.538 165.892 108.18 166.333 111.157C166.44 111.876 166.847 112.309 166.923 113.315C166.021 115.922 158.669 118.884 156.328 120.163C153.091 121.932 149.662 123.612 146.313 125.175C143.987 126.344 141.808 128.054 139.452 129.141C134.669 131.347 129.881 133.686 125.137 135.97C123.513 136.972 122.05 138.404 120.59 139.626C118.721 141.19 116.547 142.625 114.929 144.43C112.28 147.384 110.124 150.65 107.887 153.898C101.709 162.871 99.851 174.325 98.0776 184.859C97.2491 189.837 99.3027 191.796 94.5277 195.739C92.9112 196.654 91.5738 196.489 89.8067 196.283C88.5063 195.008 86.8637 193.833 85.4159 192.468C84.9377 189.716 84.6755 187.204 84.49 184.423C84.2634 183.458 83.7983 182.285 83.4441 181.39C79.1987 170.664 74.443 160.389 69.0158 150.214C65.5772 143.767 63.3406 136.677 58.0818 131.198C56.5798 129.633 55.4398 127.164 53.6985 125.702C51.0197 123.292 48.6971 120.39 45.7198 118.327C43.4244 116.625 40.6592 116.181 38.0671 115.202C31.1028 112.572 25.4846 111.669 22.5498 104.167C24.7064 95.5189 30.6111 96.8339 37.7574 95.0358C45.186 93.1667 55.1422 86.8773 60.2681 81.1459C64.3832 76.5447 67.8329 69.7823 71.3505 64.6794C72.871 62.2561 74.5577 59.9574 76.0647 57.5518C79.1225 52.5825 82.0256 47.5194 84.7694 42.3701C86.428 39.2587 87.5521 36.5152 88.7707 33.1963C90.352 28.8905 90.555 24.2801 94.496 21.49Z" fill="#FEE69A"/>
</svg>
